<?xml version="1.0" standalone="no"?>
<!DOCTYPE svg PUBLIC "-//W3C//DTD SVG 20010904//EN"
 "http://www.w3.org/TR/2001/REC-SVG-20010904/DTD/svg10.dtd">
<svg version="1.0" xmlns="http://www.w3.org/2000/svg"
 width="1024.000000pt" height="1024.000000pt" viewBox="0 0 1024.000000 1024.000000"
 preserveAspectRatio="xMidYMid meet">

<g transform="translate(0.000000,1024.000000) scale(0.100000,-0.100000)"
fill="#000000" stroke="none">
<path d="M2238 9153 c-2 -5 -2 -1951 0 -4325 l2 -4318 3075 0 3074 0 3 262 c2
145 4 2091 6 4326 l4 4062 -3081 0 c-1694 0 -3081 -3 -3083 -7z m6107 -4318
l0 -4278 -3030 1 -3030 1 -2 4272 c-1 2350 0 4275 2 4278 2 3 1366 5 3032 5
l3028 -1 0 -4278z"/>
<path d="M2360 6610 l0 -2430 1435 0 1435 0 -2 -851 -3 -850 -1430 -2 -1430
-2 1 -80 c0 -44 2 -120 3 -170 l4 -90 8 78 c8 74 30 124 42 94 4 -9 6 -9 6 1
1 10 5 10 17 -2 8 -9 20 -14 25 -11 19 12 8 23 -31 30 -73 12 -47 31 63 43
132 16 277 16 277 1 0 -8 4 -8 13 -2 15 11 330 10 405 -1 l52 -9 0 -143 0
-144 -442 -2 -443 -3 -3 -718 -2 -717 1985 0 1985 0 0 685 0 685 950 0 950 0
2 -432 c1 -238 2 -545 2 -682 1 -174 4 -250 12 -253 7 -2 13 23 17 74 10 128
8 1351 -2 1357 -5 3 -441 6 -970 7 l-961 0 0 160 0 160 683 -5 c375 -3 806 -5
957 -6 181 0 270 -4 260 -10 -12 -8 -12 -10 5 -11 11 0 14 -3 7 -6 -6 -2 -10
-9 -6 -14 3 -5 -1 -9 -8 -9 -10 0 -10 -2 0 -8 9 -6 13 -42 13 -125 1 -64 5
-117 10 -117 8 0 15 220 12 355 0 22 -2 419 -3 883 -1 468 -6 845 -11 848 -9
5 -12 -343 -8 -881 1 -132 1 -352 0 -490 -1 -137 -1 -265 -1 -282 l0 -33
-1372 -1 c-755 0 -1409 -4 -1453 -9 -44 -4 -82 -7 -85 -5 -3 2 -4 391 -2 865
l2 861 33 -3 c32 -3 32 -3 38 -68 4 -46 6 -54 7 -25 1 22 5 50 8 62 l6 23
1377 0 c757 0 1397 0 1424 0 l47 0 0 2430 0 2430 -2955 0 -2955 0 0 -2430z
m2069 2130 c80 -40 122 -118 123 -226 0 -83 -28 -161 -73 -198 -105 -88 -277
-65 -339 46 -31 56 -41 193 -17 251 25 58 64 104 110 126 55 28 144 28 196 1z
m1395 10 c24 -9 26 -14 26 -69 l0 -59 -40 15 c-51 20 -105 9 -132 -28 -11 -14
-22 -50 -25 -80 -12 -121 71 -188 179 -144 12 5 17 1 20 -15 2 -11 30 68 63
177 l61 198 65 3 65 3 68 -223 c38 -123 70 -225 73 -228 2 -3 3 36 1 85 -1 50
-2 152 0 228 l2 137 113 0 c135 0 169 -14 205 -81 30 -56 25 -125 -13 -174
-14 -19 -25 -37 -25 -40 0 -4 18 -43 40 -86 22 -44 40 -84 40 -89 0 -6 -31
-10 -69 -10 l-68 0 -32 70 c-17 39 -31 75 -31 80 0 6 -12 10 -26 10 -25 0 -26
-1 -24 -62 4 -109 16 -99 -122 -96 -114 3 -123 4 -126 23 -10 67 -8 65 -77 65
-62 0 -65 -1 -71 -27 -14 -66 -9 -63 -102 -65 -48 -2 -111 -2 -140 -1 -114 4
-191 85 -200 211 -11 163 83 281 225 282 28 0 63 -4 77 -10z m-1929 -87 c21
-49 41 -92 45 -96 4 -4 26 35 50 88 l43 95 63 0 c35 0 64 -2 64 -5 0 -9 -28
-62 -96 -181 l-64 -112 0 -91 0 -91 -60 0 -60 0 0 85 0 84 -80 156 -81 155 68
0 69 0 39 -87z m787 -74 l3 -161 33 -29 c40 -36 81 -38 119 -5 l28 24 3 166 3
166 65 0 64 0 0 -147 c-1 -223 -19 -275 -114 -319 -113 -53 -253 -17 -301 76
-8 16 -15 93 -20 208 l-7 182 60 0 60 0 4 -161z m598 142 c43 -23 80 -84 80
-134 0 -39 -33 -117 -50 -117 -19 0 -10 -31 35 -120 l45 -90 -73 0 -74 0 -16
38 c-9 20 -25 58 -36 85 -12 27 -26 47 -35 47 -13 0 -16 -15 -16 -85 l0 -85
-60 0 -60 0 0 240 0 240 113 0 c90 0 119 -4 147 -19z m1708 -38 l-3 -58 -57
-3 -58 -3 0 -142 c0 -78 -3 -159 -6 -179 l-7 -38 -58 0 -59 0 0 183 0 182 -62
0 -63 0 1 33 c1 17 2 43 3 57 l1 25 185 0 186 0 -3 -57z m1150 -29 c20 -14 22
-23 22 -109 0 -72 -4 -97 -16 -109 -13 -13 -45 -16 -195 -16 -132 0 -197 -4
-244 -16 l-64 -16 -60 -137 c-101 -230 -307 -718 -571 -1354 -170 -407 -262
-618 -281 -638 l-27 -29 -181 0 c-114 0 -181 -4 -181 -10 0 -5 10 -10 22 -10
36 0 606 -370 665 -431 55 -58 63 -92 63 -254 l0 -145 28 0 c57 0 105 -22 152
-69 56 -56 66 -91 37 -128 -16 -20 -18 -29 -9 -42 141 -198 81 -441 -136 -548
-71 -35 -82 -38 -161 -37 -111 1 -181 27 -257 96 -94 87 -142 217 -124 335 13
77 17 80 60 38 31 -31 38 -45 43 -90 11 -109 78 -206 169 -245 66 -28 171 -25
234 8 113 58 177 224 123 323 -10 20 -11 20 -44 -5 -19 -14 -38 -26 -43 -26
-5 0 -12 -24 -15 -54 -3 -29 -11 -63 -19 -75 -37 -62 -150 -86 -206 -45 -41
31 -72 83 -72 120 0 30 -3 34 -25 34 -39 0 -85 23 -137 70 -45 39 -48 45 -48
90 0 27 -4 52 -10 55 -5 3 -10 15 -10 26 0 19 -18 19 -1069 19 l-1069 0 -21
-36 c-12 -19 -21 -40 -21 -46 0 -6 15 -40 33 -77 29 -60 32 -74 32 -156 -1
-78 -4 -98 -29 -149 -54 -111 -152 -183 -280 -207 -153 -28 -320 61 -394 211
-24 49 -27 66 -27 162 0 134 11 152 60 94 26 -32 34 -51 39 -100 9 -78 37
-135 88 -181 90 -82 190 -97 295 -45 95 47 142 123 143 227 0 49 -17 107 -29
101 -57 -30 -69 -44 -75 -88 -12 -89 -69 -143 -151 -143 -78 0 -138 53 -151
135 -5 29 -11 38 -26 38 -34 0 -83 27 -125 70 -44 43 -51 66 -33 101 6 11 12
35 14 54 l2 35 -81 0 c-69 0 -85 3 -100 20 -23 26 -23 74 0 100 18 20 27 20
1631 20 887 0 1619 3 1628 6 13 5 16 24 16 108 0 116 2 113 -100 178 -335 216
-534 348 -577 384 -49 42 -103 128 -103 164 0 16 -46 18 -532 23 -1443 16
-2245 29 -2266 37 -44 19 -36 -17 -212 925 -45 237 -98 518 -118 625 -21 108
-35 207 -32 220 10 41 43 50 190 49 186 0 232 -18 272 -108 14 -31 17 -46 9
-54 -6 -6 -11 -26 -11 -44 l0 -33 84 0 c57 0 87 -4 93 -12 4 -7 10 63 13 156
l5 169 353 2 352 2 0 -123 0 -124 -27 -6 c-14 -4 -100 -4 -189 0 l-163 6 -6
-33 c-4 -19 -5 -45 -3 -58 3 -24 3 -24 156 -27 l152 -3 0 -105 0 -106 -152 3
-153 4 -3 -57 -3 -57 38 -7 c20 -4 108 -4 195 -1 l158 6 0 -124 0 -125 -355 0
-355 0 0 101 0 101 -62 -7 c-35 -4 -64 -8 -64 -9 -4 -4 28 -331 32 -336 3 -3
56 -6 118 -8 112 -4 113 -4 119 19 4 13 7 34 7 47 0 17 5 23 18 20 12 -2 18
-15 20 -46 l3 -42 160 0 159 0 0 33 c0 41 13 62 34 54 11 -4 16 -19 16 -47 l0
-41 158 3 157 3 5 40 c4 32 9 40 25 40 16 0 21 -8 23 -43 l3 -43 157 3 157 3
3 43 c3 34 7 43 20 40 12 -2 18 -15 20 -46 l3 -43 157 3 157 3 3 41 c2 32 8
43 23 47 16 4 19 0 20 -29 1 -19 2 -40 3 -46 1 -10 41 -14 159 -16 l157 -3 0
206 0 205 24 0 c32 0 33 -7 23 -100 -5 -42 -6 -130 -2 -194 l7 -116 153 0
c150 0 153 0 159 23 3 12 6 32 6 45 0 15 6 22 20 22 17 0 20 -7 20 -45 l0 -46
145 2 145 1 0 180 c0 110 -4 177 -9 173 -6 -3 -53 -2 -105 1 -84 6 -96 9 -96
25 0 23 -13 22 255 19 116 0 214 -5 218 -9 4 -4 5 -15 1 -24 -5 -14 -23 -17
-115 -17 l-109 0 2 -172 3 -173 102 -3 102 -3 20 46 20 45 57 0 c49 0 55 -2
49 -17 -4 -10 -13 -36 -20 -58 -7 -22 -27 -74 -45 -115 -23 -53 -100 -243
-100 -245 0 0 59 1 132 1 153 2 129 -18 207 172 l50 122 -120 0 c-119 0 -120
0 -117 23 3 21 7 22 130 25 l128 3 16 31 c26 51 124 298 124 314 0 8 -10 14
-26 14 -40 0 -28 34 14 38 18 2 37 11 43 20 30 50 135 312 125 313 -6 1 -21 1
-34 1 -17 -1 -22 4 -20 16 2 12 15 18 44 20 l41 3 125 292 c69 161 124 293
122 295 -1 2 -33 -6 -72 -17 l-69 -21 -43 -94 c-23 -52 -48 -97 -55 -100 -13
-5 -107 3 -113 9 -5 5 84 200 110 243 11 18 36 41 57 51 69 35 226 83 289 89
55 4 63 7 68 29 13 48 33 53 239 53 156 0 195 -3 213 -16z m-3298 -506 c5 -13
23 -77 40 -143 68 -267 100 -366 100 -314 0 7 33 118 74 244 l74 230 196 3
196 2 0 -470 0 -470 -145 0 -145 0 -2 255 -3 255 -53 -172 c-28 -95 -63 -210
-77 -255 l-26 -83 -118 0 -118 0 -18 63 c-35 128 -127 432 -135 445 -9 18 -20
-174 -20 -360 l0 -148 -125 0 -125 0 0 463 c0 255 3 467 7 470 3 4 98 7 210 7
201 0 204 0 213 -22z m1300 9 c102 -4 167 -33 225 -99 41 -47 38 -34 -5 22
-15 19 -35 47 -45 63 l-17 27 169 0 170 0 84 -195 c81 -189 84 -195 96 -168 7
15 45 100 83 188 39 88 74 163 78 167 4 3 71 4 150 1 142 -6 142 -6 129 -27
-8 -12 -63 -113 -122 -226 -59 -113 -123 -231 -141 -263 l-34 -58 0 -164 c0
-90 -3 -170 -6 -179 -5 -14 -29 -16 -165 -16 l-159 0 0 180 0 180 -111 210
c-61 115 -112 210 -114 210 -2 0 5 -23 16 -50 22 -58 24 -93 7 -158 -35 -143
-170 -232 -348 -232 l-50 0 0 -170 0 -170 -150 0 c-136 0 -150 2 -150 18 -1 9
-1 162 0 340 l0 322 -80 0 -80 0 0 128 0 129 243 -4 c133 -2 280 -5 327 -6z
m-500 -522 c0 -124 -9 -155 -30 -99 -13 34 -13 180 0 205 23 42 30 16 30 -106z
m-940 -185 c0 -5 -2 -10 -4 -10 -3 0 -8 5 -11 10 -3 6 -1 10 4 10 6 0 11 -4
11 -10z m2128 -487 c3 -22 1 -23 -87 -23 -50 0 -91 3 -91 6 0 3 5 14 11 25 9
18 19 19 87 17 71 -3 77 -5 80 -25z m-1708 -4680 l0 -26 21 27 c13 17 30 26
49 26 19 0 36 -9 49 -26 l21 -27 0 27 c0 23 4 26 35 26 34 0 75 -27 75 -50 0
-15 -38 -50 -54 -50 -7 0 -16 -9 -19 -21 -8 -31 -31 -18 -38 22 -4 19 -7 25
-8 15 -2 -27 -30 -56 -54 -56 -12 0 -31 10 -44 22 -23 21 -23 21 -23 1 0 -18
-7 -21 -50 -22 -50 -1 -50 -1 -50 32 0 17 -3 49 -6 70 -6 33 -4 37 15 37 12 0
21 -6 21 -14 0 -27 20 -27 30 -1 12 31 30 24 30 -12z m-111 -21 c18 -58 4 -92
-38 -92 -30 0 -57 22 -47 39 4 6 14 7 24 4 15 -5 16 -4 1 8 -22 19 -28 40 -18
67 7 18 15 23 36 20 23 -2 30 -11 42 -46z m-1313 11 c3 -10 8 -25 11 -33 3
-11 9 -7 19 13 19 36 67 36 72 0 5 -31 22 -29 22 3 0 23 3 25 38 22 32 -3 37
-6 37 -28 0 -15 -6 -25 -14 -25 -8 0 -16 -6 -19 -14 -3 -10 0 -12 12 -8 10 4
22 7 27 7 5 0 9 11 9 25 0 14 8 29 19 35 27 14 41 13 41 -5 0 -9 6 -12 15 -9
17 7 21 -11 5 -21 -16 -10 -12 -35 5 -29 9 4 19 -3 27 -20 9 -22 9 -29 -4 -42
-25 -26 -58 -2 -58 41 0 19 -3 35 -6 35 -3 0 -17 -13 -31 -30 -32 -38 -88 -43
-99 -8 -6 21 -6 21 -23 1 -24 -30 -47 -34 -67 -12 -21 23 -34 24 -34 3 0 -12
-9 -14 -42 -12 -35 2 -43 7 -43 23 0 14 9 22 30 26 l30 6 -27 11 c-32 13 -36
36 -10 51 26 16 52 13 58 -6z m464 -304 c46 -21 79 -58 95 -106 20 -59 7 -60
-44 -4 -25 28 -59 55 -74 61 -18 6 -318 10 -842 10 l-814 0 -35 -34 c-38 -35
-45 -53 -22 -53 8 0 12 6 9 13 -2 6 9 21 26 33 30 22 33 22 363 15 183 -3 342
-6 353 -5 150 7 694 8 704 1 12 -7 12 -11 2 -24 -8 -9 -20 -16 -27 -16 -8 0
-14 -7 -14 -15 0 -11 -11 -15 -40 -15 -38 0 -40 -2 -40 -30 0 -28 -2 -30 -39
-30 -22 0 -43 5 -46 10 -8 12 -35 13 -35 1 0 -14 67 -27 160 -30 l40 -1 0 -50
0 -51 36 7 c24 4 39 3 44 -6 5 -9 8 -8 13 2 3 9 -3 14 -16 16 -12 0 -27 9 -34
18 -12 17 -13 17 -13 -2 0 -16 -2 -17 -10 -4 -7 12 -3 18 18 27 15 6 30 9 35
6 4 -2 7 0 7 6 0 5 -8 12 -17 14 -11 3 -7 5 10 6 18 1 27 -4 27 -14 0 -11 11
-15 36 -15 32 0 35 2 29 21 -6 19 -5 20 8 8 8 -8 13 -17 10 -21 -2 -4 0 -16 6
-26 7 -13 4 -24 -11 -42 -11 -14 -17 -19 -13 -13 13 25 14 53 2 59 -7 4 -9 4
-5 -1 4 -4 3 -14 -3 -22 -6 -7 -8 -13 -4 -13 4 0 2 -7 -5 -15 -7 -8 -17 -15
-22 -15 -6 0 -5 7 2 15 20 24 -4 17 -28 -8 -20 -21 -21 -25 -6 -45 8 -12 11
-22 5 -22 -6 0 -11 4 -11 10 0 5 -8 7 -17 4 -15 -5 -16 -4 -3 5 12 9 11 11 -8
11 -13 0 -20 -4 -17 -10 3 -5 -2 -10 -12 -11 -13 -1 -11 -3 7 -9 l25 -8 -27
-1 c-15 -1 -29 3 -32 8 -15 23 -173 17 -169 -7 4 -15 3 -15 -53 -1 -43 11 -44
12 -28 30 16 17 15 20 -1 45 -16 25 -16 27 0 21 9 -4 30 -7 46 -7 16 0 29 -4
29 -10 0 -5 -13 -7 -30 -3 -16 3 -30 1 -30 -4 0 -5 16 -9 35 -10 38 -1 44 10
20 43 -8 12 -12 24 -9 26 2 3 -2 11 -11 18 -9 7 -15 8 -15 2 0 -6 6 -13 13
-15 7 -4 6 -6 -5 -6 -9 -1 -18 -6 -20 -12 -2 -6 -23 -12 -46 -13 -23 0 -42 -4
-42 -8 0 -5 7 -8 15 -8 8 0 15 -4 15 -10 0 -5 -11 -9 -25 -8 -20 2 -24 7 -20
25 2 13 0 21 -5 18 -4 -3 -15 6 -24 20 -22 34 -19 45 4 16 14 -17 20 -19 20
-8 0 17 -26 47 -41 47 -18 0 -9 -39 17 -69 14 -17 21 -31 16 -31 -15 0 -62 67
-59 82 2 7 2 9 -1 5 -9 -17 -43 37 -37 60 3 13 1 24 -5 24 -5 1 -14 2 -19 3
-5 0 -13 4 -17 9 -11 11 -64 8 -64 -4 0 -5 -5 -7 -12 -3 -7 4 -8 3 -4 -5 6 -9
11 -9 22 0 26 21 22 5 -9 -43 -21 -31 -35 -44 -42 -38 -7 6 -18 2 -29 -12 -14
-16 -20 -18 -26 -8 -5 8 -15 10 -26 5 -18 -7 -18 -8 1 -15 19 -9 19 -9 -2 -16
-29 -8 -29 -15 1 -47 27 -29 23 -41 -16 -51 -16 -3 -28 -11 -28 -17 0 -8 4 -8
13 0 10 8 14 7 14 -4 0 -8 -4 -12 -9 -9 -4 3 -8 -1 -8 -9 0 -24 -36 -51 -173
-127 -29 -16 -42 -18 -52 -10 -10 8 -13 7 -11 -7 0 -10 -3 -18 -9 -18 -5 0
-15 -4 -22 -8 -6 -4 -19 -4 -30 -1 -13 4 -14 3 -5 -4 10 -7 3 -13 -27 -26 -23
-9 -45 -15 -49 -15 -19 3 -33 -2 -28 -10 4 -5 -18 -17 -46 -27 -29 -9 -57 -19
-63 -23 -5 -3 -19 -6 -30 -6 -11 0 -20 -6 -20 -12 0 -7 -4 -13 -9 -12 -6 0
-17 -19 -27 -42 -19 -51 -11 -94 24 -122 12 -10 16 -15 8 -11 -9 5 -12 3 -7
-5 4 -6 18 -9 31 -7 16 3 22 0 19 -8 -3 -8 -13 -13 -22 -13 -9 1 -45 -3 -79
-7 -56 -7 -62 -10 -53 -26 7 -12 36 -23 97 -36 79 -16 158 -18 790 -21 474 -3
704 0 708 7 3 5 14 10 22 10 9 0 31 10 49 22 53 37 53 64 2 313 -27 131 -28
283 -2 322 15 24 15 26 1 14 -9 -7 -17 -10 -17 -5 0 12 20 41 20 30 0 -5 7 -3
15 4 8 7 15 18 15 24 0 6 -5 4 -10 -4 -8 -12 -10 -10 -10 8 0 13 4 21 8 18 4
-2 8 4 8 14 0 10 -5 18 -11 17 -13 -3 -19 47 -7 70 15 29 3 43 -38 43 -58 0
-100 11 -100 26 0 34 134 28 158 -8 8 -11 21 -17 29 -14 11 5 13 1 8 -17 -5
-17 -4 -19 4 -7 6 8 11 13 12 10 11 -58 8 -66 -22 -62 -12 2 -20 -49 -11 -61
5 -7 12 -39 16 -72 15 -157 27 -333 31 -465 2 -80 7 -155 11 -167 4 -15 2 -23
-6 -23 -7 0 -10 -8 -7 -20 3 -10 -1 -24 -9 -31 -8 -6 -14 -23 -13 -38 l1 -26
8 25 7 25 10 -25 c5 -14 8 -44 5 -67 -3 -33 0 -44 12 -49 12 -5 16 -20 16 -68
0 -105 19 -100 -316 -92 -270 6 -593 8 -709 4 -27 -1 -144 0 -260 1 -115 1
-296 -1 -402 -5 l-191 -6 2 641 2 642 25 25 c55 55 37 54 909 51 718 -2 809
-4 840 -18z m1917 -17 c53 -28 89 -81 103 -152 17 -85 3 -715 -16 -758 -21
-46 -73 -95 -130 -123 l-49 -24 -705 0 -705 0 -41 22 c-54 29 -117 101 -132
151 -16 52 -17 695 -1 756 12 50 60 113 98 128 53 23 142 25 831 24 l705 -1
42 -23z m-1952 -112 c-4 -6 -16 -8 -28 -4 -20 6 -20 6 -3 -11 14 -15 15 -20 4
-25 -22 -13 -98 -22 -98 -13 0 5 17 10 37 11 34 3 75 22 46 22 -6 0 -13 6 -16
13 -3 9 6 14 30 15 23 2 32 -1 28 -8z m-77 -17 c-10 -2 -26 -2 -35 0 -10 3 -2
5 17 5 19 0 27 -2 18 -5z m-642 -89 c53 -90 98 -140 158 -174 49 -29 55 -30
181 -29 72 0 150 4 175 8 47 9 58 20 133 121 32 43 67 64 67 40 0 -13 -42 -71
-94 -130 l-31 -35 37 34 c21 19 41 32 45 28 3 -4 8 -31 10 -60 6 -85 -2 -91
-205 -144 -104 -27 -61 -27 55 0 59 14 115 28 123 32 12 4 19 -9 32 -52 23
-80 41 -173 35 -180 -11 -10 -157 -22 -463 -37 -441 -23 -452 -24 -217 -19
117 2 313 10 435 18 155 9 227 10 235 3 20 -16 16 -95 -5 -116 -14 -14 -35
-17 -114 -17 -54 0 -98 -3 -98 -8 0 -4 -12 -4 -27 -1 -15 4 -32 7 -38 7 -205
-12 -688 -18 -733 -9 -12 3 -26 7 -31 11 -5 3 -31 8 -58 11 -26 3 -121 16
-211 30 -90 13 -169 24 -176 24 -26 0 -64 39 -59 60 5 18 6 18 30 2 23 -14 60
-16 321 -14 163 2 298 5 301 7 2 3 -65 5 -150 6 -444 1 -467 2 -489 25 -12 12
-18 27 -15 36 4 9 50 35 103 58 53 24 162 74 241 112 112 55 146 67 152 56 6
-9 9 -5 9 12 0 20 8 29 32 38 17 6 34 9 37 7 3 -3 0 -24 -6 -46 -6 -21 -7 -42
-2 -44 4 -3 10 21 14 52 3 32 13 70 21 86 8 15 12 33 8 40 -4 6 -3 9 1 4 5 -4
17 0 27 10 10 9 21 13 25 9 4 -4 3 -10 -3 -14 -21 -14 -70 -139 -59 -150 5 -5
11 9 30 70 8 24 14 37 14 31 1 -7 6 -13 11 -13 6 0 8 12 5 28 -3 15 -2 20 2
12 3 -8 14 -20 23 -27 9 -6 25 -30 35 -52 24 -55 29 -46 8 14 -18 54 -71 145
-84 145 -12 0 -11 21 1 40 8 12 15 10 42 -16 18 -17 76 -52 128 -77 69 -33 87
-39 65 -21 -34 27 -22 33 15 7 l25 -17 -20 23 c-11 12 -27 20 -36 18 -10 -3
-20 2 -23 10 -3 8 -9 12 -14 9 -11 -7 -83 40 -74 49 4 4 1 5 -6 1 -7 -4 -19
-2 -27 4 -16 13 -8 36 33 103 28 46 34 43 88 -49z m639 6 c4 -7 12 -7 18 -2
18 13 65 13 73 1 4 -8 -1 -9 -16 -4 -15 5 -20 4 -16 -4 4 -6 1 -11 -7 -11 -8
0 -22 -9 -32 -20 -18 -19 -19 -20 -28 -3 -7 12 -7 18 2 21 8 3 6 8 -6 18 -10
7 -13 14 -6 14 6 0 15 -5 18 -10z m-450 -119 c3 -5 -2 -17 -11 -26 -15 -15
-18 -15 -38 2 -11 10 -23 20 -26 22 -3 2 7 1 23 -3 16 -4 27 -2 27 4 0 13 17
13 25 1z m515 -1 c0 -5 -4 -10 -10 -10 -5 0 -10 5 -10 10 0 6 5 10 10 10 6 0
10 -4 10 -10z m-150 -10 c0 -5 -4 -10 -10 -10 -5 0 -10 5 -10 10 0 6 5 10 10
10 6 0 10 -4 10 -10z m40 7 c0 -2 -10 -12 -21 -23 -22 -19 -22 -19 -10 4 10
18 31 31 31 19z m-255 -57 c-7 -11 -55 -9 -55 2 0 4 14 8 31 8 17 0 28 -4 24
-10z m95 0 c0 -5 -19 -10 -42 -9 -33 0 -38 2 -23 9 28 12 65 12 65 0z m2004
-773 c11 -8 15 -19 10 -30 -6 -16 -45 -17 -607 -15 -562 3 -601 4 -611 21 -8
14 -8 20 4 27 9 6 245 10 601 10 459 0 589 -3 603 -13z"/>
<path d="M4290 8637 c-36 -18 -50 -54 -50 -133 0 -56 4 -77 20 -97 44 -55 128
-39 150 29 7 20 10 65 8 101 -4 57 -8 69 -32 89 -30 27 -59 30 -96 11z"/>
<path d="M6373 8643 c-8 -3 -13 -25 -13 -59 l0 -54 38 0 c21 0 43 5 50 12 13
13 16 66 4 84 -8 13 -61 25 -79 17z"/>
<path d="M6017 8520 c-8 -32 -12 -62 -9 -65 3 -3 17 -5 32 -5 15 0 29 2 32 5
8 8 -23 125 -32 125 -4 0 -14 -27 -23 -60z"/>
<path d="M5140 8589 l0 -59 33 0 c41 0 57 15 57 55 0 41 -9 51 -52 58 l-38 6
0 -60z"/>
<path d="M3310 8011 c0 -9 24 -21 42 -21 6 0 6 6 -2 15 -14 16 -40 20 -40 6z"/>
<path d="M3114 7958 c14 -107 -1 -98 157 -98 146 0 146 0 133 47 -5 19 -14 22
-63 25 -56 3 -56 3 -65 41 l-10 37 -79 0 -80 0 7 -52z m63 -40 c-3 -7 -5 -2
-5 12 0 14 2 19 5 13 2 -7 2 -19 0 -25z"/>
<path d="M3145 7810 c-2 -3 7 -62 21 -130 13 -69 26 -141 30 -161 l6 -36 123
-2 c68 -1 125 2 128 6 2 4 -2 60 -9 123 -19 165 -18 180 6 180 11 0 20 -6 20
-14 0 -22 20 -217 26 -258 l6 -38 64 0 64 0 0 168 0 167 -241 0 c-132 0 -242
-2 -244 -5z"/>
<path d="M3214 7415 c2 -11 16 -87 31 -170 14 -82 29 -153 32 -158 6 -10 199
-4 209 6 6 5 0 75 -22 292 l-5 50 -125 0 c-120 0 -125 -1 -120 -20z"/>
<path d="M3286 7032 c-2 -1 10 -69 26 -150 l30 -147 214 3 214 3 0 38 c0 82
12 131 31 131 16 0 19 -10 21 -82 l3 -83 156 -3 156 -2 6 81 c6 87 8 94 32 86
12 -5 15 -24 15 -87 l0 -80 160 0 160 0 0 73 c0 78 9 103 34 94 13 -5 16 -22
16 -87 l0 -81 158 3 157 3 3 83 c3 74 5 82 22 82 18 0 20 -7 20 -85 l0 -86
158 3 157 3 3 83 c2 73 5 82 22 82 17 0 20 -9 22 -82 l3 -83 157 -3 157 -3 3
83 c3 77 5 83 26 86 21 3 22 1 22 -82 l0 -86 155 0 155 0 0 63 c0 81 8 107 31
107 17 0 19 -8 19 -85 l0 -85 145 0 145 0 0 64 c0 73 6 96 26 96 11 0 14 -18
14 -81 l0 -80 33 3 c30 3 34 8 69 93 20 50 37 96 37 103 1 9 -321 12 -1579 12
-953 0 -1580 4 -1580 9 0 5 -3 16 -6 25 -5 14 6 16 89 16 67 0 97 4 100 13 4
9 6 9 6 0 1 -10 309 -13 1487 -13 817 0 1490 -3 1496 -6 10 -7 28 12 28 31 0
7 -395 9 -1168 8 -642 -1 -1176 -1 -1187 -1 -87 2 -877 2 -879 0z"/>
<path d="M3350 6695 c0 -8 52 -284 56 -297 5 -16 23 -18 185 -18 l179 0 0 158
0 157 -210 1 c-116 0 -210 -1 -210 -1z"/>
<path d="M3820 6540 l0 -157 77 -7 c42 -3 114 -6 160 -6 l83 0 0 163 0 162
-160 1 -160 1 0 -157z"/>
<path d="M4190 6535 l0 -165 160 0 160 0 -2 160 -3 159 -157 6 -158 5 0 -165z"/>
<path d="M4560 6535 l0 -165 153 0 154 0 7 156 c3 87 5 158 3 160 -2 2 -74 6
-160 9 l-157 5 0 -165z"/>
<path d="M4927 6693 c-4 -3 -7 -77 -7 -163 l0 -157 151 -7 c83 -4 152 -6 154
-4 1 2 4 76 6 166 l4 162 -151 5 c-83 3 -153 2 -157 -2z"/>
<path d="M5292 6604 l3 -97 30 -3 c17 -1 85 1 153 4 l122 5 0 91 0 91 -155 3
-156 3 3 -97z"/>
<path d="M5650 6606 l0 -95 43 -6 c23 -3 92 -5 152 -3 l110 3 3 95 3 95 -156
3 -155 3 0 -95z"/>
<path d="M6013 6684 c-2 -6 -3 -49 -1 -95 3 -83 3 -84 31 -87 27 -3 27 -4 27
-73 l0 -69 43 -1 c23 -1 56 -3 73 -5 43 -5 57 10 89 90 29 74 30 78 27 181
l-2 70 -141 0 c-93 0 -143 -4 -146 -11z"/>
<path d="M6353 6693 c-8 -3 -13 -23 -13 -51 l1 -47 19 50 c11 28 20 51 20 53
0 3 -13 1 -27 -5z"/>
<path d="M6500 6660 c-19 -37 -130 -298 -130 -306 0 -2 58 -4 128 -4 l129 0
13 28 c32 69 130 302 130 309 0 4 -57 8 -126 8 l-126 0 -18 -35z"/>
<path d="M4042 5242 c-63 -3 -72 -5 -68 -20 2 -9 7 -33 11 -52 9 -48 25 -92
43 -112 35 -41 106 -4 116 60 20 133 20 130 -6 129 -12 -1 -56 -3 -96 -5z"/>
<path d="M4238 5242 c-26 -2 -48 -9 -51 -16 -3 -7 -8 -43 -12 -79 l-7 -67 43
-20 c77 -35 129 -24 148 31 15 45 14 149 -1 150 -35 3 -78 4 -120 1z"/>
<path d="M6816 5241 c-6 -11 25 -143 40 -173 11 -20 22 -28 42 -28 55 1 73 32
87 149 l7 62 -86 -2 c-48 -1 -88 -4 -90 -8z"/>
<path d="M7048 5243 c-30 -5 -37 -25 -41 -113 -2 -44 -1 -46 43 -67 62 -32
113 -30 139 3 17 22 21 41 21 99 0 67 -2 73 -22 79 -24 6 -95 6 -140 -1z"/>
<path d="M6030 7840 l0 -90 45 0 c35 0 52 6 70 24 31 31 40 69 25 105 -14 34
-47 51 -100 51 l-40 0 0 -90z"/>
<path d="M5304 2286 c-8 -22 3 -33 18 -18 9 9 9 15 0 24 -9 9 -13 7 -18 -6z"/>
<path d="M5175 2260 c-8 -13 3 -30 20 -30 14 0 27 24 18 34 -10 9 -31 7 -38
-4z"/>
<path d="M5080 2226 c0 -9 5 -16 10 -16 6 0 10 4 10 9 0 6 -4 13 -10 16 -5 3
-10 -1 -10 -9z"/>
<path d="M3750 2220 c0 -5 7 -10 16 -10 8 0 12 5 9 10 -3 6 -10 10 -16 10 -5
0 -9 -4 -9 -10z"/>
<path d="M3990 2179 c0 -11 4 -18 10 -14 5 3 7 12 3 20 -7 21 -13 19 -13 -6z"/>
<path d="M4088 1893 c6 -2 18 -2 25 0 6 3 1 5 -13 5 -14 0 -19 -2 -12 -5z"/>
<path d="M2450 1880 c0 -5 7 -7 15 -4 8 4 15 8 15 10 0 2 -7 4 -15 4 -8 0 -15
-4 -15 -10z"/>
<path d="M3018 1883 c7 -3 16 -2 19 1 4 3 -2 6 -13 5 -11 0 -14 -3 -6 -6z"/>
<path d="M3120 1873 c0 -7 18 -13 43 -16 l42 -4 -43 -1 -44 -2 4 -49 c2 -36 0
-47 -9 -44 -18 7 -16 -18 4 -42 12 -15 14 -16 10 -3 -3 9 1 22 8 28 8 7 12 16
9 21 -3 5 2 6 10 3 12 -5 16 1 16 22 0 37 9 49 39 59 23 7 23 8 5 18 -18 10
-18 11 6 18 16 5 3 7 -37 6 -41 -1 -63 -6 -63 -14z"/>
<path d="M3003 1853 c9 -2 23 -2 30 0 6 3 -1 5 -18 5 -16 0 -22 -2 -12 -5z"/>
<path d="M3640 1830 c0 -5 9 -10 21 -10 11 0 17 5 14 10 -3 6 -13 10 -21 10
-8 0 -14 -4 -14 -10z"/>
<path d="M3410 1803 c0 -5 4 -14 9 -21 7 -11 9 -11 14 1 3 8 3 18 0 21 -9 8
-23 7 -23 -1z"/>
<path d="M3513 1775 c0 -22 2 -30 4 -17 2 12 2 30 0 40 -3 9 -5 -1 -4 -23z"/>
<path d="M3091 1633 c-6 -12 -5 -20 6 -28 13 -9 13 -16 4 -33 -8 -14 -8 -22
-1 -22 5 0 10 8 10 18 0 13 2 14 9 3 8 -13 8 -5 2 67 -1 17 -18 15 -30 -5z"/>
<path d="M3053 1583 c8 -9 20 -12 26 -9 19 12 12 21 -15 23 -24 1 -25 -1 -11
-14z"/>
<path d="M3620 1586 c6 -6 18 -5 32 1 21 10 21 10 -9 9 -19 -1 -28 -5 -23 -10z"/>
<path d="M3070 1536 c0 -9 5 -16 10 -16 6 0 10 4 10 9 0 6 -4 13 -10 16 -5 3
-10 -1 -10 -9z"/>
<path d="M2857 1423 c-3 -5 5 -8 18 -8 13 0 21 3 18 8 -2 4 -10 7 -18 7 -8 0
-16 -3 -18 -7z"/>
<path d="M2491 1264 c0 -11 3 -14 6 -6 3 7 2 16 -1 19 -3 4 -6 -2 -5 -13z"/>
<path d="M4137 995 c-6 -15 10 -32 20 -21 4 3 1 6 -7 6 -10 0 -10 3 0 15 7 9
8 15 2 15 -5 0 -12 -7 -15 -15z"/>
<path d="M2415 970 c-3 -5 1 -10 10 -10 9 0 13 5 10 10 -3 6 -8 10 -10 10 -2
0 -7 -4 -10 -10z"/>
<path d="M4095 970 c-3 -6 1 -7 9 -4 18 7 21 14 7 14 -6 0 -13 -4 -16 -10z"/>
<path d="M4043 913 c-29 -3 -43 -9 -43 -19 0 -16 11 -17 99 -8 41 5 61 11 61
20 0 14 -22 15 -117 7z"/>
<path d="M4176 830 c2 -36 8 -66 14 -68 5 -2 10 -13 11 -25 1 -16 3 -14 10 10
6 19 5 52 0 85 -9 46 -10 48 -8 12 3 -56 -20 -47 -26 9 -2 23 -3 13 -1 -23z"/>
<path d="M2676 865 c-8 -8 -21 -15 -30 -15 -8 0 -18 -5 -22 -11 -10 -17 -23
-78 -15 -78 14 2 51 -14 47 -20 -2 -3 233 -5 522 -4 618 3 663 4 657 13 -3 4
2 14 11 21 10 8 13 21 9 37 -4 17 -2 22 7 18 7 -3 21 -9 31 -12 11 -4 18 -18
18 -38 2 -30 2 -30 6 -3 2 15 9 27 14 27 5 0 9 9 9 20 0 21 -15 27 -25 10 -11
-17 -25 -11 -37 15 -8 18 -17 24 -27 19 -9 -3 -23 -8 -31 -11 -13 -4 -13 -4 0
6 19 13 47 12 -320 9 -376 -3 -352 -3 -575 1 -104 2 -199 0 -209 -5 -14 -5
-17 -4 -12 4 10 17 -10 15 -28 -3z m1138 -50 c3 -8 3 -22 0 -30 -5 -13 -79
-15 -580 -15 -536 0 -574 1 -582 18 -22 42 -29 42 578 42 504 0 579 -2 584
-15z"/>
<path d="M3892 869 c2 -7 10 -15 17 -17 8 -3 12 1 9 9 -2 7 -10 15 -17 17 -8
3 -12 -1 -9 -9z"/>
<path d="M4043 873 c-29 -3 -43 -9 -43 -19 0 -8 -4 -14 -10 -14 -5 0 -10 -9
-10 -20 0 -17 7 -20 50 -20 43 0 50 -3 50 -20 0 -17 7 -20 39 -20 44 0 49 10
42 83 -3 41 -1 40 -118 30z m20 -50 c-13 -2 -33 -2 -45 0 -13 2 -3 4 22 4 25
0 35 -2 23 -4z"/>
<path d="M2591 819 c-7 -17 -10 -19 -10 -6 -1 9 -5 17 -11 17 -6 0 -5 -10 2
-26 l12 -25 14 26 c7 15 11 29 8 32 -3 3 -10 -5 -15 -18z"/>
<path d="M3877 786 c-4 -10 -5 -21 -2 -24 9 -9 17 6 13 25 -3 17 -4 17 -11 -1z"/>
<path d="M4525 1916 c-16 -7 -41 -26 -55 -41 l-25 -27 -3 -377 -3 -377 33 -49
c19 -28 50 -57 73 -69 39 -21 55 -21 705 -24 464 -2 681 0 717 8 65 14 127 58
153 109 19 38 20 58 20 396 0 330 -1 359 -19 393 -38 75 -1 72 -829 72 -592
-1 -743 -3 -767 -14z m735 -199 c33 -38 80 -117 70 -117 -6 0 -10 -4 -10 -10
0 -5 7 -10 15 -10 8 0 15 -3 15 -7 0 -11 -42 -53 -53 -53 -10 0 -36 -30 -37
-42 0 -5 10 -8 21 -8 17 0 19 3 10 14 -9 11 -6 15 16 21 26 6 58 34 66 58 2 7
15 1 32 -15 15 -16 31 -28 36 -28 12 0 39 -55 39 -80 0 -12 5 -18 10 -15 16
10 12 65 -5 65 -17 0 -20 16 -4 25 5 4 21 -5 34 -19 13 -14 31 -26 40 -26 10
0 15 -9 15 -26 0 -22 2 -24 15 -14 8 6 19 9 25 5 7 -5 5 -12 -7 -21 -17 -13
-17 -13 4 -14 12 0 23 -6 26 -12 2 -7 8 -10 12 -6 4 4 2 14 -5 23 -20 24 1 18
29 -9 18 -16 56 -31 121 -46 52 -12 99 -24 103 -27 11 -7 -70 -44 -103 -48
-14 -1 -33 -6 -43 -10 -10 -4 -40 -1 -69 9 -49 16 -105 25 -268 46 -41 5 -175
12 -297 15 -220 6 -253 9 -253 26 0 5 -12 6 -28 3 -15 -3 -46 1 -68 9 -38 13
-42 12 -53 -5 -6 -10 -17 -18 -23 -18 -9 0 -9 3 0 12 20 20 14 54 -12 67 -53
29 -53 94 0 107 19 5 32 0 55 -22 34 -33 34 -33 10 39 -27 76 -6 76 34 -1 37
-71 74 -92 161 -92 83 0 161 25 200 64 24 24 40 56 60 124 15 51 31 92 36 92
4 0 17 -10 28 -23z m210 -450 c10 -4 8 -6 -7 -6 -16 -1 -23 5 -23 17 0 10 3
13 8 6 4 -6 14 -14 22 -17z m-579 6 c28 -5 30 -7 14 -14 -35 -13 -75 -10 -75
6 0 17 12 18 61 8z m179 -43 c87 -17 94 -19 41 -15 -35 3 -89 5 -120 5 -36 0
-51 3 -42 9 11 7 10 10 -5 14 -52 13 30 5 126 -13z m-195 -36 c17 -1 32 -3 35
-4 3 -1 38 -2 78 -2 41 1 72 -3 72 -9 0 -6 5 -7 12 -3 6 4 30 6 52 6 23 -1 93
-4 156 -6 63 -2 171 -9 240 -16 80 -7 188 -9 303 -5 181 7 205 3 155 -29 -23
-14 -136 -40 -215 -50 -22 -3 -52 -7 -65 -10 -12 -3 -49 -7 -80 -10 -50 -4
-58 -2 -59 12 -1 15 -2 15 -6 1 -4 -17 -53 -22 -53 -5 0 5 -7 2 -17 -5 -13
-11 -17 -11 -21 -1 -3 10 -7 10 -18 1 -11 -9 -14 -9 -14 1 0 10 -3 10 -14 1
-10 -8 -16 -9 -21 -1 -3 6 -11 7 -17 4 -6 -4 -14 0 -19 7 -6 9 -9 10 -9 2 0
-12 -44 -12 -56 0 -4 4 -11 4 -17 0 -19 -11 -87 -13 -87 -1 0 6 -7 5 -17 -3
-13 -11 -17 -11 -20 -1 -3 6 -10 9 -16 5 -20 -13 -167 -13 -167 -1 0 6 -9 3
-19 -6 -13 -12 -21 -14 -26 -6 -3 5 -11 8 -16 4 -5 -3 -25 -8 -44 -10 -28 -3
-35 -1 -35 12 0 16 -2 16 -19 0 -18 -17 -20 -17 -30 1 -6 10 -11 12 -11 5 0
-15 -92 -14 -102 2 -5 8 -8 7 -8 -2 0 -10 -4 -10 -22 0 -13 7 -26 18 -30 23
-13 18 -9 70 8 93 16 23 19 23 122 16 59 -4 121 -8 137 -10z"/>
<path d="M5373 1505 c-8 -22 6 -33 17 -15 13 20 12 30 0 30 -6 0 -13 -7 -17
-15z"/>
<path d="M4661 1496 c2 -2 22 -6 44 -9 27 -4 35 -3 25 3 -14 9 -79 15 -69 6z"/>
<path d="M5406 1455 c-15 -24 -15 -25 2 -25 21 0 42 18 42 37 0 22 -27 15 -44
-12z"/>
<path d="M5537 1433 c-4 -3 -7 -11 -7 -17 0 -6 5 -5 12 2 6 6 9 14 7 17 -3 3
-9 2 -12 -2z"/>
<path d="M4905 1423 c95 -7 285 -7 285 0 0 4 -73 6 -162 5 -90 -1 -145 -3
-123 -5z"/>
<path d="M5200 1420 c0 -4 17 -11 38 -14 60 -10 67 -12 78 -19 6 -3 14 -4 18
0 13 14 5 22 -26 27 -85 13 -108 14 -108 6z"/>
<path d="M5375 1410 c-12 -19 31 -51 60 -44 14 3 25 11 25 16 0 6 -7 7 -17 4
-10 -4 -25 2 -38 14 -16 15 -25 18 -30 10z"/>
<path d="M5080 1392 c0 -25 -25 -30 -34 -7 -3 8 -10 15 -15 15 -6 0 -8 -7 -5
-15 4 -8 2 -15 -4 -15 -5 0 -12 6 -15 14 -7 17 -43 10 -51 -10 -4 -10 4 -14
32 -15 20 0 49 -2 65 -4 31 -4 58 28 38 48 -8 8 -11 5 -11 -11z"/>
<path d="M5510 1391 c0 -6 5 -13 10 -16 6 -3 10 1 10 9 0 9 -4 16 -10 16 -5 0
-10 -4 -10 -9z"/>
<path d="M3230 1670 c6 -12 19 -24 28 -27 9 -3 25 -13 34 -21 9 -8 23 -12 30
-9 7 2 -3 12 -24 22 -21 11 -38 22 -38 27 0 4 -9 12 -21 18 -19 11 -20 10 -9
-10z"/>
<path d="M3276 1603 c29 -46 44 -77 44 -95 0 -10 5 -18 10 -18 6 0 10 7 10 16
0 23 -52 113 -69 119 -10 4 -8 -3 5 -22z"/>
<path d="M3514 1556 c45 -37 93 -46 237 -44 l134 2 -150 5 c-139 6 -154 8
-200 33 -46 26 -48 26 -21 4z"/>
<path d="M3922 1460 c0 -14 2 -19 5 -12 2 6 2 18 0 25 -3 6 -5 1 -5 -13z"/>
<path d="M3813 1455 c-14 -15 -7 -45 9 -45 5 0 6 10 3 22 -6 17 -4 20 10 14
15 -5 16 -4 5 9 -15 18 -12 18 -27 0z"/>
<path d="M3737 1453 c-26 -7 -19 -57 8 -61 18 -2 18 -2 3 8 -10 6 -18 17 -18
24 0 19 30 29 46 15 11 -9 14 -8 14 5 0 16 -16 19 -53 9z"/>
<path d="M3505 1430 c-3 -6 1 -7 9 -4 18 7 21 14 7 14 -6 0 -13 -4 -16 -10z"/>
<path d="M3037 1424 c-3 -5 1 -15 9 -22 16 -14 18 -5 5 17 -5 7 -11 9 -14 5z"/>
<path d="M3080 1422 c0 -5 7 -15 15 -22 8 -7 15 -8 15 -2 0 5 -7 15 -15 22 -8
7 -15 8 -15 2z"/>
<path d="M3556 1395 c-17 -26 -9 -34 12 -13 10 10 15 10 22 -2 5 -8 10 -10 10
-5 -1 6 -7 18 -14 28 -13 16 -15 16 -30 -8z"/>
<path d="M3618 1398 c12 -12 24 -19 27 -16 8 7 -23 38 -38 38 -6 0 -2 -10 11
-22z"/>
<path d="M3350 1392 c6 -13 14 -21 18 -18 3 4 -2 14 -12 24 -18 16 -18 16 -6
-6z"/>
<path d="M3395 1400 c3 -5 8 -10 11 -10 2 0 4 5 4 10 0 6 -5 10 -11 10 -5 0
-7 -4 -4 -10z"/>
<path d="M3435 1399 c-4 -6 -4 -13 -1 -16 3 -4 6 -1 6 6 0 7 5 9 10 6 6 -3 10
-1 10 4 0 14 -17 14 -25 0z"/>
<path d="M3515 1400 c-3 -5 -1 -10 4 -10 6 0 11 5 11 10 0 6 -2 10 -4 10 -3 0
-8 -4 -11 -10z"/>
<path d="M3321 1384 c0 -11 3 -14 6 -6 3 7 2 16 -1 19 -3 4 -6 -2 -5 -13z"/>
<path d="M3160 1366 c0 -8 5 -18 10 -21 6 -3 10 1 10 9 0 8 -4 18 -10 21 -5 3
-10 -1 -10 -9z"/>
<path d="M3395 1370 c3 -5 8 -10 11 -10 2 0 4 5 4 10 0 6 -5 10 -11 10 -5 0
-7 -4 -4 -10z"/>
<path d="M3445 1370 c-3 -5 -1 -10 4 -10 6 0 11 5 11 10 0 6 -2 10 -4 10 -3 0
-8 -4 -11 -10z"/>
<path d="M3510 1370 c0 -5 5 -10 10 -10 6 0 10 5 10 10 0 6 -4 10 -10 10 -5 0
-10 -4 -10 -10z"/>
<path d="M3215 1360 c-3 -5 -1 -10 4 -10 6 0 11 5 11 10 0 6 -2 10 -4 10 -3 0
-8 -4 -11 -10z"/>
<path d="M3278 1313 c6 -2 18 -2 25 0 6 3 1 5 -13 5 -14 0 -19 -2 -12 -5z"/>
<path d="M4055 1730 c-10 -11 -14 -20 -9 -20 5 0 17 9 27 20 9 11 13 20 8 20
-4 0 -16 -9 -26 -20z"/>
<path d="M3622 4108 c-15 -19 -40 -81 -73 -181 -56 -172 -108 -228 -215 -235
-130 -9 -163 12 -269 164 -44 63 -74 96 -91 100 -54 14 -70 -45 -35 -136 l19
-50 -48 0 c-42 0 -52 -4 -74 -31 -36 -43 -35 -88 4 -132 17 -19 30 -42 30 -52
0 -23 -105 -200 -128 -217 -35 -25 -87 -103 -106 -159 -24 -72 -16 -117 29
-165 19 -20 35 -38 35 -39 0 -1 -25 -5 -56 -8 -64 -7 -91 -23 -53 -32 98 -24
191 -27 874 -32 911 -6 1502 10 1533 42 11 11 -8 15 -132 26 -70 7 -123 15
-119 19 4 4 43 21 87 39 154 63 196 106 196 198 0 95 -11 100 -598 283 -124
39 -135 44 -154 76 -11 19 -28 39 -38 44 -24 13 -33 13 -25 0 3 -5 2 -10 -4
-10 -5 0 -13 5 -16 10 -3 6 -15 10 -26 10 -10 0 -19 4 -19 10 0 5 -7 6 -17 3
-11 -4 -14 -3 -9 5 4 8 2 10 -8 6 -17 -7 -45 31 -52 72 -5 29 -37 81 -62 102
-9 6 -32 12 -53 12 -30 0 -40 6 -60 34 -109 155 -188 236 -228 236 -16 0 -33
-6 -39 -12z m96 -44 c46 -46 46 -46 4 -10 -23 20 -49 36 -57 36 -19 0 -27 -15
-75 -160 -48 -140 -63 -175 -94 -208 -70 -78 -240 -96 -333 -36 -24 16 -65 64
-107 124 -88 128 -119 144 -100 49 6 -27 7 -46 2 -41 -5 5 -12 34 -15 64 -10
100 27 84 113 -46 94 -142 122 -160 244 -160 95 0 130 13 174 65 38 45 80 131
117 240 51 153 54 155 127 83z m101 -115 c28 -33 51 -66 51 -72 0 -7 -7 -3
-16 8 -8 11 -20 27 -27 35 -33 41 -68 90 -63 90 2 0 27 -27 55 -61z m142 -134
c7 -5 20 -10 28 -10 15 0 58 -52 50 -60 -3 -2 -19 9 -37 24 -17 16 -45 32 -62
36 -16 4 -32 10 -34 14 -6 10 37 6 55 -4z m-31 -35 c-20 -13 -33 -13 -25 0 3
6 14 10 23 10 15 0 15 -2 2 -10z m89 -50 c19 -16 33 -32 30 -34 -2 -3 -22 11
-44 29 -22 19 -35 34 -30 34 6 0 25 -13 44 -29z m155 -113 c22 -12 42 -29 44
-37 3 -10 -4 -7 -20 8 -13 12 -29 22 -34 22 -6 0 -19 7 -30 15 -28 21 -5 17
40 -8z m71 -47 c3 -5 1 -10 -4 -10 -6 0 -11 5 -11 10 0 6 2 10 4 10 3 0 8 -4
11 -10z m245 -100 c225 -67 430 -134 461 -150 49 -26 61 -72 38 -139 -9 -25
-23 -37 -63 -55 -94 -42 -271 -92 -401 -115 -122 -22 -179 -23 -1018 -21 -539
1 -581 2 -632 20 -31 11 -61 22 -68 27 -6 4 -23 6 -37 5 -31 -4 -64 29 -79 78
-10 32 -10 30 -7 -25 l3 -60 -20 44 c-16 38 -17 49 -7 90 21 83 106 191 152
191 8 0 72 -11 144 -25 575 -114 1192 -182 1609 -179 349 3 468 40 410 128
-17 26 -63 42 -552 195 -73 23 -133 44 -133 47 0 4 6 4 13 1 6 -2 91 -28 187
-57z"/>
<path d="M6545 4053 c-15 -26 -15 -27 -9 -3 6 21 5 23 -7 13 -8 -7 -14 -27
-14 -47 1 -19 -2 -33 -6 -30 -4 2 -13 -5 -19 -16 -8 -15 -17 -19 -32 -14 -18
5 -20 3 -16 -20 3 -14 1 -26 -4 -26 -6 0 -7 -7 -4 -16 3 -8 0 -22 -8 -30 -18
-18 -22 -18 -30 2 -3 8 -2 12 3 9 5 -3 12 -1 16 5 3 5 0 10 -8 10 -10 0 -13 8
-9 25 5 28 -3 32 -24 11 -17 -18 -19 -86 -2 -86 6 0 20 -8 30 -17 18 -16 18
-16 12 0 -3 10 -1 17 5 17 14 0 14 -30 1 -50 -9 -13 -10 -13 -10 0 -1 8 -9 0
-19 -19 -17 -32 -19 -33 -29 -15 -10 18 -12 18 -28 2 -16 -16 -16 -17 5 -11
17 4 20 2 15 -11 -3 -9 -13 -16 -21 -16 -8 0 -13 -6 -11 -12 3 -7 -5 -18 -17
-24 -29 -15 -98 -28 -92 -17 3 5 -7 8 -24 7 -16 -1 -32 2 -35 7 -3 5 -10 7
-15 4 -10 -7 -58 25 -59 38 0 5 9 2 21 -7 18 -13 23 -12 40 2 10 9 19 20 19
25 0 5 -7 1 -16 -8 -10 -9 -23 -13 -33 -10 -9 4 -23 8 -31 10 -16 3 -16 8 -4
39 5 14 4 17 -4 12 -7 -4 -12 -14 -12 -22 0 -8 -4 -14 -10 -14 -5 0 -10 6 -10
13 0 8 -11 20 -25 27 -32 17 -49 64 -29 81 8 6 12 14 10 17 -11 10 -36 -27
-29 -45 5 -15 2 -14 -16 5 -24 24 -70 29 -89 10 -7 -7 -12 -8 -12 -2 0 5 5 15
12 22 8 8 8 12 1 12 -6 0 -13 -6 -16 -13 -9 -23 -2 -138 9 -145 16 -11 24 -41
12 -48 -7 -4 -6 -9 2 -14 9 -5 9 -9 1 -14 -6 -4 -11 -2 -11 3 0 6 -7 11 -16
11 -8 0 -12 -4 -9 -10 6 -9 -8 -14 -28 -11 -5 1 -6 -3 -3 -8 8 -12 -23 -84
-40 -94 -8 -4 -14 -13 -14 -18 0 -6 4 -7 10 -4 5 3 7 0 4 -9 -3 -8 3 -22 14
-32 19 -16 20 -50 2 -39 -5 3 -12 0 -16 -6 -4 -8 -3 -9 4 -5 7 4 12 5 12 1 0
-11 -65 -105 -73 -105 -5 0 -6 4 -3 9 3 5 -1 12 -9 15 -13 5 -14 2 -4 -16 10
-19 7 -25 -27 -54 -31 -26 -42 -30 -54 -21 -13 10 -13 10 -2 -5 11 -13 11 -21
2 -35 -10 -16 -11 -16 -6 -1 3 10 1 20 -3 23 -5 2 -11 -5 -14 -18 -2 -12 -8
-31 -12 -42 l-8 -20 16 20 c15 19 16 18 5 -12 -8 -22 -15 -28 -20 -20 -12 18
-10 -42 3 -88 6 -22 24 -52 39 -67 27 -26 28 -26 6 -32 -11 -3 -38 -6 -59 -6
-78 0 -3 -47 79 -49 17 -1 34 -4 38 -8 4 -4 25 -6 48 -4 27 2 38 -1 34 -8 -5
-8 0 -8 18 -1 19 7 26 6 26 -3 0 -8 4 -7 10 3 9 13 11 13 21 0 8 -11 12 -12
16 -2 2 6 10 9 16 5 16 -10 1597 -9 1597 1 0 5 7 3 15 -4 8 -7 15 -8 15 -3 0
5 80 9 183 10 157 1 390 22 404 37 3 2 -26 7 -64 11 -37 4 -72 10 -78 13 -10
6 -18 7 -74 10 -19 1 -32 4 -29 7 7 7 98 27 125 27 13 0 20 4 17 9 -3 5 1 9
10 9 8 0 16 5 18 10 3 10 34 15 66 11 6 0 12 -8 12 -18 0 -13 4 -11 21 8 l20
24 -27 7 c-17 4 -33 3 -41 -4 -23 -18 -14 3 10 24 17 15 18 18 5 14 -31 -9
-19 5 12 15 30 11 41 29 18 29 -8 1 -5 6 5 15 18 13 18 14 -1 24 -13 7 -22 26
-28 58 -4 26 -7 52 -5 56 1 5 -3 6 -9 2 -6 -3 -7 -11 -4 -17 4 -7 2 -8 -5 -4
-9 6 -8 14 5 34 17 27 17 27 -4 9 -19 -18 -22 -18 -46 -2 -14 10 -26 20 -26
24 0 4 -23 14 -50 21 -35 10 -46 16 -38 23 9 6 8 7 -4 4 -15 -5 -71 5 -108 20
-8 3 -22 7 -31 9 -8 2 -42 11 -75 19 -32 9 -75 19 -94 22 -19 3 -39 9 -45 14
-5 5 -23 9 -41 9 -44 0 -95 11 -89 19 2 4 -9 5 -26 3 -18 -3 -29 0 -29 7 0 7
-4 10 -9 6 -5 -3 -24 8 -43 25 -25 23 -30 33 -20 39 11 7 10 9 -3 14 -9 4 -13
3 -10 -3 7 -11 -8 -14 -18 -3 -4 3 -22 8 -39 10 -36 4 -70 38 -64 64 2 10 -3
16 -13 15 -9 0 -15 5 -13 12 2 11 -28 17 -70 13 -10 -1 -18 3 -18 9 0 6 4 9 8
6 4 -2 8 4 8 15 0 19 -1 19 -14 2 -10 -14 -14 -15 -21 -4 -6 8 -10 9 -12 2 -2
-6 -14 -8 -26 -5 -13 4 -21 10 -18 14 3 4 -3 7 -11 6 -11 -1 -21 12 -28 39 -9
29 -17 39 -29 37 -21 -4 -68 48 -62 66 3 7 1 11 -4 8 -18 -11 -29 20 -25 72 2
28 0 52 -4 52 -12 -1 -47 -31 -44 -38 2 -3 -2 -8 -9 -11 -7 -2 -9 1 -5 8 5 7
2 10 -6 9 -8 -2 -13 6 -12 19 1 13 -3 20 -7 17 -5 -3 -7 -10 -4 -15 3 -5 -1
-6 -10 -3 -14 6 -13 11 5 43 18 32 18 34 1 14 -10 -12 -22 -19 -25 -15 -4 3
-4 -2 0 -13 6 -18 4 -17 -19 4 -15 13 -25 27 -22 31 2 3 -14 7 -35 8 -33 2
-41 -1 -55 -25z m181 -108 c68 -68 124 -128 124 -132 0 -4 -18 -18 -40 -31
-58 -33 -111 -82 -103 -96 4 -6 -1 -4 -11 4 -17 13 -18 13 -15 -4 6 -30 22
-29 40 2 22 40 135 115 160 107 29 -9 24 -44 -21 -135 -37 -78 -38 -83 -23
-106 18 -27 28 -30 36 -10 4 10 1 13 -7 10 -26 -10 -25 47 1 95 39 71 56 86
83 71 13 -7 33 -24 45 -37 18 -22 24 -24 42 -14 12 6 29 11 37 11 25 0 69 -67
71 -108 1 -20 3 -40 4 -44 0 -5 15 -8 32 -8 17 0 28 4 24 10 -3 6 -17 10 -31
10 -19 0 -25 5 -22 18 5 27 58 27 98 -1 34 -23 35 -25 34 -88 -1 -42 1 -57 6
-44 5 11 9 33 9 49 1 24 4 27 24 22 12 -3 74 -18 137 -32 252 -57 476 -122
529 -154 33 -21 33 -21 29 -87 -3 -49 -9 -69 -23 -79 -17 -13 -17 -14 -2 -14
22 0 37 38 37 93 1 41 1 42 15 17 8 -14 14 -44 15 -68 0 -34 -6 -49 -32 -77
-33 -35 -108 -74 -108 -55 0 5 -7 7 -16 3 -10 -4 -12 -8 -5 -12 6 -4 -17 -13
-52 -20 -34 -6 -78 -16 -97 -21 -19 -5 -44 -9 -55 -9 -87 -1 -175 -8 -181 -14
-5 -5 -1 -5 9 -1 9 3 17 2 17 -4 0 -11 -33 -22 -69 -22 -16 0 -22 4 -17 15 3
8 1 15 -4 15 -6 0 -10 -7 -10 -15 0 -18 -46 -21 -53 -2 -3 7 -6 5 -6 -5 -1
-16 -13 -18 -88 -20 -49 -1 -113 -1 -143 -1 -30 1 -92 1 -137 2 -72 1 -83 3
-83 19 -1 16 -1 16 -14 0 -15 -21 -42 -24 -50 -5 -5 10 -7 10 -12 0 -3 -7 -18
-13 -32 -13 -21 0 -24 2 -12 10 16 10 14 11 -38 16 -21 1 -35 -3 -39 -12 -6
-16 -43 -19 -43 -4 0 6 5 10 12 10 6 0 8 3 5 6 -4 4 -13 1 -22 -6 -10 -8 -15
-9 -15 -1 0 6 -17 11 -40 11 -31 0 -40 -4 -40 -17 -1 -17 -1 -17 -14 0 -16 21
-78 19 -88 -3 -5 -12 -7 -12 -7 3 -1 21 -21 23 -21 2 0 -13 -3 -14 -22 -2 -13
8 -30 13 -38 12 -8 -1 -21 -3 -27 -3 -7 -1 -14 -10 -14 -19 -1 -17 -2 -17 -6
0 -5 19 -24 24 -20 5 1 -6 -6 -14 -15 -16 -12 -2 -18 3 -18 15 -1 17 -1 17
-14 1 -7 -10 -16 -18 -20 -18 -3 0 -7 8 -7 18 -1 16 -2 16 -6 0 -6 -23 -49
-17 -45 6 4 21 -14 21 -27 -1 -9 -17 -11 -17 -25 2 -8 11 -18 16 -22 12 -5 -4
-2 -12 6 -17 11 -7 5 -10 -22 -10 -27 0 -38 4 -38 15 0 8 -4 15 -10 15 -5 0
-10 -7 -10 -15 0 -8 -4 -15 -10 -15 -5 0 -10 5 -10 12 0 6 -3 8 -7 5 -3 -4
-12 -2 -20 4 -10 9 -13 8 -13 -5 0 -9 -4 -16 -10 -16 -5 0 -10 6 -10 13 0 8
-3 7 -10 -3 -8 -12 -10 -12 -16 3 -3 9 -14 17 -23 16 -10 0 -11 -2 -3 -6 26
-10 10 -18 -28 -15 -22 2 -38 8 -35 12 3 5 -5 12 -17 16 -13 4 -24 2 -26 -5
-2 -6 -13 -11 -23 -11 -11 0 -18 4 -15 9 3 4 -6 13 -20 20 -31 14 -37 14 -28
0 7 -12 -16 -7 -73 17 -39 15 -73 67 -73 110 0 30 58 160 67 150 2 -2 0 -15
-6 -28 -10 -20 -10 -21 1 -4 36 53 62 77 79 73 15 -4 16 -2 7 12 -8 14 -2 28
31 72 22 30 41 58 41 63 0 5 25 6 55 3 30 -3 55 -4 55 -2 0 2 -24 11 -53 19
-30 9 -61 24 -70 34 -16 18 -16 22 8 77 l26 58 42 -6 c23 -3 53 -8 67 -12 14
-3 5 3 -20 14 -25 11 -39 20 -32 20 18 1 15 39 -9 109 -23 69 -17 92 25 92 28
0 50 -24 116 -127 43 -67 59 -84 93 -98 69 -28 75 -28 20 2 -29 15 -65 46 -80
68 -47 64 -48 73 -5 28 47 -48 114 -73 203 -73 75 0 120 20 160 72 19 24 26
37 16 29 -15 -12 -17 -12 -12 2 4 8 14 17 24 20 24 6 76 146 66 179 -4 15 -3
19 3 10 7 -10 12 -5 22 20 18 44 49 88 62 88 6 0 66 -56 134 -125z m60 16 c-1
-36 -2 -38 -18 -24 -17 15 -14 43 4 43 5 0 6 5 3 10 -3 6 -2 10 3 10 5 0 8
-18 8 -39z m-333 -118 c-4 -11 -3 -14 5 -9 9 6 9 1 0 -18 -6 -14 -15 -26 -20
-26 -5 0 -4 9 2 19 7 14 7 22 0 26 -11 7 -4 25 10 25 5 0 6 -7 3 -17z"/>
<path d="M6565 4009 c-4 -6 -5 -12 -2 -15 2 -3 7 2 10 11 7 17 1 20 -8 4z"/>
<path d="M6660 3975 c13 -14 26 -25 28 -25 3 0 -5 11 -18 25 -13 14 -26 25
-28 25 -3 0 5 -11 18 -25z"/>
<path d="M6754 3880 c26 -30 44 -61 41 -67 -2 -7 0 -13 5 -13 22 0 7 29 -41
81 l-51 54 46 -55z"/>
<path d="M5935 3800 c10 -11 20 -20 22 -20 2 0 -2 9 -9 20 -7 11 -17 20 -22
20 -5 0 -1 -9 9 -20z"/>
<path d="M6476 3787 c-7 -19 -17 -43 -20 -55 -11 -32 -71 -80 -118 -93 -23 -6
-75 -9 -115 -7 -50 2 -67 0 -55 -6 28 -16 156 -9 194 10 80 41 103 68 129 157
11 37 2 34 -15 -6z"/>
<path d="M6845 3760 c-3 -5 -1 -10 4 -10 6 0 11 5 11 10 0 6 -2 10 -4 10 -3 0
-8 -4 -11 -10z"/>
<path d="M6749 3693 c-13 -16 -12 -17 4 -4 16 13 21 21 13 21 -2 0 -10 -8 -17
-17z"/>
<path d="M6910 3658 c-26 -42 -25 -61 0 -28 11 14 24 30 30 37 13 15 13 23 0
23 -6 0 -19 -15 -30 -32z"/>
<path d="M6439 3649 c-23 -19 -23 -20 -2 -10 12 6 25 16 28 21 10 16 -1 12
-26 -11z"/>
<path d="M6960 3666 c0 -2 11 -15 24 -29 22 -23 23 -30 15 -68 -15 -66 -13
-129 4 -146 10 -10 17 -12 21 -4 4 6 0 14 -8 17 -19 7 -21 51 -5 123 9 41 8
54 -6 74 -14 21 -45 44 -45 33z"/>
<path d="M7057 3652 c-2 -9 -8 -26 -12 -37 -7 -19 -7 -19 7 -1 14 18 15 18 36
-5 15 -15 22 -36 22 -61 0 -24 4 -37 10 -33 17 10 11 43 -15 95 -28 56 -41 67
-48 42z"/>
<path d="M6223 3593 c20 -2 54 -2 75 0 20 2 3 4 -38 4 -41 0 -58 -2 -37 -4z"/>
<path d="M6065 3564 c28 -13 57 -24 65 -24 8 0 -12 12 -45 25 -75 31 -85 31
-20 -1z"/>
<path d="M7047 3573 c-4 -3 -6 -31 -6 -62 1 -31 4 -46 6 -33 5 26 20 28 49 8
12 -8 45 -17 75 -20 38 -4 47 -3 29 3 -14 5 -37 9 -52 10 -15 1 -33 8 -42 16
-8 8 -24 15 -36 15 -19 0 -22 4 -18 35 4 38 4 38 -5 28z"/>
<path d="M6168 3529 l23 -9 -26 -47 c-30 -55 -63 -95 -91 -111 -13 -8 -15 -11
-4 -12 8 0 31 16 51 36 33 33 39 35 60 23 21 -11 23 -11 11 3 -9 11 -10 18 -2
23 6 4 10 12 9 18 -1 7 1 20 6 30 9 21 -19 57 -44 56 -10 0 -7 -4 7 -10z"/>
<path d="M6504 3532 c6 -10 1 -11 -21 -7 l-28 5 28 -11 c32 -13 47 -5 27 14
-10 9 -11 9 -6 -1z"/>
<path d="M7231 3525 c1 -11 5 -31 9 -45 7 -22 8 -22 10 -5 3 29 0 49 -11 60
-5 5 -9 2 -8 -10z"/>
<path d="M7238 3444 c-17 -16 4 -90 22 -79 7 4 8 11 1 18 -5 7 -11 25 -13 40
-1 16 -6 25 -10 21z"/>
<path d="M5966 3412 c44 -32 84 -55 84 -48 0 6 -107 76 -116 76 -4 0 11 -13
32 -28z"/>
<path d="M7088 3313 c7 -3 16 -2 19 1 4 3 -2 6 -13 5 -11 0 -14 -3 -6 -6z"/>
<path d="M5830 3276 c0 -2 9 -6 20 -9 11 -3 20 -1 20 4 0 5 -9 9 -20 9 -11 0
-20 -2 -20 -4z"/>
<path d="M5881 3265 c3 -2 106 -20 229 -40 124 -19 235 -37 247 -38 12 -2 27
-1 34 3 6 4 -22 11 -62 15 -41 4 -154 20 -252 36 -182 30 -204 32 -196 24z"/>
<path d="M6430 3181 c0 -4 11 -6 25 -3 14 2 25 6 25 8 0 2 -11 4 -25 4 -14 0
-25 -4 -25 -9z"/>
<path d="M6515 3170 c30 -8 152 -13 144 -6 -2 2 -42 6 -89 9 -51 3 -73 2 -55
-3z"/>
<path d="M6671 3155 c3 -2 43 -7 90 -9 71 -4 75 -3 29 4 -63 9 -126 12 -119 5z"/>
<path d="M6878 3133 c17 -2 47 -2 65 0 17 2 3 4 -33 4 -36 0 -50 -2 -32 -4z"/>
<path d="M6982 3125 c4 -4 35 -9 70 -11 35 -2 140 -10 233 -17 194 -14 512 -7
620 13 39 7 65 15 58 17 -6 2 -38 -1 -70 -7 -32 -7 -153 -14 -268 -17 -188 -5
-277 -1 -575 24 -41 3 -72 2 -68 -2z"/>
<path d="M7991 3090 c-13 -11 -19 -20 -14 -20 6 0 18 9 28 20 23 25 17 25 -14
0z"/>
<path d="M6484 4019 c-1 -23 1 -25 12 -14 17 17 18 31 2 38 -9 3 -13 -6 -14
-24z"/>
<path d="M6425 4019 c-4 -6 -5 -12 -2 -15 2 -3 7 2 10 11 7 17 1 20 -8 4z"/>
<path d="M6400 3981 c0 -25 6 -27 13 -6 4 8 2 17 -3 20 -6 4 -10 -3 -10 -14z"/>
<path d="M6830 3914 c0 -1 6 -7 14 -13 10 -9 15 -8 19 2 3 8 -3 13 -14 13 -11
0 -19 -1 -19 -2z"/>
<path d="M5930 3906 c0 -2 7 -7 16 -10 8 -3 12 -2 9 4 -6 10 -25 14 -25 6z"/>
<path d="M6871 3884 c0 -11 3 -14 6 -6 3 7 2 16 -1 19 -3 4 -6 -2 -5 -13z"/>
<path d="M6326 3824 c-3 -9 -6 -23 -5 -32 0 -12 3 -10 9 6 5 12 13 22 19 22 5
0 11 -10 15 -22 5 -19 8 -20 15 -8 7 10 5 20 -6 32 -20 22 -39 23 -47 2z"/>
<path d="M6944 3829 c-3 -6 -2 -15 3 -20 5 -5 9 -1 9 11 0 23 -2 24 -12 9z"/>
<path d="M6035 3800 c3 -5 8 -10 11 -10 2 0 4 5 4 10 0 6 -5 10 -11 10 -5 0
-7 -4 -4 -10z"/>
<path d="M6276 3784 c-6 -16 2 -18 22 -5 11 7 11 9 -1 14 -9 3 -18 -1 -21 -9z"/>
<path d="M6940 3780 c6 -11 13 -20 16 -20 2 0 0 9 -6 20 -6 11 -13 20 -16 20
-2 0 0 -9 6 -20z"/>
<path d="M6080 3756 c0 -2 9 -6 20 -9 11 -3 18 -1 14 4 -5 9 -34 13 -34 5z"/>
<path d="M5770 3659 c-7 -11 -9 -23 -6 -27 3 -3 6 1 6 9 0 12 2 12 9 0 6 -9 9
-5 9 13 0 31 -4 32 -18 5z"/>
<path d="M7180 3666 c0 -8 4 -17 9 -20 5 -4 7 3 4 14 -6 23 -13 26 -13 6z"/>
<path d="M7150 3650 c0 -5 5 -10 10 -10 6 0 10 5 10 10 0 6 -4 10 -10 10 -5 0
-10 -4 -10 -10z"/>
<path d="M5770 3610 c0 -5 5 -10 11 -10 5 0 7 5 4 10 -3 6 -8 10 -11 10 -2 0
-4 -4 -4 -10z"/>
<path d="M7341 3554 c0 -11 3 -14 6 -6 3 7 2 16 -1 19 -3 4 -6 -2 -5 -13z"/>
<path d="M7795 3430 c-13 -6 -15 -9 -5 -9 8 0 22 4 30 9 18 12 2 12 -25 0z"/>
<path d="M8182 3395 c0 -16 2 -22 5 -12 2 9 2 23 0 30 -3 6 -5 -1 -5 -18z"/>
<path d="M8015 3349 c3 -4 0 -9 -7 -12 -7 -2 -4 -2 7 0 11 3 28 5 39 4 26 0
13 10 -18 13 -14 2 -23 0 -21 -5z"/>
<path d="M5637 3313 c-13 -12 -7 -26 6 -15 6 5 21 12 32 15 16 4 15 5 -6 6
-14 0 -29 -2 -32 -6z"/>
<path d="M8157 3299 c4 -13 8 -18 11 -10 2 7 -1 18 -6 23 -8 8 -9 4 -5 -13z"/>
<path d="M8100 3265 c0 -8 2 -15 4 -15 2 0 6 7 10 15 3 8 1 15 -4 15 -6 0 -10
-7 -10 -15z"/>
<path d="M8095 3219 c-4 -6 -5 -11 -4 -12 2 -1 13 -7 24 -13 28 -16 54 -4 45
20 -6 17 -7 18 -13 3 -8 -21 -27 -22 -27 -2 0 17 -16 20 -25 4z"/>
<path d="M8184 3142 c0 -40 2 -49 7 -32 10 35 11 78 1 84 -4 2 -8 -21 -8 -52z"/>
<path d="M5402 3150 c0 -19 2 -27 5 -17 2 9 2 25 0 35 -3 9 -5 1 -5 -18z"/>
<path d="M8140 3100 c0 -5 5 -10 11 -10 5 0 7 5 4 10 -3 6 -8 10 -11 10 -2 0
-4 -4 -4 -10z"/>
<path d="M8043 2953 c9 -2 23 -2 30 0 6 3 -1 5 -18 5 -16 0 -22 -2 -12 -5z"/>
<path d="M5402 2910 c0 -19 2 -27 5 -17 2 9 2 25 0 35 -3 9 -5 1 -5 -18z"/>
<path d="M8058 2913 c7 -3 16 -2 19 1 4 3 -2 6 -13 5 -11 0 -14 -3 -6 -6z"/>
<path d="M6061 2761 c-8 -5 -37 -8 -65 -7 -53 3 -84 -8 -100 -34 -8 -12 -11
-10 -17 10 l-7 25 -1 -27 c-1 -15 4 -30 9 -33 6 -3 10 -14 10 -24 0 -10 14
-25 33 -35 30 -16 98 -17 923 -14 966 3 916 0 929 59 8 34 -6 51 -50 65 -18 6
-347 9 -835 9 -443 0 -807 3 -810 7 -3 4 -12 3 -19 -1z m1674 -71 l0 -25 -896
-3 c-785 -2 -898 0 -909 13 -7 8 -10 22 -6 30 5 13 109 15 908 13 l903 -3 0
-25z"/>
<path d="M2823 2743 c-53 -7 -78 -58 -44 -92 21 -21 27 -21 949 -21 1021 0
972 -3 972 59 0 59 46 56 -939 57 -498 1 -920 -1 -938 -3z m1155 -33 c607 0
673 -2 679 -16 3 -9 0 -19 -6 -24 -7 -4 -424 -8 -927 -9 -818 -2 -915 0 -920
14 -3 8 -3 22 0 32 6 15 29 16 254 10 136 -4 550 -7 920 -7z"/>
<path d="M5846 2717 c3 -10 9 -15 12 -12 3 3 0 11 -7 18 -10 9 -11 8 -5 -6z"/>
<path d="M7787 2683 c-16 -40 -15 -49 2 -38 6 3 11 18 11 33 0 21 2 24 10 12
5 -8 10 -10 10 -5 0 6 -4 16 -9 23 -6 10 -13 3 -24 -25z"/>
<path d="M7703 2603 c9 -2 23 -2 30 0 6 3 -1 5 -18 5 -16 0 -22 -2 -12 -5z"/>
<path d="M8195 2550 c-3 -5 1 -10 10 -10 9 0 13 5 10 10 -3 6 -8 10 -10 10 -2
0 -7 -4 -10 -10z"/>
<path d="M8128 2363 c7 -3 16 -2 19 1 4 3 -2 6 -13 5 -11 0 -14 -3 -6 -6z"/>
<path d="M6363 2295 c0 -33 2 -45 4 -27 2 18 2 45 0 60 -2 15 -4 0 -4 -33z"/>
<path d="M8168 2343 c6 -2 18 -2 25 0 6 3 1 5 -13 5 -14 0 -19 -2 -12 -5z"/>
<path d="M7618 2323 c12 -2 22 -9 22 -14 0 -5 5 -9 10 -9 6 0 10 7 10 15 0 11
-10 15 -32 14 -24 -1 -27 -3 -10 -6z"/>
<path d="M7772 2310 c-25 -24 -28 -40 -8 -40 8 0 18 9 21 20 9 27 31 25 62 -6
l25 -25 20 21 c11 12 17 24 13 28 -3 4 -11 -1 -16 -11 -6 -9 -15 -17 -21 -17
-7 0 -6 5 2 15 8 9 8 15 2 15 -6 0 -13 -6 -15 -12 -4 -10 -6 -10 -6 0 -1 6 -8
12 -17 12 -8 0 -12 5 -9 10 11 19 -31 10 -53 -10z"/>
<path d="M7960 2320 c-9 -6 -10 -10 -3 -10 6 0 15 5 18 10 8 12 4 12 -15 0z"/>
<path d="M8086 2315 c4 -11 -1 -14 -23 -12 -26 2 -28 0 -31 -42 -4 -60 11 -73
44 -38 14 15 25 38 24 50 -4 39 0 47 20 47 17 0 20 -7 20 -40 0 -22 4 -40 9
-40 6 0 12 -17 14 -37 2 -21 3 -13 1 19 -3 40 0 58 10 61 15 6 29 47 16 47 -4
0 -11 -10 -15 -22 l-8 -23 -4 23 c-4 18 -11 22 -43 22 -30 0 -38 -3 -34 -15z"/>
<path d="M2643 2291 c-1 -22 1 -23 10 -10 7 9 19 18 27 21 10 3 7 6 -10 9 -21
5 -25 1 -27 -20z"/>
<path d="M2753 2303 c-13 -9 -23 -21 -23 -29 0 -8 10 -3 26 13 30 30 28 37 -3
16z"/>
<path d="M2860 2305 c-6 -7 -19 -11 -28 -8 -14 6 -15 5 -2 -9 8 -9 17 -13 20
-9 3 4 13 12 24 18 11 6 14 13 8 17 -5 3 -15 -1 -22 -9z"/>
<path d="M6688 2313 c-10 -2 -18 -9 -18 -14 0 -6 10 -5 23 2 37 20 36 23 -5
12z"/>
<path d="M6883 2297 c-1 -11 -1 -18 0 -16 2 2 8 11 15 20 9 12 9 16 -1 16 -7
0 -14 -9 -14 -20z"/>
<path d="M6950 2312 c0 -1 9 -12 19 -23 l19 -21 -2 25 c-1 18 -6 25 -18 24
-10 -1 -18 -3 -18 -5z"/>
<path d="M7666 2305 c-8 -23 -8 -35 3 -35 13 0 23 32 13 42 -6 6 -12 3 -16 -7z"/>
<path d="M7700 2310 c0 -5 5 -10 10 -10 6 0 10 5 10 10 0 6 -4 10 -10 10 -5 0
-10 -4 -10 -10z"/>
<path d="M2946 2301 c-12 -5 -15 -10 -9 -14 6 -4 16 0 23 8 14 17 13 17 -14 6z"/>
<path d="M6760 2294 c0 -8 5 -12 10 -9 6 3 10 10 10 16 0 5 -4 9 -10 9 -5 0
-10 -7 -10 -16z"/>
<path d="M7565 2300 c-4 -6 6 -7 27 -3 44 8 48 13 10 13 -17 0 -34 -4 -37 -10z"/>
<path d="M7946 2291 c8 -9 54 -8 54 0 0 4 -14 7 -30 7 -17 -1 -28 -4 -24 -7z"/>
<path d="M3050 2273 c0 -4 5 -15 10 -23 8 -13 10 -13 10 2 0 9 -4 20 -10 23
-5 3 -10 3 -10 -2z"/>
<path d="M6650 2270 c0 -5 5 -10 10 -10 6 0 10 5 10 10 0 6 -4 10 -10 10 -5 0
-10 -4 -10 -10z"/>
<path d="M7978 2263 c7 -3 16 -2 19 1 4 3 -2 6 -13 5 -11 0 -14 -3 -6 -6z"/>
<path d="M7561 2244 c0 -11 3 -14 6 -6 3 7 2 16 -1 19 -3 4 -6 -2 -5 -13z"/>
<path d="M7922 2248 c-27 -27 -14 -38 27 -23 30 10 41 11 45 2 2 -7 5 -4 5 6
1 9 0 17 -2 17 -1 0 -17 -4 -35 -10 -29 -8 -32 -7 -22 5 15 18 -1 20 -18 3z"/>
<path d="M6665 2240 c-3 -5 -1 -10 4 -10 6 0 11 5 11 10 0 6 -2 10 -4 10 -3 0
-8 -4 -11 -10z"/>
<path d="M7700 2241 c0 -5 7 -11 15 -15 8 -3 15 -1 15 3 0 5 -7 11 -15 15 -8
3 -15 1 -15 -3z"/>
<path d="M7826 2236 c10 -8 21 -12 24 -10 5 6 -21 24 -34 24 -6 0 -1 -6 10
-14z"/>
<path d="M2635 2230 c3 -5 8 -10 11 -10 2 0 4 5 4 10 0 6 -5 10 -11 10 -5 0
-7 -4 -4 -10z"/>
<path d="M3041 2228 c-1 -12 -9 -18 -26 -18 -18 0 -25 -5 -25 -20 0 -10 -7
-23 -16 -28 -14 -8 -12 -10 11 -14 21 -4 29 -1 32 13 3 11 11 19 19 19 20 0
25 15 15 42 -7 17 -10 18 -10 6z m-1 -32 c0 -2 -9 -6 -20 -9 -11 -3 -18 -1
-14 4 5 9 34 13 34 5z"/>
<path d="M7083 2233 c12 -11 -13 -31 -33 -26 -13 4 -19 -1 -22 -18 -2 -15 -12
-26 -28 -30 -23 -6 -22 -7 8 -8 18 -1 31 2 28 7 -2 4 2 16 10 27 14 19 14 19
15 -1 0 -17 1 -16 9 4 5 12 14 22 20 22 5 0 10 7 10 15 0 8 -5 15 -12 15 -6 0
-8 -3 -5 -7z"/>
<path d="M7600 2215 c0 -8 4 -15 9 -15 5 0 11 7 15 15 3 9 0 15 -9 15 -8 0
-15 -7 -15 -15z"/>
<path d="M7181 2206 c-9 -10 -8 -15 4 -20 10 -4 15 1 15 14 0 24 -4 25 -19 6z"/>
<path d="M7660 2213 c0 -6 -3 -20 -6 -30 -7 -17 -6 -17 12 -1 14 14 16 21 6
30 -8 8 -12 9 -12 1z"/>
<path d="M2630 2186 c0 -8 4 -17 9 -20 5 -4 7 3 4 14 -6 23 -13 26 -13 6z"/>
<path d="M6964 2182 c-11 -11 -26 -22 -34 -25 -10 -4 -9 -6 6 -6 11 -1 29 8
39 19 24 26 13 37 -11 12z"/>
<path d="M7743 2174 c-12 -13 -16 -24 -9 -24 15 0 48 38 38 44 -4 2 -17 -7
-29 -20z"/>
<path d="M7886 2191 c-4 -7 -5 -15 -2 -18 9 -9 19 4 14 18 -4 11 -6 11 -12 0z"/>
<path d="M7945 2190 c-3 -5 -1 -10 4 -10 6 0 11 5 11 10 0 6 -2 10 -4 10 -3 0
-8 -4 -11 -10z"/>
<path d="M2726 2181 c-3 -5 1 -12 10 -15 22 -8 25 -4 9 11 -8 7 -16 9 -19 4z"/>
<path d="M2840 2186 c0 -2 8 -10 18 -17 15 -13 16 -12 3 4 -13 16 -21 21 -21
13z"/>
<path d="M2937 2183 c-4 -3 -7 -11 -7 -17 0 -6 5 -5 12 2 6 6 9 14 7 17 -3 3
-9 2 -12 -2z"/>
<path d="M6670 2170 c8 -5 20 -10 25 -10 6 0 3 5 -5 10 -8 5 -19 10 -25 10 -5
0 -3 -5 5 -10z"/>
<path d="M2680 2160 c-23 -7 -23 -8 -3 -9 12 -1 25 4 28 9 3 6 5 10 3 9 -2 -1
-14 -5 -28 -9z"/>
<path d="M7608 2153 c6 -2 18 -2 25 0 6 3 1 5 -13 5 -14 0 -19 -2 -12 -5z"/>
<path d="M7274 1773 c-41 -76 -73 -115 -85 -107 -5 3 -6 -1 -4 -8 3 -8 -10
-27 -30 -43 -19 -17 -35 -34 -35 -40 0 -5 -15 -23 -32 -40 -28 -26 -30 -27
-15 -5 32 47 38 60 28 60 -15 0 -51 -50 -57 -79 -9 -39 -28 -81 -36 -81 -5 0
-8 -5 -8 -12 0 -16 -54 -62 -58 -50 -4 12 34 83 76 144 47 68 39 69 -13 2 -25
-31 -45 -63 -45 -71 0 -7 -4 -13 -9 -13 -5 0 -20 -24 -35 -53 l-26 -54 -92
-30 c-51 -17 -121 -39 -156 -49 -71 -20 -107 -53 -118 -109 -9 -50 2 -84 34
-98 26 -11 26 -11 -18 -15 -95 -7 -67 -35 51 -51 45 -7 336 -9 745 -8 797 3
731 -8 719 121 -4 44 -11 131 -16 191 -4 61 -12 135 -18 165 -5 30 -7 73 -4
95 5 46 -10 95 -30 95 -7 0 -26 -13 -42 -30 -15 -16 -32 -27 -36 -24 -5 3 -6
-1 -4 -9 11 -28 -33 -51 -104 -55 -60 -4 -75 0 -142 31 -41 19 -92 40 -114 47
-63 19 -66 22 -86 74 -20 53 -45 86 -66 86 -7 0 -13 -8 -13 -18 0 -10 -7 -40
-16 -66 -10 -30 -13 -51 -7 -57 5 -5 36 -17 69 -26 32 -9 81 -30 108 -45 77
-45 186 -78 259 -78 83 0 122 25 157 97 38 81 49 70 48 -49 -1 -57 2 -113 6
-125 5 -16 3 -23 -6 -23 -7 0 -70 -18 -138 -39 -152 -49 -130 -53 30 -7 83 25
117 31 122 23 4 -7 8 -46 8 -88 l0 -77 -42 -6 c-24 -3 -119 -11 -213 -17 -372
-25 -393 -27 -185 -21 312 9 283 11 291 -18 l7 -25 1 28 c1 24 5 27 39 27 20
0 54 3 75 6 l37 7 0 -62 c0 -59 -1 -61 -20 -51 -12 6 -30 8 -42 4 -11 -3 -18
-2 -15 3 3 5 2 15 -3 23 -7 11 -11 9 -19 -11 -5 -15 -17 -29 -25 -32 -12 -5
-16 1 -17 26 0 18 -3 26 -6 20 -3 -10 -40 -13 -133 -13 -84 0 -131 -4 -136
-11 -5 -8 31 -9 130 -4 76 4 136 4 136 -1 -1 -35 -5 -35 -485 -33 -99 0 -262
0 -361 -1 -336 -2 -494 28 -494 95 0 23 2 24 21 15 55 -30 407 -35 694 -11
l90 8 -93 1 -93 2 -25 55 c-22 50 -33 135 -18 135 3 0 23 -13 43 -28 59 -47
69 -49 24 -6 -38 36 -43 46 -43 85 l-1 44 -18 -22 c-21 -26 -37 -29 -44 -10
-2 6 -2 1 0 -13 1 -14 -1 -38 -5 -55 l-9 -30 -13 25 c-7 14 -13 26 -12 27 4 6
-11 33 -18 33 -4 0 -2 -17 6 -37 7 -21 13 -49 13 -63 0 -24 -1 -24 -14 5 -8
17 -16 43 -20 58 -3 15 -10 25 -16 22 -7 -5 -7 -11 0 -19 9 -11 13 -86 5 -86
-9 0 -30 57 -27 72 2 9 -1 19 -8 23 -8 5 -9 1 -4 -16 7 -21 6 -22 -9 -10 -9 8
-16 9 -16 3 0 -6 5 -14 10 -17 6 -4 8 -10 5 -14 -2 -5 0 -23 5 -42 8 -28 8
-31 -4 -19 -7 8 -20 34 -29 56 -14 36 -14 44 -1 62 8 12 20 19 27 17 6 -3 28
5 47 17 19 12 49 23 65 25 18 2 40 15 55 33 14 17 28 30 31 30 4 0 10 -26 15
-57 4 -32 9 -49 11 -37 2 11 0 39 -5 62 -6 23 -6 42 -1 42 14 0 29 -37 29 -74
l0 -34 103 39 c83 33 112 40 155 37 49 -3 52 -2 34 13 -16 12 -17 18 -8 32 11
14 14 13 30 -13 27 -46 86 -98 145 -127 49 -25 58 -26 105 -16 89 19 128 39
124 65 -3 21 -10 24 -80 30 -90 8 -169 30 -220 61 -20 12 -56 34 -80 49 -25
15 -58 30 -74 33 -27 6 -30 3 -46 -36 -10 -23 -20 -40 -24 -37 -3 3 1 22 9 41
15 34 14 35 -11 48 -45 23 -47 23 -32 4 14 -17 13 -17 -10 -11 l-25 8 23 -17
c21 -16 30 -45 14 -45 -5 0 -17 9 -28 21 -21 24 -57 43 -94 53 -21 5 -20 3 5
-9 17 -8 26 -14 21 -15 -5 0 1 -11 14 -25 13 -14 28 -25 34 -25 6 1 -2 12 -19
25 -16 14 -25 25 -18 25 18 0 73 -50 73 -68 0 -8 -3 -13 -6 -9 -4 3 -15 -4
-25 -16 l-18 -22 -1 25 c-1 23 -3 22 -14 -9 l-12 -34 -16 25 c-9 13 -17 32
-19 43 -3 16 -14 10 -66 -37 -51 -45 -103 -77 -103 -63 0 18 38 80 73 120 45
50 45 50 66 31 25 -23 28 -11 4 16 -15 17 -15 19 2 38 23 25 24 25 71 -6 l39
-26 -24 26 c-14 14 -30 26 -38 26 -7 0 -13 7 -13 15 0 8 4 15 9 15 5 0 29 36
53 80 24 44 46 80 50 80 3 0 11 -14 17 -31 23 -65 5 -163 -27 -152 -15 4 -15
3 -2 -6 8 -6 18 -11 21 -11 10 0 29 76 29 118 0 37 -26 102 -42 102 -3 0 -23
-30 -44 -67z m468 -275 c89 -14 128 -5 173 40 23 23 33 29 26 16 -6 -12 -24
-34 -42 -48 -27 -23 -39 -26 -102 -26 -84 0 -146 17 -228 62 -88 48 -71 53 24
7 47 -22 113 -45 149 -51z m-384 54 c2 -7 -2 -10 -12 -6 -9 3 -16 11 -16 16 0
13 23 5 28 -10z m-448 -307 c8 -27 20 -60 28 -73 23 -36 9 -35 -37 4 -37 32
-43 35 -54 20 -9 -11 -16 -13 -27 -6 -12 8 -12 10 5 11 l20 0 -20 9 c-11 5
-36 8 -55 8 -26 -1 -29 -2 -10 -5 14 -3 30 -9 35 -15 7 -8 5 -9 -6 -5 -9 3
-21 1 -26 -4 -5 -5 -31 -6 -58 -2 l-50 6 40 13 40 13 -50 -6 c-27 -3 -61 -10
-73 -14 -18 -7 -23 -6 -20 3 3 7 45 25 94 40 49 15 114 36 144 47 30 11 58 17
61 13 3 -4 12 -29 19 -57z m157 -17 c-3 -8 -6 -5 -6 6 -1 11 2 17 5 13 3 -3 4
-12 1 -19z"/>
<path d="M7370 1819 c43 -25 78 -73 100 -140 21 -60 30 -71 27 -33 -1 16 -4
31 -7 34 -11 11 -54 106 -53 117 0 7 -3 10 -8 7 -9 -5 -41 20 -34 27 2 2 -11
5 -28 6 l-32 2 35 -20z"/>
<path d="M7277 1609 c7 -7 15 -10 18 -7 3 3 -2 9 -12 12 -14 6 -15 5 -6 -5z"/>
<path d="M7940 1315 c-19 -7 -28 -13 -20 -13 8 0 31 6 50 13 19 7 28 13 20 13
-8 0 -31 -6 -50 -13z"/>
<path d="M7668 1263 c7 -3 16 -2 19 1 4 3 -2 6 -13 5 -11 0 -14 -3 -6 -6z"/>
<path d="M7710 1245 c-80 -28 -139 -54 -124 -55 6 0 57 18 115 40 111 42 118
54 9 15z"/>
<path d="M7628 1253 c7 -3 16 -2 19 1 4 3 -2 6 -13 5 -11 0 -14 -3 -6 -6z"/>
<path d="M7578 1243 c6 -2 18 -2 25 0 6 3 1 5 -13 5 -14 0 -19 -2 -12 -5z"/>
<path d="M7250 1225 c14 -8 30 -14 35 -14 6 0 -1 6 -15 14 -14 8 -29 14 -35
14 -5 0 1 -6 15 -14z"/>
<path d="M7408 1223 c6 -2 18 -2 25 0 6 3 1 5 -13 5 -14 0 -19 -2 -12 -5z"/>
<path d="M7568 1213 c6 -2 18 -2 25 0 6 3 1 5 -13 5 -14 0 -19 -2 -12 -5z"/>
<path d="M7320 1199 c13 -5 60 -12 105 -14 l80 -4 -70 9 c-38 5 -86 11 -105
14 -31 5 -32 5 -10 -5z"/>
<path d="M7528 1203 c7 -3 16 -2 19 1 4 3 -2 6 -13 5 -11 0 -14 -3 -6 -6z"/>
<path d="M7533 1183 c9 -2 23 -2 30 0 6 3 -1 5 -18 5 -16 0 -22 -2 -12 -5z"/>
<path d="M7902 1060 c0 -14 2 -19 5 -12 2 6 2 18 0 25 -3 6 -5 1 -5 -13z"/>
<path d="M6558 839 c-12 -6 -18 -22 -18 -44 0 -68 -19 -66 610 -63 l562 3 19
24 c24 30 24 46 -1 71 -20 20 -33 20 -587 20 -367 -1 -574 -4 -585 -11z m1136
-19 c28 -10 34 -34 14 -47 -15 -8 -1068 -15 -1110 -7 -21 4 -28 11 -28 29 0
14 7 25 18 28 36 10 1081 7 1106 -3z"/>
</g>
</svg>
