<?xml version="1.0" standalone="no"?>
<!DOCTYPE svg PUBLIC "-//W3C//DTD SVG 20010904//EN"
 "http://www.w3.org/TR/2001/REC-SVG-20010904/DTD/svg10.dtd">
<svg version="1.0" xmlns="http://www.w3.org/2000/svg"
 width="1024.000000pt" height="1024.000000pt" viewBox="0 0 1024.000000 1024.000000"
 preserveAspectRatio="xMidYMid meet">

<g transform="translate(0.000000,1024.000000) scale(0.100000,-0.100000)"
fill="#000000" stroke="none">
<path d="M2541 10005 l3 -235 -34 -35 -34 -35 18 -35 c15 -28 18 -47 13 -100
-4 -36 -9 -70 -12 -75 -4 -6 -69 -10 -149 -10 l-143 0 -6 -110 c-7 -115 1
-298 13 -305 4 -2 126 -4 271 -4 145 0 305 -1 355 -1 49 -1 103 4 118 10 28
10 28 11 22 73 -3 34 -11 124 -17 200 l-12 137 -133 0 c-124 0 -134 -1 -134
-19 0 -10 13 -90 30 -177 30 -162 33 -181 26 -173 -14 13 -68 321 -73 411 -5
89 -3 111 11 132 9 14 16 32 16 40 0 24 -68 76 -100 76 l-30 0 0 235 c0 162
-3 235 -11 235 -7 0 -10 -72 -8 -235z m110 -296 c7 -13 6 -26 -2 -40 -6 -12
-11 -59 -10 -105 l1 -84 -59 0 -60 0 -22 -100 c-12 -55 -25 -98 -27 -95 -7 7
40 225 49 225 4 0 10 27 14 61 6 49 4 67 -11 95 l-19 34 25 17 c13 10 31 21
40 24 22 9 69 -10 81 -32z"/>
<path d="M7782 10018 c-1 -124 -5 -233 -8 -241 -3 -8 -13 -13 -22 -11 -20 5
-91 -34 -106 -59 -8 -13 -7 -25 7 -48 19 -34 23 -113 7 -153 l-10 -26 -133 0
-134 0 -7 -46 c-3 -26 -6 -59 -6 -74 0 -15 -6 -30 -12 -33 -10 -3 -13 -39 -13
-133 l0 -128 335 -2 c322 -1 413 4 430 22 4 5 10 96 14 202 l6 192 -151 0
c-95 0 -148 -4 -144 -10 8 -14 74 -344 69 -349 -5 -6 -9 8 -48 191 -43 200
-48 310 -16 351 27 34 26 41 -12 73 l-33 27 -5 241 -6 241 -2 -227z m12 -296
l33 -28 -19 -35 c-16 -28 -18 -46 -12 -106 l6 -73 -60 0 -61 0 -11 -57 c-31
-161 -62 -289 -72 -298 -8 -7 -9 -4 -4 10 4 11 23 93 41 182 19 90 39 171 44
182 21 38 25 127 7 161 -18 37 -15 45 28 71 40 24 42 24 80 -9z"/>
<path d="M1840 8678 c0 -11 -18 -19 -62 -28 -97 -19 -127 -30 -138 -51 -6 -10
-17 -19 -26 -19 -8 0 -19 -12 -25 -27 -6 -16 -16 -35 -23 -43 -21 -23 -43
-139 -51 -261 -7 -103 -37 -978 -55 -1644 -6 -187 -12 -531 -15 -765 -3 -234
-12 -594 -20 -800 -9 -206 -14 -436 -13 -510 2 -74 -3 -304 -9 -510 -21 -617
-37 -1132 -37 -1185 0 -27 -5 -151 -12 -275 -8 -124 -15 -372 -16 -552 -2
-181 -6 -328 -9 -328 -5 0 -14 -252 -25 -740 -2 -102 -9 -218 -14 -258 -13
-94 -13 -313 0 -346 6 -16 6 -27 0 -31 -17 -11 -11 -44 15 -85 14 -22 25 -42
25 -45 0 -15 79 -95 93 -95 7 0 17 -4 22 -9 13 -13 122 -41 158 -41 16 0 45
-7 64 -17 32 -15 82 -15 641 -5 334 7 672 16 752 22 80 5 366 14 635 20 270 5
558 15 640 21 83 6 177 8 210 5 33 -2 211 -1 395 5 184 5 418 11 520 13 485 8
1449 54 1655 80 88 10 265 45 284 55 11 6 28 11 39 11 10 0 27 9 37 20 10 11
23 20 30 20 6 0 21 12 34 26 17 19 24 43 28 97 3 40 11 75 17 79 7 5 3 8 -9 9
-17 1 -16 2 5 9 l25 8 -24 1 c-31 1 -23 9 26 26 32 12 -400 14 -2859 15
l-2898 0 0 4067 c0 2236 -2 4069 -5 4071 -3 3 -5 -2 -5 -10z"/>
<path d="M2940 8285 l0 -185 55 0 54 0 3 88 3 87 60 -87 60 -87 57 -1 56 0 4
63 c3 34 4 116 4 182 l-1 120 -55 0 -55 0 -3 -90 -3 -90 -59 93 -59 92 -61 0
-60 0 0 -185z"/>
<path d="M3414 8450 c-100 -51 -123 -213 -43 -305 51 -58 151 -72 229 -32 53
26 85 70 94 127 12 78 -9 143 -64 195 -27 26 -39 30 -103 33 -57 2 -80 -1
-113 -18z m137 -102 c15 -25 19 -45 16 -80 -5 -57 -20 -78 -57 -78 -37 0 -50
19 -57 82 -4 44 -2 57 17 81 29 36 56 34 81 -5z"/>
<path d="M4080 8448 c-64 -33 -92 -90 -88 -179 3 -54 9 -73 32 -104 90 -117
276 -91 321 45 27 83 1 187 -59 231 -46 35 -145 38 -206 7z m129 -94 c14 -18
21 -41 21 -73 0 -55 -22 -91 -55 -91 -35 0 -55 36 -55 97 0 40 5 58 20 73 27
27 44 25 69 -6z"/>
<path d="M4387 8463 c-9 -8 -9 -290 -1 -332 6 -30 8 -31 60 -31 52 0 54 1 54
28 0 46 12 102 21 97 4 -3 23 -32 41 -65 l33 -60 62 0 c35 0 63 3 63 7 0 3
-15 34 -34 69 l-34 62 29 28 c25 24 29 35 29 80 0 45 -4 57 -29 82 -17 16 -44
32 -62 36 -42 8 -224 8 -232 -1z m166 -92 c53 -20 40 -71 -19 -71 -36 0 -40
10 -28 58 7 25 12 26 47 13z"/>
<path d="M4750 8285 l0 -187 119 3 c141 5 160 14 204 100 32 62 31 112 -5 187
-29 62 -60 74 -200 80 l-118 5 0 -188z m186 77 c17 -11 32 -73 27 -112 -6 -41
-26 -60 -65 -60 l-28 0 0 90 0 90 28 0 c15 0 32 -4 38 -8z"/>
<path d="M5120 8283 l0 -183 150 0 150 0 0 45 0 45 -90 0 c-88 0 -90 1 -90 24
0 26 28 36 106 36 l43 0 -1 40 0 40 -74 0 c-67 0 -74 2 -74 20 0 19 7 20 91
20 l90 0 -3 48 -3 47 -147 0 -148 1 0 -183z"/>
<path d="M5468 8464 c-16 -5 -18 -21 -19 -152 0 -81 -1 -162 -2 -180 l-2 -32
63 0 62 0 0 60 c0 43 4 60 13 60 7 0 28 -27 47 -60 l34 -60 63 0 c63 0 78 11
52 37 -6 6 -23 32 -38 58 l-27 47 34 34 c31 31 34 38 28 75 -15 91 -48 111
-191 115 -55 2 -108 1 -117 -2z m170 -96 c21 -21 14 -58 -14 -68 -47 -18 -54
-14 -54 35 0 43 1 45 28 45 15 0 33 -5 40 -12z"/>
<path d="M5865 8457 c-56 -26 -81 -81 -64 -142 12 -43 37 -61 114 -78 110 -25
74 -79 -38 -57 -66 13 -79 6 -75 -39 4 -31 51 -49 131 -50 103 -2 168 44 169
119 1 66 -24 91 -116 115 -57 14 -76 23 -74 35 4 16 71 20 118 7 22 -7 27 -3
42 33 l17 41 -27 11 c-44 17 -163 20 -197 5z"/>
<path d="M6390 8462 c0 -2 21 -38 46 -80 65 -107 74 -132 74 -212 l0 -70 63 0
62 0 1 78 c2 74 4 81 58 178 31 56 56 105 56 108 0 4 -26 6 -57 4 l-58 -3 -29
-60 -29 -59 -19 49 c-25 66 -40 76 -110 73 -32 -1 -58 -4 -58 -6z"/>
<path d="M6770 8283 l0 -183 145 0 145 0 0 45 0 45 -85 0 c-83 0 -85 1 -85 24
0 30 16 36 91 36 l59 0 0 40 0 40 -74 0 c-53 0 -75 4 -79 13 -12 31 8 38 85
31 80 -7 84 -5 92 40 10 56 6 58 -150 55 l-144 -3 0 -183z"/>
<path d="M7080 8420 l0 -49 50 6 50 6 0 -142 0 -141 60 0 60 0 0 135 c0 149
-4 141 66 136 31 -2 32 -1 36 44 2 26 1 48 -1 51 -2 2 -76 4 -163 4 l-158 0 0
-50z"/>
<path d="M6336 7789 c2 -4 -8 -15 -23 -23 l-28 -15 42 -1 c90 0 53 -57 -45
-69 -57 -7 -60 -6 -51 11 5 10 14 18 18 18 5 0 11 7 15 15 5 13 1 13 -31 0
-42 -18 -43 -18 -43 -5 0 5 24 24 53 41 28 17 41 28 27 24 -14 -3 -32 -7 -40
-8 -23 -4 -90 -38 -90 -47 0 -4 25 -29 55 -56 30 -27 53 -54 51 -61 -3 -6 1
-14 9 -17 8 -3 12 0 9 8 -3 7 11 19 31 29 19 9 35 22 35 27 0 6 4 9 9 5 5 -3
12 -1 16 5 3 5 11 10 17 10 6 0 -1 -11 -16 -25 -14 -13 -26 -28 -26 -34 0 -5
15 5 33 22 18 18 31 34 30 36 -1 2 4 10 12 18 24 23 30 63 13 80 -16 15 -91
26 -82 12z"/>
<path d="M6145 7602 c-11 -2 -26 -9 -34 -16 -12 -9 -13 -8 -7 2 6 10 4 11 -10
4 -11 -6 -53 -20 -94 -33 -41 -12 -80 -27 -87 -32 -6 -4 -38 -11 -70 -15 -50
-5 -54 -7 -28 -13 l30 -7 -30 0 c-16 -1 -52 3 -80 7 -29 5 -57 5 -67 0 -12 -6
-18 -6 -18 1 0 15 -40 12 -40 -2 -1 -7 -10 6 -20 29 -11 23 -25 45 -30 48 -16
10 -2 -39 37 -127 31 -71 46 -168 26 -168 -9 0 -82 148 -113 230 -12 30 -23
56 -25 58 -4 4 -135 -79 -135 -86 0 -2 15 -44 34 -91 18 -47 37 -100 40 -118
7 -31 7 -32 -38 -38 -51 -8 -76 -2 -76 18 0 9 9 12 28 9 53 -7 54 16 3 105
-55 98 -77 123 -106 123 -11 0 -27 6 -34 13 -11 10 -13 9 -8 -6 4 -10 3 -16
-2 -13 -15 10 -61 -34 -61 -59 0 -13 16 -53 35 -89 19 -37 35 -73 35 -81 0
-36 -102 -53 -126 -20 -8 10 -14 26 -13 34 0 11 4 9 11 -6 15 -31 35 -36 63
-15 27 19 32 32 12 32 -19 0 -77 120 -77 158 0 36 -14 42 -30 12 -7 -13 -21
-20 -40 -20 -23 0 -30 -5 -35 -30 -4 -16 -15 -32 -26 -35 -11 -4 -16 -11 -13
-17 5 -7 2 -8 -7 -3 -33 21 -59 50 -59 67 0 11 -4 16 -10 13 -19 -12 -10 -28
60 -99 88 -92 94 -121 24 -132 -47 -7 -94 6 -94 27 0 6 7 9 15 5 16 -6 65 12
65 24 0 4 -12 13 -27 21 -24 13 -96 95 -105 118 -2 6 -41 -2 -94 -20 l-91 -30
-2 -64 c-1 -36 2 -65 7 -65 13 0 25 -56 22 -106 -2 -60 -4 -70 -20 -89 -13
-16 -15 -16 -21 2 -6 14 -8 13 -8 -9 -1 -32 10 -35 50 -11 44 26 61 73 60 167
0 44 -4 100 -7 124 -9 64 13 52 26 -15 18 -86 9 -222 -17 -259 -24 -34 -91
-60 -172 -68 -55 -5 -55 -5 -102 44 -41 43 -58 52 -136 75 -144 43 -258 82
-377 129 -61 25 -153 61 -205 81 -99 37 -150 64 -188 98 l-23 20 -52 -24 c-51
-24 -88 -66 -88 -102 0 -23 82 -112 141 -151 25 -17 74 -50 108 -74 70 -49
330 -186 436 -230 39 -16 95 -41 125 -55 303 -139 841 -330 1204 -428 151 -40
149 -40 140 -49 -5 -5 -47 -2 -94 5 -47 8 -100 16 -118 18 -18 3 -56 12 -85
21 -29 9 -97 29 -152 45 -155 45 -462 155 -515 185 -14 7 -43 19 -65 26 -40
13 -528 228 -575 254 -14 8 -72 38 -130 68 -127 66 -325 196 -386 253 -24 23
-49 56 -55 73 -19 55 -34 41 -69 -65 -14 -40 -27 -68 -31 -62 -3 6 -9 -1 -11
-15 -3 -14 -1 -23 4 -20 5 3 8 -2 6 -11 -2 -10 3 -20 11 -23 9 -3 11 0 6 8 -6
9 -4 11 4 6 7 -5 10 -14 7 -21 -2 -7 2 -22 11 -34 l15 -22 -39 16 c-21 9 -42
20 -47 26 -13 12 -26 12 -26 -2 0 -5 16 -17 37 -25 43 -18 85 -45 80 -51 -3
-2 -21 6 -41 18 -50 29 -56 18 -9 -16 35 -25 227 -217 224 -223 -1 -1 5 -18
14 -38 9 -23 19 -33 26 -28 7 4 9 3 6 -3 -8 -13 65 -108 89 -117 25 -10 26 -2
5 23 -19 22 -48 146 -40 170 3 7 52 -19 124 -67 178 -117 401 -250 540 -321
54 -27 57 -31 30 -31 -16 0 -48 5 -70 11 -22 6 -74 13 -115 15 -120 7 -339 24
-385 31 l-42 5 -9 56 c-5 32 -15 57 -23 60 -10 3 -12 0 -8 -12 3 -8 9 -39 13
-68 7 -49 6 -52 -9 -39 -21 16 -24 110 -4 130 10 11 9 13 -6 8 -10 -4 -16 -3
-13 1 5 9 -72 88 -79 80 -4 -3 5 -17 18 -30 17 -17 28 -44 36 -90 17 -98 17
-98 -28 -98 -34 0 -39 3 -44 28 -46 207 -81 331 -103 363 -14 20 -60 66 -102
102 -42 36 -90 79 -106 96 -29 30 -29 31 -15 73 7 24 21 52 31 62 21 23 24 46
5 46 -10 0 -58 31 -140 90 -16 11 -19 11 -13 1 12 -19 -43 18 -79 54 -75 75
-119 104 -145 98 -66 -16 -115 -57 -124 -106 -4 -21 -11 -35 -16 -32 -13 8
-23 -40 -16 -76 9 -45 79 -113 165 -159 42 -22 103 -56 136 -76 44 -25 68 -34
90 -30 26 3 34 -1 48 -26 9 -16 21 -27 26 -24 5 4 19 -6 30 -20 12 -15 24 -24
27 -21 9 8 87 -47 111 -77 21 -26 48 -140 103 -436 10 -52 37 -174 60 -270 23
-96 55 -236 70 -310 15 -74 37 -174 49 -222 11 -49 25 -118 31 -155 6 -38 21
-111 35 -163 21 -84 43 -190 115 -570 41 -216 105 -520 118 -565 5 -16 8 -40
7 -52 -1 -14 3 -19 12 -16 26 10 19 -2 -120 -219 -34 -53 -67 -80 -53 -43 3 8
1 15 -4 15 -6 0 -10 -9 -10 -19 0 -11 -8 -22 -17 -24 -11 -3 -7 -5 10 -6 42
-2 22 -21 -21 -21 -47 0 -111 -30 -182 -82 -68 -51 -131 -111 -107 -102 9 3
17 2 17 -4 0 -14 -27 -23 -46 -15 -13 5 -15 1 -10 -18 3 -13 3 -18 0 -11 -8
17 -27 15 -21 -2 3 -8 -2 -16 -12 -19 -18 -4 -51 -58 -51 -84 0 -7 -4 -13 -10
-13 -5 0 -9 -3 -8 -7 1 -5 -11 -33 -25 -63 l-27 -55 -1 40 -1 40 -10 -40 c-5
-22 -7 -62 -4 -88 8 -72 37 -168 49 -160 6 3 7 1 3 -5 -7 -12 70 -251 109
-337 13 -27 33 -60 46 -71 35 -32 99 -63 140 -70 l36 -6 -15 -54 c-12 -42 -13
-59 -4 -79 11 -24 15 -25 108 -25 88 0 96 -2 89 -17 -25 -61 -25 -83 -4 -170
23 -98 48 -146 108 -215 61 -69 115 -92 206 -86 127 8 212 64 267 178 18 35
23 65 24 140 2 52 6 104 10 115 4 11 -25 -15 -66 -58 -40 -43 -75 -75 -78 -73
-12 12 144 190 159 181 4 -3 10 -1 14 5 3 5 16 15 28 21 17 9 15 4 -9 -20
l-30 -32 9 -72 c6 -40 11 -74 13 -76 7 -8 75 52 89 79 8 16 15 48 15 72 0 79
-46 73 583 77 555 3 564 3 610 -18 33 -15 66 -21 120 -21 l74 0 -14 -44 c-13
-39 -13 -53 1 -123 29 -140 109 -262 202 -309 29 -14 59 -19 114 -18 135 1
232 70 280 198 18 48 20 68 14 138 l-7 82 -46 -50 c-25 -28 -55 -57 -65 -65
-18 -14 -19 -13 -4 16 9 17 29 44 44 60 16 17 37 42 47 58 9 15 25 27 34 27 9
0 13 3 10 6 -4 4 9 15 28 25 48 26 52 24 15 -8 -32 -26 -32 -27 -25 -91 10
-93 12 -95 45 -70 36 26 50 65 50 139 0 53 2 59 20 59 32 0 73 25 98 60 23 30
23 32 5 47 -10 8 -12 12 -5 8 6 -3 12 -1 12 4 0 6 -21 11 -47 12 -27 1 -59 4
-73 8 -21 7 -17 9 30 18 l55 9 -85 7 c-47 3 -677 9 -1400 12 -1433 6 -1592 11
-1646 51 -17 13 -37 24 -45 24 -38 1 -78 60 -134 197 -24 59 -55 137 -70 172
-23 54 -26 75 -23 134 2 41 9 72 15 74 7 3 9 11 6 19 -3 8 1 14 11 14 10 0 13
5 9 17 -4 11 -3 14 5 9 7 -4 12 -3 12 1 0 14 77 93 90 93 6 0 45 27 86 60 95
79 139 97 260 110 54 6 154 18 221 26 68 8 143 14 168 14 43 0 47 -2 60 -33
27 -65 69 -69 315 -32 551 82 553 82 651 199 103 124 157 181 164 175 3 -4
-18 -30 -47 -58 l-53 -52 65 6 c108 11 371 44 430 56 30 5 64 10 75 10 10 0
25 5 32 10 6 6 17 8 23 4 10 -6 96 3 250 26 36 6 90 13 120 15 30 3 80 12 110
21 30 8 87 16 127 17 39 0 66 5 60 9 -7 4 9 7 35 5 25 -2 44 1 41 5 -2 4 7 5
21 1 14 -3 65 -1 113 5 81 11 117 17 261 43 l52 9 0 54 c0 58 7 65 63 65 18 0
47 4 65 9 32 10 33 9 30 -17 -3 -26 -7 -27 -75 -36 -63 -8 -73 -12 -73 -29 0
-18 5 -19 58 -13 80 9 124 34 135 77 5 19 14 37 20 41 17 11 -37 10 -108 -2
-33 -5 -154 -21 -270 -36 -115 -14 -237 -30 -270 -35 -33 -5 -98 -13 -145 -18
-47 -5 -146 -16 -220 -25 -154 -18 -390 -44 -500 -56 -80 -9 -337 -47 -382
-56 -16 -4 -28 -2 -28 3 0 9 67 23 185 38 162 21 165 22 165 56 0 29 -1 29
-42 23 -24 -3 -58 -10 -76 -14 -38 -10 -35 -16 -52 140 -6 58 -17 159 -25 225
-21 176 -22 169 23 160 20 -4 42 -11 49 -16 7 -7 14 -6 18 1 3 5 17 10 30 10
31 0 32 -1 70 -355 21 -185 24 -205 42 -205 8 0 45 5 84 11 52 9 69 16 69 28
-1 37 -14 42 -81 32 -35 -6 -66 -7 -70 -3 -6 7 -37 290 -47 425 l-4 68 78 -7
c44 -4 80 -8 82 -9 5 -4 52 -440 52 -484 0 -40 2 -43 23 -38 12 4 76 11 142
17 184 16 185 17 185 46 l0 26 -70 -7 c-56 -6 -70 -4 -70 6 0 8 -7 105 -16
217 -9 112 -15 204 -13 206 2 1 36 1 75 -2 l71 -4 17 -212 c10 -116 19 -220
21 -231 2 -24 37 -23 123 1 41 11 53 19 50 32 -2 9 -9 17 -16 16 -6 -1 -37 -2
-67 -2 -47 -2 -57 -5 -63 -23 -5 -14 -13 34 -20 132 -7 85 -15 184 -19 222
l-6 67 90 0 90 0 7 -92 c4 -51 11 -152 18 -224 l11 -132 31 9 c17 5 48 9 68 9
20 0 40 4 43 10 3 6 -1 7 -12 4 -10 -3 -6 2 10 11 56 32 17 39 -82 14 -19 -5
-36 -7 -38 -6 -1 2 -7 66 -13 142 -5 77 -12 166 -15 198 l-5 58 93 -3 92 -3
13 -195 c12 -184 12 -196 -5 -209 -16 -12 -15 -13 11 -7 15 4 42 10 60 13 17
3 37 10 44 16 8 6 12 6 12 -2 0 -12 57 -10 78 3 9 5 12 58 12 192 l0 184 74 0
c41 0 77 -4 80 -8 3 -5 6 -71 6 -148 1 -76 4 -152 7 -167 6 -28 7 -29 52 -22
25 3 55 9 66 12 18 5 18 6 -5 15 -20 7 -22 11 -10 18 25 16 -21 12 -52 -4
l-28 -15 0 159 0 159 86 -1 87 0 -5 -164 -5 -164 24 0 c14 0 26 7 29 18 3 9
11 26 17 37 8 15 28 270 21 283 -3 5 -207 11 -599 17 -225 4 -412 8 -415 10
-3 1 -102 5 -220 9 -118 4 -242 9 -275 11 -33 3 -184 10 -335 15 -151 5 -421
17 -600 25 -179 9 -385 18 -458 21 -97 5 -131 9 -123 17 6 6 11 34 11 62 l-1
50 -16 -30 c-16 -30 -129 -212 -252 -403 -65 -102 -85 -115 -61 -41 12 36 12
49 -9 149 -6 28 -6 49 0 55 6 5 9 2 9 -10 0 -11 7 -51 17 -89 15 -62 18 -67
30 -50 11 15 12 42 7 122 -5 73 -4 102 5 102 6 0 11 -16 11 -38 0 -20 4 -52
10 -71 6 -23 6 -40 -1 -55 -10 -19 -10 -19 4 -6 8 8 28 41 45 74 26 50 30 66
25 107 -4 33 -2 49 6 49 6 0 11 -17 11 -42 l0 -43 20 33 c11 18 27 35 35 38
44 17 -3 24 -164 24 l-179 0 35 -101 c19 -56 34 -115 35 -132 0 -18 8 -72 18
-122 10 -49 21 -126 25 -170 12 -145 52 -360 77 -407 6 -13 5 -18 -7 -18 -8 0
-15 7 -15 16 0 8 -4 13 -9 10 -10 -6 -49 148 -66 264 -22 150 -66 393 -85 475
-26 111 -38 172 -45 225 -3 25 -10 54 -15 65 -8 19 -24 73 -57 195 -56 208
-90 346 -98 405 l-6 40 20 -45 c11 -25 20 -57 20 -72 1 -15 7 -47 15 -70 51
-156 79 -256 96 -343 l20 -100 -5 75 c-7 92 -43 255 -100 455 -77 264 -103
367 -130 510 -25 134 -60 279 -90 375 -7 25 -17 60 -20 78 -6 28 -4 32 13 32
24 0 33 -27 92 -275 48 -201 50 -179 5 59 -40 213 -40 206 -20 206 19 0 30
-45 55 -220 12 -80 30 -196 42 -257 21 -113 21 -113 49 -113 28 0 29 1 23 48
-3 26 -10 71 -15 101 -5 30 -9 71 -9 92 0 21 -4 39 -10 41 -5 2 -12 23 -15 48
-3 25 -9 79 -15 120 -19 161 0 126 24 -43 4 -27 10 -47 12 -44 3 2 -2 49 -11
102 -8 54 -13 100 -11 102 8 8 176 -9 171 -17 -9 -14 38 -531 52 -566 6 -16 0
-17 -63 -11 -38 3 -90 9 -116 13 -43 6 -48 5 -49 -12 -1 -11 -6 1 -11 24 -5
24 -12 42 -14 39 -4 -4 72 -362 92 -434 3 -13 13 -23 21 -23 13 0 15 14 9 93
-4 50 -11 133 -17 184 -6 50 -9 97 -7 105 5 14 23 -103 33 -207 11 -123 18
-165 27 -171 5 -3 11 -4 12 -3 5 6 -11 132 -32 263 l-19 118 51 -6 c28 -3 59
-6 68 -6 9 0 17 -8 16 -17 0 -10 5 -80 11 -155 9 -100 9 -143 1 -158 -16 -29
4 -46 63 -52 34 -4 47 -2 47 7 0 57 -118 783 -150 922 -13 53 -13 53 4 53 14
0 24 -41 46 -205 11 -80 27 -159 29 -140 0 6 -8 71 -19 145 -11 74 -20 150
-20 168 l0 33 53 -7 c98 -13 88 7 126 -263 18 -132 31 -250 28 -261 -3 -11 -1
-20 4 -20 5 0 9 -9 9 -20 0 -13 7 -20 19 -20 17 0 18 5 9 48 -5 26 -13 74 -18
107 -5 33 -20 126 -34 207 -26 150 -33 226 -17 198 5 -8 14 -44 20 -80 23
-130 60 -367 67 -427 l7 -63 56 2 56 2 -50 3 -50 4 -38 272 c-21 150 -38 278
-37 285 0 13 47 16 96 6 l29 -6 29 -176 c16 -97 37 -215 48 -261 11 -46 17
-90 14 -98 -3 -8 -1 -11 4 -8 6 3 10 -1 10 -9 0 -8 5 -18 11 -22 14 -8 6 55
-17 144 -13 49 -74 383 -74 405 0 4 4 7 9 7 11 0 31 -91 57 -255 9 -60 27
-154 39 -209 20 -92 23 -97 38 -81 12 12 17 13 17 3 0 -9 19 -14 67 -15 37 -1
78 -5 90 -8 20 -5 23 -2 19 17 -3 13 -15 79 -26 148 -30 175 -60 341 -65 366
-5 20 -3 21 30 10 43 -15 60 -31 23 -22 -34 8 -34 13 -4 -144 13 -69 32 -182
41 -252 10 -70 22 -125 26 -122 5 3 9 1 9 -5 0 -5 10 -12 23 -14 23 -5 -148 1
-218 8 -108 10 -446 27 -451 22 -3 -3 4 -67 15 -144 11 -76 23 -162 26 -190 7
-53 7 -53 43 -55 40 -1 72 -1 86 1 5 0 6 29 3 64 -3 36 -1 54 3 42 5 -11 9
-41 9 -67 1 -42 4 -48 22 -48 24 0 23 6 -11 245 -16 112 -15 177 2 110 13 -56
48 -290 48 -326 0 -36 0 -36 53 -43 28 -3 73 -6 100 -6 26 0 47 -4 47 -9 0 -9
-71 -6 -310 14 -91 8 -215 17 -276 21 l-112 7 23 -99 c46 -204 95 -440 95
-461 0 -21 5 -23 54 -23 l54 0 -8 33 c-45 174 -90 365 -90 380 0 10 5 15 10
12 15 -9 75 -131 90 -182 13 -43 13 -43 62 -43 45 0 48 2 43 23 -7 30 -45 294
-45 313 0 31 19 2 25 -39 36 -240 49 -297 67 -297 10 0 18 7 18 18 0 29 -40
265 -50 295 -8 23 -6 27 10 27 10 0 21 -4 24 -8 3 -5 12 -73 21 -153 9 -79 20
-155 24 -169 l9 -26 -96 4 -95 5 7 -24 c3 -13 12 -57 18 -96 l13 -73 44 0 44
0 -7 53 c-4 28 -10 70 -13 92 -4 30 -3 37 6 29 6 -6 19 -50 28 -97 11 -57 22
-87 30 -87 10 0 12 16 7 73 -3 39 -7 77 -9 84 -2 6 2 13 8 16 8 3 11 -8 9 -38
-2 -24 1 -52 7 -62 9 -16 10 -14 11 11 0 43 13 22 20 -32 l5 -47 43 71 c23 39
42 81 42 95 0 22 -39 256 -56 332 -3 16 -1 27 5 27 6 0 11 -6 11 -13 0 -9 19
-11 76 -9 57 3 79 1 85 -9 12 -19 11 -122 -1 -114 -5 3 -7 12 -4 20 10 26 -15
54 -54 60 -20 3 -49 8 -64 10 -25 4 -28 1 -28 -24 0 -16 9 -73 21 -127 12 -57
21 -138 22 -191 0 -51 4 -93 8 -93 5 0 6 -6 3 -14 -6 -15 16 -23 66 -22 28 1
35 6 40 26 7 25 7 25 11 2 2 -12 9 -24 14 -25 6 -1 10 39 11 103 1 72 -1 97
-7 81 -5 -13 -12 -22 -14 -19 -3 3 -1 17 4 32 7 17 7 26 1 26 -16 0 -21 -69
-7 -88 7 -9 6 -18 -5 -28 -14 -14 -16 -11 -27 31 -10 39 -9 50 2 64 7 9 23 35
34 58 l20 42 12 -72 c21 -120 33 -191 37 -214 3 -13 11 -23 19 -23 16 0 16 11
-11 160 -8 41 -28 161 -45 265 -17 105 -45 263 -63 353 -18 89 -30 162 -26
162 11 0 28 -71 55 -234 14 -82 25 -150 25 -151 0 -1 24 -2 52 -4 69 -3 76
-11 10 -11 l-52 0 1 -32 c2 -42 16 -101 18 -73 1 24 28 65 42 65 5 0 9 -10 8
-22 0 -22 -1 -22 -9 -3 -9 22 -11 20 -15 -11 -2 -22 9 -25 33 -11 19 13 15
-21 -9 -60 -16 -25 -19 -42 -15 -68 8 -42 26 -56 26 -21 0 22 27 93 40 106 3
3 12 18 20 34 l15 29 8 -59 c46 -353 63 -441 82 -423 3 3 -9 112 -25 243 -17
130 -30 245 -30 255 0 16 7 17 53 13 28 -3 55 -10 59 -16 5 -8 8 -7 8 2 0 6 7
12 15 12 17 0 18 -5 6 -29 -6 -10 -6 -23 0 -32 7 -11 9 -8 10 11 1 23 2 22 16
-10 11 -26 62 -392 63 -452 0 -5 7 -8 15 -8 14 0 15 10 10 63 -9 85 -44 397
-49 425 -3 20 1 22 38 21 22 0 35 -3 29 -6 -7 -2 -13 -11 -13 -19 0 -13 7 -16
27 -13 3 0 10 -6 15 -15 5 -9 14 -13 20 -10 6 4 14 0 19 -7 6 -10 9 -11 9 -1
0 25 20 11 21 -15 1 -21 3 -18 8 12 l7 40 7 -55 c4 -30 17 -139 29 -242 16
-136 26 -188 35 -188 16 0 16 -7 -3 165 -20 184 -29 352 -18 342 8 -8 9 -10
20 -99 4 -32 10 -58 13 -58 4 0 6 -19 4 -42 -2 -39 -1 -40 6 -13 5 17 9 48 10
69 1 40 14 41 24 1 3 -13 6 -8 7 15 l3 35 8 -35 c7 -33 7 -32 6 13 -1 30 2 47
9 47 7 0 10 -9 6 -22 -3 -14 -2 -19 6 -14 7 4 12 1 12 -6 0 -7 9 -98 20 -203
11 -104 20 -191 20 -192 0 -2 7 -3 15 -3 18 0 17 9 -16 310 -22 203 -21 193
-10 186 4 -3 14 -33 21 -66 7 -33 18 -59 23 -57 15 5 47 -24 40 -36 -3 -6 -1
-7 6 -3 6 4 9 10 7 14 -2 4 7 15 20 25 23 17 24 17 24 -2 0 -10 4 -21 9 -23 5
-1 11 -34 15 -73 9 -113 31 -274 39 -281 13 -13 14 1 6 71 -4 39 -8 94 -8 123
-1 49 0 52 24 52 27 0 49 -27 61 -73 10 -42 30 -27 26 20 -2 30 1 42 13 47 10
3 14 13 11 23 -3 10 -8 52 -11 93 -4 56 -2 71 6 57 9 -15 42 -263 51 -382 2
-26 8 -41 19 -43 13 -2 14 10 3 115 -6 65 -15 165 -18 223 l-7 105 21 -24 c11
-13 23 -41 26 -62 4 -22 10 -39 15 -39 5 0 9 -7 9 -15 0 -8 -9 -15 -20 -15
-14 0 -18 -5 -13 -16 5 -13 7 -13 14 -2 7 10 9 10 9 1 0 -7 6 -13 14 -13 8 0
24 -12 35 -27 19 -27 20 -27 21 -6 0 21 36 51 46 40 5 -5 33 -224 34 -259 0
-10 5 -18 11 -18 8 0 9 17 5 53 -3 28 -8 114 -12 190 -7 152 -1 166 49 106 30
-36 26 -59 -12 -60 -23 -1 -22 -2 9 -9 18 -5 40 -16 47 -26 12 -16 13 -16 13
-1 0 9 7 17 15 17 8 0 15 5 15 10 0 6 -6 10 -14 10 -12 0 -26 20 -26 36 0 12
19 1 23 -13 3 -10 5 0 6 22 1 32 5 41 20 42 16 1 19 -14 30 -180 14 -197 15
-207 31 -207 13 0 12 37 -5 255 -8 98 -12 181 -10 184 3 2 5 -7 5 -21 0 -33
27 -58 41 -37 7 12 9 12 9 -2 0 -11 7 -14 29 -11 20 3 34 -2 48 -18 17 -18 21
-19 26 -6 4 9 18 16 35 16 40 0 145 29 153 42 5 8 10 3 13 -13 5 -24 26 -322
26 -371 0 -16 5 -28 10 -28 11 0 12 120 2 303 -4 66 -5 122 -2 126 3 4 41 4
85 0 44 -4 128 -10 186 -14 l107 -7 7 -209 c4 -127 11 -209 17 -209 6 0 9 75
7 211 l-4 211 50 -6 c28 -3 67 -6 88 -6 l37 0 0 -77 c0 -43 3 -136 7 -207 10
-193 25 -122 21 98 l-3 180 55 -3 c30 -1 71 -6 90 -10 l35 -7 -4 -192 c-3
-172 -2 -192 13 -192 14 0 16 21 16 196 0 107 4 193 8 190 5 -3 8 -91 8 -196
-2 -165 0 -190 14 -190 13 0 15 25 15 188 0 154 3 189 15 199 12 10 9 13 -20
14 -19 1 -48 3 -65 4 -112 13 -272 26 -400 35 -162 11 -246 19 -920 80 -242
22 -597 51 -790 65 -510 36 -514 36 -521 46 -5 9 7 12 42 10 23 -2 23 -17 -9
259 -8 63 -12 117 -10 119 11 14 23 -28 36 -134 11 -83 20 -123 31 -131 20
-14 20 -60 2 -96 l-15 -28 63 0 62 0 1 50 c0 27 -2 48 -6 46 -3 -2 -4 21 -2
52 4 55 5 54 18 -48 7 -57 19 -108 26 -112 8 -5 13 -1 15 11 3 18 -34 304 -45
350 -4 15 -2 22 4 18 6 -4 21 -75 34 -159 18 -115 26 -145 31 -122 4 17 6 4 3
-34 -3 -63 -3 -64 20 -58 13 3 27 2 30 -4 3 -5 31 -10 61 -10 34 0 53 4 49 10
-3 6 -2 10 4 10 5 0 11 -4 13 -9 2 -5 45 -12 96 -16 l92 -8 0 44 c0 24 -7 105
-14 179 -14 127 -15 169 -3 118 3 -13 13 -90 22 -173 10 -82 19 -155 20 -161
2 -6 70 -15 165 -23 89 -7 169 -15 177 -18 14 -6 15 7 11 103 l-6 109 10 -95
c5 -52 11 -100 13 -106 2 -6 64 -16 152 -23 263 -23 251 -22 256 -3 4 16 5 16
6 0 1 -21 18 -24 206 -38 77 -6 148 -13 157 -16 14 -4 18 3 21 38 l4 43 1 -42
c2 -42 3 -43 37 -43 24 0 45 8 65 26 27 25 41 33 118 75 18 9 38 22 45 27 7 5
29 15 49 21 21 7 42 20 47 28 6 11 11 -22 16 -95 4 -62 12 -115 18 -119 7 -4
9 43 5 153 -3 87 -3 147 -1 132 4 -24 6 -25 36 -17 18 4 41 8 52 8 11 -1 34 2
51 6 l31 7 6 -99 c4 -54 7 -119 7 -145 0 -29 5 -48 11 -48 8 0 9 41 4 147 l-7
146 47 -6 c26 -4 70 -7 96 -7 l49 0 0 -150 c0 -127 2 -150 15 -150 11 0 15 12
16 43 1 23 5 89 9 147 l7 105 1 -147 c1 -86 6 -148 12 -148 16 0 22 66 16 174
-5 90 -3 107 11 114 14 9 -28 16 -222 37 -123 14 -314 37 -413 50 -62 8 -177
22 -255 30 -78 9 -209 24 -292 35 -395 51 -853 102 -1125 125 -96 8 -196 18
-222 21 l-48 6 0 47 c0 25 -9 110 -20 187 -24 175 -35 328 -20 299 5 -11 23
-130 40 -264 28 -232 36 -268 57 -260 9 4 -14 171 -53 387 -21 120 -13 133 21
35 2 -7 11 -10 19 -7 23 9 28 -13 10 -42 -16 -24 -17 -36 -6 -133 23 -203 32
-241 56 -242 11 0 98 -8 191 -18 94 -10 173 -15 177 -11 8 6 -22 287 -47 434
-8 49 -13 91 -10 94 8 8 26 -105 56 -349 l23 -185 115 -13 c64 -7 146 -15 183
-18 64 -5 66 -5 71 18 4 24 4 24 6 1 0 -12 7 -25 14 -27 15 -5 258 -33 347
-39 36 -3 130 -14 210 -25 246 -33 238 -33 243 -13 4 13 5 14 6 2 1 -13 36
-21 174 -39 385 -52 527 -63 527 -41 0 6 -12 10 -28 10 -15 0 -74 14 -132 31
-58 17 -110 31 -117 32 -14 1 -23 67 -8 67 6 0 71 -13 145 -30 132 -29 210
-37 210 -22 -1 18 -328 101 -349 87 -13 -7 -19 56 -21 193 0 67 -4 130 -7 139
-4 11 -3 14 5 9 7 -4 12 -27 12 -51 l0 -43 63 -11 c97 -18 237 -26 237 -13 0
14 -50 29 -145 42 -136 18 -145 20 -145 35 0 12 21 14 130 9 90 -4 130 -2 130
5 0 6 -10 12 -22 12 -18 1 -17 3 6 8 16 3 55 4 85 1 l56 -5 5 -160 c3 -88 3
-162 0 -165 -3 -3 -6 -52 -5 -110 0 -87 3 -105 15 -105 13 0 16 39 20 270 l5
270 3 -272 c2 -235 4 -273 17 -273 13 0 15 35 15 259 0 213 3 262 14 274 13
13 -2 17 -122 35 -75 12 -216 30 -312 41 -96 12 -310 37 -475 56 -165 20 -381
45 -480 55 -99 10 -272 30 -385 44 -306 37 -1112 123 -1375 146 -60 6 -211 21
-335 35 -124 14 -265 29 -315 33 -70 5 -90 10 -93 23 -2 12 4 15 25 12 98 -12
531 -58 828 -88 418 -42 499 -50 715 -75 91 -11 217 -24 280 -30 117 -11 152
-15 435 -49 88 -11 207 -25 265 -31 58 -6 204 -22 325 -36 369 -41 717 -75
729 -71 6 2 -14 7 -44 11 -88 12 -278 44 -365 61 -168 34 -469 79 -650 96 -66
6 -169 17 -229 24 -103 11 -109 11 -114 -7 -8 -33 -22 -19 -23 25 -3 119 14
833 27 1085 l6 123 30 15 31 16 -7 -38 c-16 -88 -19 -193 -6 -209 8 -10 9 -15
1 -15 -6 0 -11 -9 -11 -20 0 -18 3 -19 20 -10 11 6 25 8 30 5 6 -3 7 1 4 9 -3
9 -10 14 -14 11 -4 -3 -10 2 -14 10 -7 19 8 19 27 0 12 -11 17 -12 21 -2 3 6
4 -1 1 -18 -4 -20 -3 -25 3 -16 8 11 10 11 15 0 4 -9 6 -10 6 -2 1 7 7 11 14
9 6 -1 9 -1 5 1 -5 3 -8 12 -9 21 0 14 -2 13 -9 -3 -6 -14 -9 -15 -10 -5 -1 8
-3 29 -5 45 -1 17 -1 24 2 17 4 -10 8 -10 19 -1 11 9 15 8 20 -6 6 -13 9 -14
16 -3 7 9 8 5 4 -12 -5 -24 -4 -24 9 -6 11 14 15 16 15 5 0 -12 2 -12 10 1 8
13 10 12 10 -4 0 -20 0 -20 16 0 15 19 15 18 9 -3 -3 -12 -1 -25 6 -29 7 -4 9
-3 6 4 -10 15 3 42 17 36 26 -10 86 -10 86 0 0 6 5 4 10 -4 5 -8 10 -10 10 -4
0 5 12 15 28 21 27 11 26 11 -8 7 -19 -1 -64 6 -100 17 -60 18 -62 19 -20 15
25 -3 60 -8 78 -12 21 -4 32 -3 32 5 0 6 -9 11 -19 11 -47 0 -241 56 -241 70
0 3 23 11 51 16 46 10 50 9 46 -6 -4 -14 6 -20 47 -30 28 -6 67 -12 86 -13
l35 -2 0 60 c0 78 -27 140 -64 150 -14 3 -53 12 -86 20 l-60 13 52 1 c28 1 63
5 78 11 20 8 24 7 19 -3 -4 -6 1 -4 12 5 11 10 41 27 67 38 26 12 45 25 42 30
-3 6 0 7 8 4 8 -3 18 0 22 6 9 15 5 17 -20 12z m-275 -177 c0 -8 -4 -15 -10
-15 -5 0 -10 7 -10 15 0 8 5 15 10 15 6 0 10 -7 10 -15z m95 2 c18 -4 25 -18
8 -16 -4 0 -10 -8 -14 -18 -7 -16 -8 -15 -8 5 -1 15 -7 22 -20 22 -11 0 -21
-3 -24 -7 -2 -5 -2 -2 -1 5 2 6 -1 12 -6 12 -5 0 -11 -8 -13 -17 -3 -13 -5
-12 -6 5 -1 25 2 25 84 9z m75 -26 c0 -12 -20 -36 -20 -24 0 6 -3 19 -6 27 -5
12 -2 15 10 10 9 -3 16 -9 16 -13z m-130 -15 c0 -2 -7 -6 -15 -10 -8 -3 -15
-1 -15 4 0 6 7 10 15 10 8 0 15 -2 15 -4z m-2449 -75 c0 -3 2 -17 5 -30 4 -24
4 -24 -16 -6 -11 10 -20 15 -20 11 0 -4 12 -18 28 -31 15 -13 21 -25 14 -25
-7 0 -10 -5 -6 -11 4 -8 1 -8 -13 -1 -24 13 -49 42 -36 42 14 0 9 35 -8 57
-13 16 -13 17 4 4 20 -15 23 -2 5 18 -7 8 -1 6 15 -4 15 -9 27 -20 28 -24z
m2507 32 c-10 -2 -26 -2 -35 0 -10 3 -2 5 17 5 19 0 27 -2 18 -5z m-976 -15
c-9 -9 -15 -9 -24 0 -9 9 -7 12 12 12 19 0 21 -3 12 -12z m898 2 c0 -5 -7 -10
-15 -10 -8 0 -15 5 -15 10 0 6 7 10 15 10 8 0 15 -4 15 -10z m-2360 -49 c0 12
2 12 10 -1 5 -8 10 -11 10 -6 0 5 6 3 13 -3 8 -6 18 -7 22 -3 5 4 5 1 1 -5 -4
-8 -2 -13 5 -13 7 0 9 -3 6 -7 -4 -3 -17 2 -29 13 l-23 19 19 -22 c21 -25 46
-30 46 -10 0 7 3 8 8 2 7 -10 27 -17 49 -18 7 0 10 -4 7 -9 -3 -4 1 -8 8 -8 8
0 29 -11 48 -25 19 -14 28 -25 20 -25 -7 0 -10 -3 -6 -7 4 -5 14 1 22 11 14
20 14 20 15 0 0 -10 3 -13 6 -6 2 6 9 12 14 12 4 0 5 -7 2 -17 -4 -10 -2 -14
4 -10 5 3 10 0 10 -8 0 -8 -2 -13 -5 -10 -2 2 -13 -6 -23 -18 -20 -24 -25 -17
-9 12 7 14 6 18 -8 18 -36 0 -44 3 -39 17 3 8 -1 17 -10 20 -9 4 -17 -1 -20
-13 -3 -13 -11 -17 -24 -14 -10 3 -17 9 -14 13 3 5 2 11 -2 13 -5 3 -9 -9 -9
-26 -1 -18 1 -26 3 -19 7 18 30 15 38 -5 6 -17 7 -17 21 1 8 11 14 14 14 8 0
-18 -60 -51 -78 -44 -13 5 -12 7 4 13 15 6 15 8 3 8 -9 1 -24 -9 -33 -21 -15
-23 -16 -23 -6 5 12 35 12 37 -1 37 -5 0 -7 -4 -4 -10 10 -16 -5 -12 -23 7
-16 16 -16 16 1 10 9 -3 17 -2 17 4 0 6 4 8 9 5 4 -3 6 6 3 21 -3 16 -1 24 5
20 6 -4 17 1 24 11 13 16 13 16 -5 2 -18 -14 -18 -13 -12 10 5 17 4 21 -2 11
-8 -11 -11 -11 -16 0 -3 8 -3 3 0 -10 4 -14 2 -21 -3 -18 -6 4 -8 -4 -5 -18 3
-18 0 -25 -11 -25 -8 0 -22 -10 -31 -22 -12 -19 -14 -19 -9 -4 5 16 3 18 -12
13 -16 -7 -16 -5 -4 10 12 15 12 16 -4 10 -11 -4 -16 -3 -12 3 6 9 -10 14 -42
13 -7 -1 -10 3 -7 8 3 5 -4 9 -14 9 -11 0 -26 8 -33 18 -13 15 -12 16 3 4 9
-8 25 -12 34 -10 20 4 28 39 11 50 -9 6 -9 8 1 8 8 0 10 5 6 12 -5 7 -9 21 -9
31 -1 14 3 13 27 -10 18 -18 28 -22 28 -12z m-126 13 c3 -8 2 -12 -4 -9 -6 3
-10 10 -10 16 0 14 7 11 14 -7z m2562 6 c15 -6 25 -13 22 -15 -3 -3 -20 1 -39
9 -38 17 -25 21 17 6z m-2236 -62 c0 -5 -13 -2 -30 7 -16 9 -30 17 -30 19 0 3
14 -1 30 -7 17 -6 30 -15 30 -19z m1042 2 c5 -62 4 -80 -6 -80 -7 0 -11 20
-11 50 0 48 13 72 17 30z m1035 14 c-3 -3 -12 -4 -19 -1 -8 3 -5 6 6 6 11 1
17 -2 13 -5z m43 -14 c8 -5 11 -10 5 -10 -5 0 -17 5 -25 10 -8 5 -10 10 -5 10
6 0 17 -5 25 -10z m-630 -14 c0 -3 -4 -8 -10 -11 -5 -3 -10 -1 -10 4 0 6 5 11
10 11 6 0 10 -2 10 -4z m-1390 -38 c0 -4 -11 -2 -25 4 -14 6 -25 15 -25 19 0
4 11 2 25 -4 14 -7 25 -15 25 -19z m1357 10 c-3 -8 -6 -5 -6 6 -1 11 2 17 5
13 3 -3 4 -12 1 -19z m123 2 c-12 -8 -12 -10 -1 -10 8 0 12 -3 8 -6 -9 -9 -28
6 -22 17 4 5 12 9 18 9 7 0 6 -4 -3 -10z m51 -13 c-10 -9 -11 -8 -5 6 3 10 9
15 12 12 3 -3 0 -11 -7 -18z m395 7 c-4 -11 -2 -15 8 -11 18 7 30 -23 15 -37
-9 -8 -10 -6 -6 7 5 13 3 16 -5 10 -18 -10 -48 -11 -48 -1 0 4 8 8 18 9 14 0
14 2 -3 9 -17 7 -17 9 -2 9 9 1 17 6 17 11 0 6 3 10 6 10 3 0 3 -7 0 -16z
m-701 -12 c-3 -3 -11 0 -18 7 -9 10 -8 11 6 5 10 -3 15 -9 12 -12z m218 3 c-3
-9 -8 -14 -10 -11 -3 3 -2 9 2 15 9 16 15 13 8 -4z m-1383 -11 c22 -9 40 -21
40 -26 0 -7 -4 -7 -12 0 -7 5 -28 13 -45 17 -18 3 -33 11 -33 16 0 12 3 12 50
-7z m930 4 c0 -4 -7 -8 -15 -8 -8 0 -15 4 -15 8 0 5 7 9 15 9 8 0 15 -4 15 -9z
m155 -12 c0 -13 -3 -22 -7 -19 -5 2 -8 -2 -8 -9 0 -9 -3 -9 -10 2 -5 8 -9 22
-9 30 0 10 3 8 8 -4 7 -19 8 -19 13 2 8 29 13 28 13 -2z m488 -1 c-3 -9 -8
-14 -10 -11 -3 3 -2 9 2 15 9 16 15 13 8 -4z m-1753 -32 c-11 -17 -11 -17 -6
0 3 10 6 24 7 30 0 9 2 9 5 0 3 -7 0 -20 -6 -30z m1222 23 c11 -16 10 -28 -2
-21 -6 4 -8 -6 -6 -25 l4 -31 -22 23 c-11 12 -19 30 -18 40 2 10 -2 18 -8 18
-6 0 -8 -5 -4 -12 4 -6 3 -8 -4 -4 -6 3 -15 -2 -21 -11 -6 -10 -11 -13 -11 -6
0 6 5 15 10 18 6 4 8 10 6 14 -8 12 69 10 76 -3z m224 -12 c3 -13 11 -24 17
-24 6 0 8 -2 5 -5 -10 -10 -37 7 -32 20 3 7 -2 12 -13 12 -39 0 -48 3 -36 11
27 17 53 11 59 -14z m35 8 c-7 -2 -18 1 -23 6 -8 8 -4 9 13 5 13 -4 18 -8 10
-11z m-375 -1 c-4 -5 -2 -11 3 -13 5 -1 3 -8 -4 -15 -10 -9 -12 -6 -12 13 0
13 4 24 9 24 5 0 7 -4 4 -9z m-1653 -38 c-3 -7 -6 -13 -7 -11 -1 2 -10 14 -21
26 l-20 24 27 -12 c16 -8 24 -18 21 -27z m690 24 c-4 -6 0 -8 9 -4 23 8 41
-13 26 -30 -9 -11 -8 -13 3 -11 8 2 17 8 21 13 5 6 8 4 8 -5 0 -13 1 -13 10 0
8 12 10 11 10 -7 0 -20 -3 -21 -25 -13 -19 7 -28 5 -41 -8 -17 -16 -17 -16
-11 8 6 23 5 24 -8 6 -7 -10 -18 -15 -24 -11 -6 3 -11 1 -11 -4 0 -6 7 -11 15
-11 21 0 19 -30 -2 -31 -15 0 -15 -2 2 -9 18 -8 18 -9 -5 -10 -14 -1 -19 -4
-12 -7 6 -2 12 -14 12 -25 0 -24 -24 -19 -29 7 -5 27 -28 48 -35 32 -3 -6 -5
-3 -3 8 2 17 9 20 42 17 28 -2 36 0 25 7 -8 5 -18 7 -22 5 -4 -3 -5 3 -2 13 4
14 3 15 -4 4 -7 -10 -11 -10 -17 -1 -4 7 0 19 10 28 10 10 15 12 11 5 -3 -6
-2 -14 3 -17 8 -5 26 39 23 55 0 3 5 6 13 6 8 0 11 -5 8 -10z m937 2 c0 -5 -5
-7 -10 -4 -6 4 -9 -3 -6 -17 3 -17 9 -22 27 -21 21 2 22 1 6 -8 -9 -5 -22 -7
-27 -4 -6 3 -10 1 -10 -4 0 -14 11 -14 47 0 23 8 26 8 16 -2 -7 -7 -13 -22
-13 -33 1 -19 2 -19 15 4 8 14 14 19 15 12 0 -7 5 -10 12 -6 7 4 8 3 4 -5 -4
-6 -12 -8 -18 -5 -8 5 -9 1 -4 -12 4 -10 4 -15 0 -12 -4 4 -15 3 -25 -2 -12
-7 -20 -7 -24 0 -3 5 -12 10 -18 10 -8 0 -8 -3 2 -9 9 -6 10 -11 2 -15 -10 -7
-16 6 -12 27 1 5 -9 6 -21 2 -18 -5 -20 -4 -8 4 13 10 13 11 0 11 -13 0 -13 1
0 10 8 5 11 10 5 10 -5 0 -3 5 5 10 13 9 13 11 0 20 -8 5 -10 10 -3 10 6 0 9
9 6 20 -4 15 0 20 16 20 11 0 21 -5 21 -11z m244 -4 c3 -9 -1 -18 -9 -21 -8
-4 -12 -10 -9 -15 3 -5 0 -9 -5 -9 -6 0 -11 6 -11 13 0 9 -2 9 -9 -1 -6 -11
-9 -9 -13 5 -4 15 0 19 16 19 12 -1 20 5 19 12 -4 17 14 15 21 -3z m256 4
c-12 -9 -10 -10 9 -5 16 3 21 2 14 -5 -6 -6 -23 -7 -39 -3 -25 6 -26 8 -9 15
29 11 42 10 25 -2z m84 -4 c3 -8 0 -14 -7 -12 -8 1 -11 -11 -10 -38 1 -22 -1
-32 -3 -22 -3 9 -10 15 -15 12 -5 -3 -6 1 -2 10 3 10 0 21 -8 26 -11 7 -10 9
4 9 10 0 20 7 23 15 8 19 10 19 18 0z m-1404 -5 c0 -5 -2 -10 -4 -10 -3 0 -8
5 -11 10 -3 6 -1 10 4 10 6 0 11 -4 11 -10z m1127 3 c-4 -3 1 -12 11 -19 16
-12 16 -13 0 -19 -10 -4 -15 -11 -12 -16 3 -5 0 -9 -5 -9 -6 0 -11 5 -11 11 0
5 -4 8 -9 4 -5 -3 -12 -1 -16 5 -4 6 -12 7 -18 4 -8 -4 -7 -2 1 7 10 11 14 11
21 1 5 -9 11 -5 19 13 6 14 15 25 18 25 4 0 4 -3 1 -7z m100 1 c-3 -3 -12 -4
-19 -1 -8 3 -5 6 6 6 11 1 17 -2 13 -5z m38 -4 c-3 -5 4 -11 17 -11 l23 -2
-22 -4 c-13 -2 -23 -9 -23 -14 0 -6 5 -7 10 -4 6 3 10 1 10 -5 0 -7 -6 -10
-14 -7 -8 3 -17 3 -19 -1 -2 -4 -2 -1 -1 6 2 6 -3 12 -11 12 -8 0 -15 4 -15 9
0 5 10 7 23 5 12 -2 16 -1 8 2 -11 5 -11 8 0 15 18 11 22 11 14 -1z m166 -13
c-10 -9 -11 -8 -5 6 3 10 9 15 12 12 3 -3 0 -11 -7 -18z m78 20 c-2 -2 -11 -8
-20 -15 -12 -9 -16 -9 -16 1 0 7 9 14 20 14 11 1 18 1 16 0z m-2090 -44 c31
-21 63 -42 72 -48 9 -5 40 -26 70 -46 204 -136 290 -186 530 -303 357 -175
852 -357 1224 -451 217 -55 215 -54 215 -66 0 -20 -318 33 -420 70 -14 5 -72
26 -130 47 -58 20 -109 40 -115 44 -5 4 -28 13 -50 20 -50 16 -322 126 -475
192 -235 102 -592 287 -659 340 -9 7 -32 22 -51 32 -19 11 -48 30 -63 43 -16
13 -35 23 -43 23 -8 0 -14 5 -14 10 0 6 -7 10 -15 10 -17 0 -95 40 -80 41 6 0
1 4 -10 9 -20 8 -63 70 -49 70 4 0 32 -17 63 -37z m376 19 c-3 -8 1 -25 9 -36
12 -20 12 -22 -6 -23 -14 -1 -18 3 -13 16 3 11 0 21 -9 24 -15 6 -34 -29 -22
-40 3 -4 6 1 6 10 0 10 5 17 10 17 7 0 7 -6 0 -19 -14 -27 -13 -51 1 -31 8 12
10 12 7 1 -2 -8 -12 -15 -21 -17 -9 -1 -15 2 -12 6 7 11 -5 60 -14 60 -4 0 -7
-9 -7 -19 0 -11 4 -17 8 -15 4 3 8 1 8 -5 0 -5 -9 -9 -19 -8 -16 1 -18 5 -10
19 6 12 6 18 -1 18 -5 0 -10 -4 -10 -10 0 -5 -5 -10 -11 -10 -19 0 3 22 38 36
18 8 36 20 39 28 3 7 12 13 20 13 9 0 13 -6 9 -15z m-584 -19 c-8 -15 -10 -15
-11 -2 0 17 10 32 18 25 2 -3 -1 -13 -7 -23z m845 14 c4 -4 0 -7 -9 -7 -10 0
-17 -8 -17 -17 0 -15 2 -16 10 -3 8 13 10 12 10 -3 0 -12 4 -16 13 -11 9 6 9
4 1 -7 -18 -23 -13 -46 9 -45 11 1 22 -6 24 -14 4 -13 3 -13 -6 0 -6 9 -11 10
-11 3 0 -14 -40 -5 -41 11 -1 6 -1 19 0 29 1 9 -2 17 -8 17 -6 0 -8 -8 -5 -17
4 -11 2 -14 -3 -8 -9 12 -63 15 -63 4 0 -4 -8 -16 -17 -25 -17 -17 -17 -18 0
-11 10 4 17 2 18 -6 0 -7 5 -2 11 11 6 12 15 22 20 22 5 0 6 -6 2 -12 -6 -10
-4 -10 8 0 11 9 18 10 23 2 3 -5 1 -10 -5 -10 -6 0 -15 -10 -20 -22 -8 -21 -9
-22 -10 -3 l-1 20 -9 -20 c-12 -28 -12 -37 0 -30 7 4 8 -3 4 -22 -9 -39 -14
-41 -14 -7 0 22 -3 26 -10 14 -13 -20 -13 -4 0 20 8 15 5 20 -20 29 -17 5 -28
6 -25 1 9 -15 -9 -19 -27 -6 -16 12 -16 14 6 24 18 8 23 17 20 39 -4 24 -3 25
5 8 l10 -20 1 20 1 20 9 -20 c7 -17 9 -17 9 -2 1 9 6 16 13 15 6 -2 15 8 19
22 l7 25 1 -25 c1 -20 3 -22 12 -10 8 12 9 9 5 -10 -5 -21 -4 -20 8 5 10 22
11 32 3 38 -7 4 -2 6 10 4 12 -2 26 -6 29 -10z m860 -15 c-15 -3 -16 -6 -5
-13 11 -7 11 -9 -3 -9 -20 0 -21 2 -12 24 3 9 12 12 22 8 15 -6 15 -7 -2 -10z
m74 3 c-7 -9 -15 -13 -19 -10 -3 3 1 10 9 15 21 14 24 12 10 -5z m185 5 c-3
-5 0 -10 7 -11 7 0 4 -4 -7 -9 -17 -7 -17 -9 -2 -9 9 -1 17 -9 17 -18 0 -11 3
-14 8 -7 8 11 53 14 46 3 -2 -4 3 -10 12 -13 22 -8 26 -8 19 4 -3 6 0 10 9 10
8 0 20 2 28 3 7 2 10 2 6 0 -5 -3 -8 -11 -8 -18 0 -8 -4 -17 -10 -20 -6 -4 -7
1 -3 12 6 16 5 16 -10 4 -9 -7 -14 -17 -12 -22 3 -4 -4 -13 -15 -19 -11 -6
-18 -15 -15 -20 3 -5 0 -12 -6 -16 -8 -5 -9 -3 -4 6 6 9 1 10 -16 5 -13 -3
-19 -3 -13 2 6 4 10 16 8 26 -1 9 3 17 9 17 7 0 5 5 -3 10 -11 7 -11 10 -2 10
7 0 10 5 7 10 -4 6 -12 7 -18 3 -7 -4 -22 -6 -34 -4 -17 2 -21 -1 -17 -13 3
-9 1 -16 -4 -16 -11 0 -9 31 3 50 3 6 1 10 -4 10 -6 0 -3 9 6 20 18 21 28 27
18 10z m235 0 c0 -5 -2 -10 -4 -10 -3 0 -8 5 -11 10 -3 6 -1 10 4 10 6 0 11
-4 11 -10z m102 -8 c-7 -2 -10 -8 -7 -12 3 -5 0 -12 -6 -16 -8 -4 -9 -3 -5 4
4 7 1 12 -6 13 -10 0 -10 2 0 6 6 2 10 9 7 14 -4 5 2 6 11 2 11 -4 13 -8 6
-11z m-1314 -29 c39 -14 72 -27 72 -29 0 -13 -92 16 -185 57 -40 17 39 -2 113
-28z m1149 5 c-3 -8 -6 -5 -6 6 -1 11 2 17 5 13 3 -3 4 -12 1 -19z m-403 -20
c-4 -14 -2 -18 5 -14 6 4 11 15 11 24 0 13 2 14 9 4 6 -11 10 -10 15 4 5 12
10 14 17 7 15 -15 2 -33 -22 -33 -11 0 -18 -4 -14 -9 3 -6 -3 -15 -14 -21 -14
-7 -22 -7 -27 2 -4 7 -3 8 4 4 14 -8 15 3 3 22 -6 10 -12 5 -21 -18 -8 -19
-18 -29 -26 -26 -9 4 -14 -2 -14 -15 0 -17 -5 -20 -25 -17 -13 3 -26 1 -29 -4
-2 -5 -3 -3 -2 4 2 7 13 12 24 10 15 -2 22 2 22 12 0 9 -5 16 -11 16 -5 0 -7
-4 -4 -10 3 -6 -1 -7 -9 -4 -28 11 -17 22 19 19 30 -2 37 2 47 27 8 17 18 26
27 23 9 -4 11 0 7 10 -3 10 -2 13 5 10 5 -4 7 -16 3 -27z m283 26 c-3 -3 -12
-4 -19 -1 -8 3 -5 6 6 6 11 1 17 -2 13 -5z m193 2 c0 -3 -4 -8 -10 -11 -5 -3
-10 -1 -10 4 0 6 5 11 10 11 6 0 10 -2 10 -4z m-127 -13 c-7 -2 -19 -2 -25 0
-7 3 -2 5 12 5 14 0 19 -2 13 -5z m-160 -23 c-3 -12 -12 -15 -34 -12 -16 2
-29 9 -29 16 0 7 -3 7 -8 -1 -7 -10 -12 -10 -26 0 -14 11 -8 13 42 13 51 1 59
-1 55 -16z m-1229 -5 c3 -9 0 -15 -9 -15 -9 0 -12 6 -9 15 4 8 7 15 9 15 2 0
5 -7 9 -15z m199 8 c3 -5 -6 -8 -19 -8 -13 0 -24 3 -24 8 0 4 9 7 19 7 11 0
22 -3 24 -7z m24 -15 c-3 -8 -6 -5 -6 6 -1 11 2 17 5 13 3 -3 4 -12 1 -19z
m1353 17 c0 -2 -15 -12 -32 -21 -18 -9 -36 -22 -40 -28 -5 -8 -11 -7 -19 1
-15 15 -15 15 36 35 44 18 55 20 55 13z m-1317 -18 c7 3 9 3 5 -2 -4 -4 -3
-16 3 -26 6 -13 6 -25 -1 -39 -6 -12 -7 -20 -1 -20 5 0 14 12 19 28 l9 27 7
-32 c4 -18 14 -33 22 -33 8 0 14 -4 14 -10 0 -17 -31 2 -40 24 l-9 21 0 -22
c-1 -16 -6 -21 -21 -18 -11 2 -20 0 -20 -6 0 -5 7 -9 15 -9 8 0 15 -8 15 -17
0 -15 -2 -16 -10 -3 -9 13 -10 13 -11 0 0 -10 -3 -8 -9 5 -6 14 -9 15 -10 5 0
-12 -3 -11 -11 3 -7 11 -7 23 0 35 8 13 10 14 11 2 0 -13 1 -13 10 0 12 19 13
33 1 25 -11 -6 -26 33 -17 42 3 4 6 -2 6 -12 0 -15 3 -16 12 -7 9 9 9 15 0 24
-7 7 -12 17 -11 23 0 5 3 4 6 -3 2 -6 10 -9 16 -5z m167 -13 c0 -8 -5 -14 -11
-14 -5 0 -7 5 -4 10 3 6 -3 10 -14 10 -12 0 -21 4 -21 9 0 4 11 6 25 3 14 -2
25 -11 25 -18z m-129 2 c5 3 9 0 9 -5 0 -6 -7 -11 -15 -11 -8 0 -15 8 -14 18
0 10 3 12 6 4 2 -6 9 -10 14 -6z m849 2 c0 -9 4 -8 11 2 9 12 10 11 4 -5 -7
-22 -13 -45 -14 -59 -1 -5 -10 -1 -20 8 -11 10 -25 15 -32 10 -8 -4 -10 -3 -5
4 4 7 1 12 -8 12 -9 0 -16 5 -16 11 0 6 7 9 15 6 8 -4 17 -2 20 3 3 5 13 6 22
3 11 -4 14 -3 9 5 -4 7 -2 12 3 12 6 0 11 -6 11 -12z m-703 -20 c-3 -8 -6 -5
-6 6 -1 11 2 17 5 13 3 -3 4 -12 1 -19z m423 11 c0 -6 -8 -8 -17 -5 -13 4 -11
0 6 -14 13 -11 18 -20 13 -20 -6 0 -14 5 -17 10 -4 7 -14 6 -28 -1 -21 -10
-21 -10 -3 5 11 9 16 16 12 16 -4 0 -4 5 -1 10 8 14 35 13 35 -1z m350 0 c12
-8 9 -9 -10 -4 l-25 6 25 -16 25 -16 -30 6 c-22 4 -26 3 -15 -5 13 -8 12 -10
-5 -11 -15 0 -16 -2 -5 -6 8 -3 18 -11 22 -17 5 -7 8 -3 8 8 0 18 1 18 19 -2
10 -12 21 -19 24 -15 4 3 13 1 20 -5 8 -7 16 -10 19 -7 2 3 5 -1 5 -9 0 -8 -6
-12 -15 -8 -9 3 -13 1 -9 -5 4 -6 -1 -10 -11 -10 -42 0 -45 -2 -31 -19 18 -22
20 -44 3 -51 -8 -3 -11 -10 -7 -16 3 -6 1 -7 -5 -3 -7 4 -12 2 -12 -3 0 -6 6
-11 13 -12 6 0 3 -4 -8 -9 -12 -5 -14 -9 -6 -9 11 -1 10 -5 -4 -15 -22 -16
-55 -2 -55 24 0 12 2 12 8 2 10 -16 42 -5 42 14 0 8 -8 14 -17 14 -16 0 -16
-2 -3 -10 11 -8 8 -9 -12 -4 -21 5 -27 2 -30 -15 -2 -15 -7 -18 -17 -12 -21
14 0 66 27 67 12 1 22 -3 22 -9 0 -6 6 -2 14 9 8 10 18 15 22 11 5 -4 2 -12
-6 -17 -13 -9 -13 -10 0 -10 8 0 22 5 30 10 9 6 11 10 3 10 -7 0 -10 6 -7 13
3 8 -1 18 -8 24 -18 15 -58 -2 -59 -24 -1 -12 -3 -10 -9 7 -7 21 -8 22 -10 5
-1 -20 -1 -20 -9 0 -7 16 -9 13 -15 -19 -6 -30 -10 -36 -17 -25 -7 10 -8 4 -4
-18 4 -18 2 -40 -4 -50 -6 -10 -11 -12 -11 -5 0 23 -28 12 -35 -15 -5 -21 -8
-24 -15 -13 -6 9 -5 17 3 22 8 5 7 8 -5 8 -9 0 -19 -4 -22 -9 -3 -5 -16 -7
-28 -3 -17 4 -20 2 -15 -12 4 -10 7 -25 7 -34 0 -10 3 -13 8 -7 4 6 13 11 20
13 15 3 16 -24 0 -34 -7 -4 -8 -3 -4 4 4 7 2 12 -3 12 -6 0 -11 -9 -11 -21 0
-13 4 -18 12 -13 7 4 8 3 4 -5 -4 -6 -12 -9 -17 -6 -5 4 -9 -2 -9 -12 0 -10
-4 -23 -8 -30 -4 -6 -7 6 -7 27 0 21 3 33 7 27 5 -7 8 -3 8 11 0 13 -4 21 -9
18 -4 -3 -6 6 -3 21 4 19 2 24 -8 18 -9 -6 -10 -3 -1 14 8 14 8 21 1 21 -5 0
-10 -6 -10 -12 0 -9 -4 -8 -10 2 -9 13 -10 13 -10 0 0 -13 -1 -13 -10 0 -8 12
-10 12 -10 1 0 -8 -2 -12 -5 -10 -2 3 -2 15 1 26 5 18 13 22 45 20 21 -1 39
-5 39 -10 0 -4 -4 -5 -10 -2 -5 3 -10 1 -10 -4 0 -12 33 -13 65 -3 11 4 20 13
19 20 -1 6 -2 17 -3 22 0 6 -6 10 -12 10 -5 0 -7 -5 -3 -12 4 -7 3 -8 -5 -4
-7 4 -14 -2 -20 -15 -8 -22 -8 -22 -15 6 -6 23 -9 26 -17 14 -7 -12 -9 -12 -9
1 0 13 -1 13 -10 0 -8 -13 -10 -12 -10 4 0 12 5 16 15 12 8 -3 15 -1 15 4 0 6
-9 10 -20 10 -18 0 -25 -10 -21 -32 0 -5 -8 -8 -18 -8 -11 0 -21 -6 -24 -12
-2 -7 -2 -2 0 12 3 14 9 30 15 35 8 7 9 4 5 -10 -6 -18 -5 -17 9 3 9 12 24 22
33 22 14 0 14 2 1 10 -12 8 -12 10 -1 10 8 0 20 8 27 18 12 15 12 15 7 -5 -4
-17 -1 -23 10 -23 9 0 19 -4 22 -10 4 -7 -3 -7 -19 0 -28 10 -29 10 -20 -15 6
-13 9 -14 16 -3 6 9 7 5 3 -12 -5 -23 -5 -23 8 -7 8 9 19 17 26 17 16 0 14 10
-6 32 -16 18 -16 19 5 25 12 3 22 13 22 22 0 14 -2 14 -11 1 -9 -13 -10 -12
-5 3 6 18 -18 25 -29 7 -3 -5 -1 -10 5 -10 6 0 8 -5 5 -10 -4 -6 -12 -5 -21 4
-16 16 -19 30 -5 21 5 -3 12 -2 15 3 2 4 -9 8 -25 7 -18 0 -29 -5 -29 -14 0
-10 -4 -11 -12 -3 -21 17 -24 17 -39 5 -11 -9 -18 -8 -32 2 -16 12 -15 13 10
20 15 3 29 2 31 -3 4 -13 42 -3 42 12 0 7 4 6 9 -2 6 -10 10 -7 15 12 3 14 13
26 20 26 8 0 16 4 18 10 2 6 8 6 18 0 12 -8 12 -10 -5 -11 l-20 0 20 -9 c17
-7 17 -9 3 -9 -10 -1 -18 -8 -18 -16 0 -21 16 -19 40 5 11 11 16 20 10 20 -5
0 -10 7 -10 17 0 12 6 9 24 -12 13 -15 29 -24 35 -21 6 4 11 3 11 -2 0 -5 -9
-12 -20 -15 -11 -3 -18 -1 -14 4 3 5 -4 9 -15 9 -22 0 -26 -20 -11 -55 8 -19
11 -18 14 4 0 5 5 13 9 18 5 4 8 4 7 -2 -5 -22 1 -29 11 -15 8 11 9 9 3 -10
-9 -33 8 -17 21 20 8 24 12 26 23 14 11 -12 10 -14 -3 -14 -8 0 -15 -8 -15
-17 0 -15 2 -16 10 -3 6 10 10 11 10 3 0 -7 5 -13 11 -13 5 0 8 3 6 8 -3 4 -1
16 4 27 7 19 8 19 8 -2 1 -13 6 -23 12 -23 5 0 7 5 3 12 -4 7 -3 8 5 4 15 -10
71 3 71 16 0 6 -7 8 -15 5 -8 -4 -17 -2 -21 4 -3 5 -14 7 -25 4 -11 -4 -19 -2
-19 4 0 6 -7 11 -15 11 -18 0 -18 -1 -4 39 11 32 24 38 49 20z m-879 -8 c7 11
9 10 9 -3 0 -10 -7 -18 -16 -18 -9 0 -12 -5 -8 -12 4 -6 3 -8 -4 -5 -5 4 -8
17 -4 29 3 14 7 17 10 9 4 -11 6 -11 13 0z m126 -23 c-3 -7 -5 -2 -5 12 0 14
2 19 5 13 2 -7 2 -19 0 -25z m436 -2 c-3 -4 -9 -2 -14 5 -13 22 -11 31 5 17 8
-7 12 -17 9 -22z m-773 -1 c5 14 7 7 6 -22 0 -23 -4 -36 -8 -30 -5 7 -8 0 -9
-18 l-2 -30 -4 29 c-4 23 -7 26 -15 15 -7 -10 -8 -9 -3 6 5 11 10 34 14 50 5
29 5 29 9 5 4 -23 5 -23 12 -5z m1350 16 c0 -5 -20 -18 -44 -30 -46 -21 -67
-41 -44 -41 11 0 10 -2 0 -9 -11 -7 -11 -9 1 -14 11 -4 15 -1 12 12 -4 24 71
67 79 45 3 -8 -1 -14 -9 -14 -8 0 -15 -5 -15 -10 0 -7 7 -7 20 0 11 6 18 15
15 21 -4 5 0 9 7 9 9 0 9 3 -2 10 -9 6 -10 10 -3 10 6 0 15 -4 18 -10 3 -5 14
-10 23 -9 14 0 15 2 2 7 -8 4 -16 13 -18 21 -2 11 0 12 11 3 8 -7 16 -9 20 -6
3 3 4 -2 3 -12 -2 -10 -9 -20 -17 -22 -8 -3 -24 -13 -36 -22 -18 -14 -20 -20
-10 -28 16 -14 35 -2 31 21 -1 9 4 17 11 17 8 0 12 -8 10 -20 -2 -11 2 -20 8
-20 7 0 6 -4 -3 -10 -10 -6 -11 -10 -2 -10 20 0 14 -28 -8 -35 -17 -6 -18 -8
-6 -21 19 -19 32 -18 16 1 -10 12 -10 15 4 15 9 0 15 -3 14 -7 -1 -5 6 -24 16
-43 18 -34 18 -34 1 -20 -17 14 -18 13 -12 -2 4 -12 2 -18 -7 -18 -14 0 -15
27 -1 50 7 12 6 13 -7 3 -8 -7 -17 -10 -20 -7 -3 2 -8 -2 -11 -10 -4 -9 -2
-18 3 -21 6 -4 10 -11 10 -17 0 -6 -12 -2 -27 7 -27 18 -28 18 -12 -1 9 -10
14 -26 12 -34 -4 -12 -3 -12 5 -2 8 12 15 11 40 -2 39 -20 43 -20 35 0 -3 8
-11 13 -18 10 -6 -2 -18 0 -26 4 -10 7 -9 9 6 8 11 0 27 1 35 4 8 3 12 3 8 1
-5 -3 -4 -12 1 -21 5 -9 7 -25 5 -35 -1 -11 6 -21 19 -26 20 -7 19 -8 -7 -15
-27 -7 -28 -8 -10 -22 18 -15 18 -15 1 -10 -15 5 -17 2 -12 -14 5 -15 3 -18
-9 -14 -12 5 -13 10 -5 25 7 14 6 19 -3 19 -6 0 -3 6 8 14 10 8 16 18 11 22
-4 4 -7 2 -7 -5 0 -7 -5 -9 -11 -6 -6 5 -4 11 7 19 16 12 16 13 0 19 -9 4 -14
3 -11 -2 3 -5 1 -12 -4 -16 -6 -3 -8 -12 -4 -20 3 -9 -1 -15 -8 -15 -8 0 -15
11 -15 25 -1 16 2 23 10 18 6 -3 8 -2 3 2 -4 5 -16 9 -27 10 -18 2 -19 0 -5
-15 16 -18 20 -34 6 -26 -5 4 -7 -2 -4 -13 2 -10 12 -18 20 -17 9 0 18 -6 20
-14 4 -13 3 -13 -6 0 -8 12 -11 12 -11 1 0 -7 -6 -11 -15 -8 -8 4 -17 1 -21
-5 -4 -7 -3 -8 4 -4 7 4 12 2 12 -4 0 -6 5 -8 10 -5 6 3 10 2 10 -4 0 -5 -8
-15 -17 -20 -10 -6 -13 -11 -8 -11 6 0 11 -11 11 -25 2 -21 -1 -23 -18 -14
-11 6 -27 7 -36 3 -12 -4 3 -12 48 -24 36 -10 58 -19 49 -19 -28 -2 -166 37
-208 59 -75 38 -128 143 -115 230 7 45 52 140 67 141 7 1 20 1 30 0 9 -1 17 2
17 8 0 6 -7 8 -16 4 -32 -12 -9 17 41 51 48 34 85 45 85 27z m-1328 -43 c-6
-6 -7 0 -4 19 5 21 7 23 10 9 2 -10 0 -22 -6 -28z m64 33 c-4 -5 0 -12 6 -15
7 -3 2 -3 -11 0 -14 4 -27 1 -32 -7 -7 -11 -9 -10 -9 3 0 9 10 18 23 21 12 2
23 5 25 6 2 0 1 -3 -2 -8z m204 -26 c0 -5 -5 -3 -10 5 -5 8 -10 20 -10 25 0 6
5 3 10 -5 5 -8 10 -19 10 -25z m821 12 c-10 -9 -11 -8 -5 6 3 10 9 15 12 12 3
-3 0 -11 -7 -18z m-1976 -9 c-5 -19 13 -41 98 -125 l103 -102 32 -113 c18 -62
50 -201 72 -308 21 -107 55 -260 74 -339 20 -79 33 -148 30 -153 -3 -5 -1 -15
5 -22 10 -11 79 -319 122 -541 22 -118 21 -105 9 -105 -5 0 -10 13 -10 29 0
16 -7 48 -15 71 -8 23 -15 56 -15 72 0 17 -11 67 -24 112 -13 44 -33 123 -45
174 -11 50 -30 131 -41 180 -11 48 -38 161 -60 252 -22 91 -42 188 -45 215 -3
28 -8 68 -11 90 -3 22 -11 63 -19 90 -8 28 -26 102 -41 165 -14 63 -35 127
-46 142 -10 16 -59 63 -107 106 -81 73 -86 81 -78 105 11 33 20 36 12 5z m731
10 c4 -6 3 -8 -4 -4 -5 3 -13 0 -15 -6 -3 -8 -6 -6 -6 5 -1 19 14 23 25 5z
m40 5 c-13 -4 -15 -7 -7 -13 10 -5 9 -9 -3 -13 -10 -4 -16 -1 -16 7 0 17 10
26 29 25 12 -1 11 -3 -3 -6z m1250 -15 c1 -11 -3 -15 -12 -11 -17 6 -19 36 -2
31 6 -2 12 -11 14 -20z m-1751 2 c-3 -5 2 -10 12 -11 11 0 13 -3 5 -6 -18 -7
-44 5 -37 17 3 5 11 10 16 10 6 0 7 -4 4 -10z m1306 1 c-8 -5 -11 -16 -8 -24
7 -18 -26 -26 -63 -16 -22 6 -20 7 11 8 28 1 38 6 42 21 3 11 11 20 19 20 10
0 10 -2 -1 -9z m-441 -25 c0 -8 -10 -16 -22 -19 -19 -5 -20 -8 -8 -24 13 -17
13 -17 -4 -1 -17 15 -17 18 -4 32 9 8 19 12 23 8 5 -4 5 1 2 11 -4 11 -3 16 3
12 6 -3 10 -12 10 -19z m-183 -18 c0 -18 5 -34 11 -36 7 -2 12 -11 11 -20 0
-12 -2 -13 -6 -3 -5 11 -7 11 -15 0 -7 -12 -9 -11 -7 1 4 41 -1 51 -27 48 -16
-2 -28 2 -30 10 -1 7 0 8 3 2 7 -14 23 -12 19 3 -1 6 -1 9 1 5 3 -4 11 -1 20
7 19 20 20 20 20 -17z m561 25 c-40 -4 -55 -33 -18 -33 11 0 20 -4 20 -9 0 -6
-12 -6 -32 0 -42 12 -57 11 -38 -1 11 -7 5 -8 -19 -4 -23 5 -36 3 -42 -7 -7
-12 -9 -12 -9 1 0 13 -1 13 -10 0 -8 -13 -10 -12 -10 3 0 10 -4 16 -8 13 -5
-3 -9 1 -9 9 0 16 27 16 39 1 4 -6 24 -5 50 1 32 8 37 11 18 13 l-25 2 25 8
c14 4 43 8 65 7 l40 0 -37 -4z m-231 -25 c-3 -8 -6 -5 -6 6 -1 11 2 17 5 13 3
-3 4 -12 1 -19z m40 -10 c-3 -8 -6 -5 -6 6 -1 11 2 17 5 13 3 -3 4 -12 1 -19z
m926 7 c-3 -9 -8 -14 -10 -11 -3 3 -2 9 2 15 9 16 15 13 8 -4z m-2058 -5 c3
-6 -1 -7 -9 -4 -18 7 -21 14 -7 14 6 0 13 -4 16 -10z m1002 -56 c-3 -3 -8 4
-12 15 -3 12 -11 21 -16 21 -5 0 -9 8 -9 18 0 11 7 6 21 -16 12 -18 19 -35 16
-38z m-140 34 c-3 -8 -6 -5 -6 6 -1 11 2 17 5 13 3 -3 4 -12 1 -19z m84 -1
c-10 -9 -11 -8 -5 6 3 10 9 15 12 12 3 -3 0 -11 -7 -18z m442 16 c-7 -2 -19
-2 -25 0 -7 3 -2 5 12 5 14 0 19 -2 13 -5z m108 -24 c10 -6 7 -8 -8 -6 -12 0
-19 5 -16 11 4 5 -1 7 -10 3 -10 -3 -17 -2 -17 2 0 14 24 20 31 8 4 -5 13 -13
20 -18z m-771 1 c0 -5 -7 -7 -15 -4 -8 4 -15 8 -15 10 0 2 7 4 15 4 8 0 15 -4
15 -10z m407 -16 c2 -13 1 -15 -4 -4 -3 8 -11 19 -17 23 -7 6 -6 7 4 4 8 -2
16 -12 17 -23z m110 0 c2 -16 1 -16 -3 -1 -3 9 -9 15 -14 12 -5 -3 -11 -1 -14
4 -4 5 2 8 11 7 10 -2 19 -11 20 -22z m-1122 -58 c6 -5 -5 0 -22 10 -18 10
-33 22 -33 27 0 5 -6 7 -14 4 -8 -3 -20 2 -28 11 -12 16 -11 16 6 2 18 -14 19
-13 12 5 -5 15 3 10 31 -15 21 -19 43 -39 48 -44z m778 54 c-3 -11 -9 -20 -14
-20 -5 0 -6 -8 -3 -17 5 -17 5 -17 -6 -1 -8 13 -7 22 7 38 22 25 22 25 16 0z
m208 1 c7 11 9 10 9 -4 0 -22 -25 -18 -26 4 -1 12 0 12 4 0 3 -12 5 -12 13 0z
m245 0 c2 -8 1 -8 -3 0 -4 8 -8 7 -14 -2 -7 -11 -9 -11 -9 -1 0 7 -5 10 -12 6
-6 -4 -8 -3 -5 4 9 13 40 9 43 -7z m48 4 c-5 -11 -1 -14 12 -10 12 4 11 1 -3
-6 -14 -7 -25 -25 -29 -48 l-7 -36 -9 30 c-9 33 -3 59 11 51 5 -3 11 3 14 14
3 11 8 20 11 20 3 0 3 -7 0 -15z m36 -35 c-7 -16 -19 -30 -26 -30 -8 0 -14 -7
-14 -17 0 -9 -2 -14 -5 -11 -4 3 -3 18 1 33 4 17 9 23 14 15 5 -8 12 -1 21 18
17 40 26 32 9 -8z m300 30 c0 -5 -5 -10 -11 -10 -5 0 -7 5 -4 10 3 6 8 10 11
10 2 0 4 -4 4 -10z m-907 -20 c-3 -12 -8 -19 -11 -16 -5 6 5 36 12 36 2 0 2
-9 -1 -20z m130 5 c-3 -9 -8 -14 -10 -11 -3 3 -2 9 2 15 9 16 15 13 8 -4z m37
-20 c0 -5 -5 -3 -10 5 -5 8 -10 20 -10 25 0 6 5 3 10 -5 5 -8 10 -19 10 -25z
m223 23 c-2 -5 4 -9 14 -9 16 -1 16 -2 1 -6 -9 -2 -19 -12 -21 -21 -3 -11 -5
-9 -7 8 l-2 25 -7 -25 c-7 -25 -7 -25 -12 5 -4 26 -2 30 17 30 12 0 20 -3 17
-7z m-286 -20 c-3 -8 -6 -5 -6 6 -1 11 2 17 5 13 3 -3 4 -12 1 -19z m393 -6
c0 -15 2 -15 10 -2 5 8 10 11 10 5 0 -5 -12 -21 -27 -35 -24 -23 -25 -23 -15
-3 7 12 12 30 11 40 0 16 -1 16 -9 -2 -6 -15 -9 -16 -9 -4 -1 9 2 19 5 22 10
10 24 -2 24 -21z m-263 -4 c-3 -8 -6 -5 -6 6 -1 11 2 17 5 13 3 -3 4 -12 1
-19z m13 -25 c-11 -17 -11 -17 -6 0 3 10 7 26 7 35 1 15 2 15 6 0 2 -10 -1
-25 -7 -35z m95 29 c-3 -3 -11 0 -18 7 -9 10 -8 11 6 5 10 -3 15 -9 12 -12z
m-68 -14 c-3 -8 -6 -5 -6 6 -1 11 2 17 5 13 3 -3 4 -12 1 -19z m156 7 c-3 -9
-8 -14 -10 -11 -3 3 -2 9 2 15 9 16 15 13 8 -4z m23 0 c-3 -8 0 -15 6 -15 6 0
9 -3 5 -6 -10 -11 -26 6 -20 21 3 8 7 15 10 15 3 0 3 -7 -1 -15z m-419 -17
c-3 -8 -6 -5 -6 6 -1 11 2 17 5 13 3 -3 4 -12 1 -19z m256 -13 c-3 -9 -8 -14
-10 -11 -3 3 -2 9 2 15 9 16 15 13 8 -4z m291 -29 c-3 -15 -8 -25 -11 -23 -2
3 -1 17 3 31 3 15 8 25 11 23 2 -3 1 -17 -3 -31z m-407 2 c-3 -8 -6 -5 -6 6
-1 11 2 17 5 13 3 -3 4 -12 1 -19z m1093 12 c0 -5 -2 -10 -4 -10 -3 0 -8 5
-11 10 -3 6 -1 10 4 10 6 0 11 -4 11 -10z m-1783 -42 c23 -15 44 -28 47 -28 7
0 126 -82 126 -87 0 -7 -42 18 -142 84 -54 35 -98 66 -98 69 0 6 12 0 67 -38z
m898 31 c11 -16 1 -19 -13 -3 -7 8 -8 14 -3 14 5 0 13 -5 16 -11z m23 -20 c-6
-16 -12 -28 -14 -26 -5 5 13 57 20 57 3 0 0 -14 -6 -31z m92 21 c0 -5 -5 -10
-11 -10 -5 0 -7 5 -4 10 3 6 8 10 11 10 2 0 4 -4 4 -10z m34 -44 c-3 -21 -8
-35 -11 -32 -2 2 -1 20 3 40 3 21 8 35 11 32 2 -2 1 -20 -3 -40z m23 22 c-3
-8 -6 -5 -6 6 -1 11 2 17 5 13 3 -3 4 -12 1 -19z m293 2 c0 -14 5 -18 17 -13
11 4 12 8 5 11 -7 2 -12 8 -12 13 0 4 7 6 15 3 20 -8 19 -34 -1 -34 -12 0 -15
-7 -12 -25 3 -13 1 -22 -3 -19 -5 3 -9 15 -9 27 0 18 -2 19 -10 7 -8 -11 -9
-7 -4 15 4 23 3 26 -5 15 -9 -13 -11 -13 -11 3 0 9 7 17 15 17 8 0 15 -9 15
-20z m-383 -12 c-3 -8 -6 -5 -6 6 -1 11 2 17 5 13 3 -3 4 -12 1 -19z m319 6
c-5 -12 -2 -15 10 -10 11 4 18 -1 21 -14 3 -11 9 -20 14 -20 5 0 6 -7 2 -16
-5 -13 -7 -13 -14 -2 -6 9 -9 7 -9 -9 0 -13 5 -22 12 -20 7 1 13 -8 14 -21 l2
-22 -5 22 c-5 22 -6 22 -14 3 l-8 -20 -1 20 -1 20 -9 -20 c-6 -14 -7 -7 -4 21
4 29 2 45 -10 57 -14 13 -13 47 1 47 3 0 2 -7 -1 -16z m140 -3 c-4 -5 0 -12 6
-14 10 -4 9 -8 -2 -16 -12 -9 -13 -11 -1 -11 8 0 11 -3 8 -7 -4 -3 -2 -12 4
-20 6 -7 8 -13 4 -13 -5 0 0 -10 11 -22 10 -12 13 -18 7 -14 -8 4 -13 1 -13
-9 0 -9 4 -14 8 -11 4 2 14 1 22 -4 13 -8 18 -21 24 -60 1 -9 6 -22 11 -29 5
-9 4 -12 -3 -7 -5 3 -13 0 -16 -6 -3 -7 -4 -4 -3 7 1 11 -3 19 -10 18 -7 -2
-10 4 -7 12 4 10 0 13 -15 10 -12 -2 -19 0 -16 5 3 5 1 11 -4 14 -5 3 -7 21
-4 40 5 40 -13 58 -33 32 -9 -13 -13 -14 -18 -4 -3 7 -5 4 -2 -8 2 -12 -2 -21
-9 -21 -7 0 -10 9 -8 21 4 17 3 18 -6 6 -9 -13 -11 -12 -11 4 0 12 5 16 15 12
8 -3 15 0 15 7 0 8 4 6 10 -3 6 -10 10 -11 10 -2 0 6 9 12 21 12 11 0 17 5 14
10 -4 6 -11 8 -16 5 -5 -3 -6 2 -2 11 5 12 3 15 -6 9 -10 -6 -11 -3 -2 14 9
16 9 21 -1 21 -9 0 -9 3 2 10 19 12 23 12 16 1z m-420 -46 c9 -39 0 -30 -15
15 -6 19 -7 30 -2 25 5 -6 13 -23 17 -40z m229 35 c3 -5 1 -10 -4 -10 -6 0
-11 5 -11 10 0 6 2 10 4 10 3 0 8 -4 11 -10z m620 -10 c10 -11 16 -20 13 -20
-3 0 -13 9 -23 20 -10 11 -16 20 -13 20 3 0 13 -9 23 -20z m-768 -12 c-3 -8
-6 -5 -6 6 -1 11 2 17 5 13 3 -3 4 -12 1 -19z m20 0 c-3 -8 -6 -5 -6 6 -1 11
2 17 5 13 3 -3 4 -12 1 -19z m-122 -36 c-3 -3 -5 1 -5 9 0 12 -2 11 -11 -1 -9
-12 -10 -12 -5 3 3 10 6 24 7 30 0 7 5 1 10 -12 5 -13 7 -26 4 -29z m80 19
c-6 -5 -25 10 -25 20 0 5 6 4 14 -3 8 -7 12 -15 11 -17z m327 22 c-6 -2 -9
-10 -6 -15 4 -7 2 -8 -4 -4 -18 11 -14 26 6 25 10 0 12 -3 4 -6z m-250 -30
c-5 -24 -6 -25 -12 -8 -6 16 2 33 16 35 1 0 -1 -12 -4 -27z m123 6 c11 -16 1
-19 -13 -3 -7 8 -8 14 -3 14 5 0 13 -5 16 -11z m-108 -31 c-3 -7 -5 -2 -5 12
0 14 2 19 5 13 2 -7 2 -19 0 -25z m130 10 c-3 -8 -6 -5 -6 6 -1 11 2 17 5 13
3 -3 4 -12 1 -19z m-27 -36 c0 -4 -4 -12 -8 -19 -6 -9 -11 -8 -19 5 -9 15 -7
18 8 19 11 1 19 -1 19 -5z m29 -35 c1 -4 -5 -2 -13 5 -7 7 -11 19 -8 27 4 11
7 10 13 -5 4 -10 8 -23 8 -27z m136 26 c-4 -10 -7 -27 -7 -38 1 -16 -1 -17 -9
-5 -9 12 -10 11 -6 -6 2 -12 -1 -21 -8 -21 -14 0 -10 19 12 53 7 11 10 24 6
27 -3 4 -1 7 6 7 9 0 11 -6 6 -17z m-268 -35 c-3 -8 -6 -5 -6 6 -1 11 2 17 5
13 3 -3 4 -12 1 -19z m671 -5 c4 3 14 2 22 -4 12 -7 12 -9 1 -9 -8 0 -11 -6
-7 -16 4 -11 -1 -18 -14 -21 -11 -3 -20 -10 -20 -15 0 -5 5 -6 10 -3 6 3 10 1
10 -5 0 -7 -7 -9 -16 -6 -9 3 -22 6 -29 6 -7 0 -15 6 -18 14 -8 19 3 56 16 56
6 0 7 -3 4 -7 -4 -3 -2 -12 5 -20 9 -11 7 -12 -8 -6 -17 6 -18 5 -5 -11 13
-15 17 -16 25 -4 6 8 18 13 26 10 13 -4 13 -3 2 11 -8 9 -21 13 -30 10 -9 -3
-14 -2 -9 2 4 5 -1 17 -10 28 -18 20 -18 20 9 3 15 -10 31 -15 36 -13z m-1558
-23 c8 -5 10 -10 4 -10 -7 0 -22 9 -35 21 -19 16 -20 18 -4 10 11 -6 27 -15
35 -21z m1104 22 c3 -5 -1 -9 -9 -9 -8 0 -12 4 -9 9 3 4 7 8 9 8 2 0 6 -4 9
-8z m-97 -34 c-3 -8 -6 -5 -6 6 -1 11 2 17 5 13 3 -3 4 -12 1 -19z m71 -43
c-3 -3 -9 2 -12 12 -6 14 -5 15 5 6 7 -7 10 -15 7 -18z m212 6 c-5 -11 -15
-23 -21 -27 -6 -3 -3 5 6 20 20 30 30 35 15 7z m-966 -29 c2 -4 -5 -9 -17 -9
-17 -2 -19 0 -7 7 18 12 18 12 24 2z m1096 -6 c0 -8 6 -16 13 -19 6 -3 2 -4
-9 -4 -15 1 -20 6 -16 16 3 9 1 12 -6 7 -7 -4 -12 -2 -12 3 0 6 7 11 15 11 8
0 15 -6 15 -14z m-195 -5 c3 -5 2 -12 -3 -15 -5 -3 -9 1 -9 9 0 17 3 19 12 6z
m352 3 c-3 -3 -12 -4 -19 -1 -8 3 -5 6 6 6 11 1 17 -2 13 -5z m-1207 -24 c0
-5 -2 -10 -4 -10 -3 0 -8 5 -11 10 -3 6 -1 10 4 10 6 0 11 -4 11 -10z m30 -20
c0 -5 -2 -10 -4 -10 -3 0 -8 5 -11 10 -3 6 -1 10 4 10 6 0 11 -4 11 -10z m62
-20 c23 -11 48 -20 55 -20 7 0 13 -4 13 -10 0 -5 6 -10 14 -10 7 0 44 -17 82
-37 73 -40 104 -53 197 -85 31 -11 57 -24 57 -30 0 -16 -51 -3 -123 31 -120
56 -176 81 -182 81 -3 0 -24 12 -48 27 -23 15 -49 28 -57 29 -22 4 -60 26 -60
36 0 12 6 10 52 -12z m-20 -247 c-3 -16 1 -30 9 -37 10 -8 14 -38 16 -106 1
-71 -1 -86 -8 -60 -4 19 -10 58 -11 86 -2 29 -6 50 -10 47 -5 -2 -8 5 -8 15 0
11 -3 34 -6 51 -5 24 -3 31 8 31 11 0 14 -7 10 -27z m91 10 c-7 -2 -19 -2 -25
0 -7 3 -2 5 12 5 14 0 19 -2 13 -5z m64 -25 c-3 -8 -6 -5 -6 6 -1 11 2 17 5
13 3 -3 4 -12 1 -19z m-12 -59 c11 -16 1 -19 -13 -3 -7 8 -8 14 -3 14 5 0 13
-5 16 -11z m1535 -384 c7 -78 10 -150 8 -160 -2 -11 -8 25 -12 80 -4 55 -11
136 -17 180 -5 44 -8 102 -8 130 2 46 2 45 9 -20 4 -38 13 -133 20 -210z m399
84 c1 -60 5 -88 14 -91 6 -3 94 -25 194 -49 179 -43 181 -44 186 -72 2 -15 1
-30 -3 -32 -4 -2 -90 20 -191 49 -159 46 -185 51 -190 37 -12 -31 3 -46 69
-68 93 -31 259 -73 288 -73 13 0 24 -6 24 -12 0 -7 3 -23 6 -35 4 -15 2 -23
-7 -23 -20 0 -269 80 -326 106 l-53 23 -1 -37 c-3 -59 -16 120 -22 288 -3 95
-2 140 3 115 5 -22 9 -79 9 -126z m-2042 79 c-3 -8 -6 -5 -6 6 -1 11 2 17 5
13 3 -3 4 -12 1 -19z m10 -55 c-3 -10 -5 -4 -5 12 0 17 2 24 5 18 2 -7 2 -21
0 -30z m1200 -25 c-2 -13 -4 -3 -4 22 0 25 2 35 4 23 2 -13 2 -33 0 -45z
m-1184 -23 c-3 -9 -8 -14 -10 -11 -3 3 -2 9 2 15 9 16 15 13 8 -4z m2358 9
l49 -7 0 -64 c0 -58 -2 -64 -17 -58 -10 4 -37 13 -59 21 -23 8 -55 21 -70 29
-16 8 -36 15 -45 15 -29 0 -114 33 -131 51 -16 16 -11 17 103 18 66 1 143 -1
170 -5z m-1158 -119 c4 -54 4 -61 -3 -30 -9 40 -13 112 -6 104 2 -2 6 -35 9
-74z m-1186 3 c-3 -8 -6 -5 -6 6 -1 11 2 17 5 13 3 -3 4 -12 1 -19z m-692
-153 c9 -48 14 -89 12 -91 -4 -5 -47 189 -46 209 1 25 18 -33 34 -118z m415
95 c0 -5 -8 -7 -17 -4 -14 5 -13 2 4 -13 14 -12 25 -38 32 -77 15 -80 12 -103
-4 -41 -7 28 -13 42 -14 33 -1 -23 -18 -31 -25 -12 -4 10 -2 13 7 8 9 -5 8 -3
-1 7 -20 21 -34 -8 -26 -55 4 -27 3 -36 -5 -32 -6 4 -11 14 -11 22 0 8 -4 14
-10 14 -12 0 -13 -47 -1 -54 4 -3 11 -31 15 -63 4 -31 12 -63 18 -70 8 -10 7
-13 -6 -13 -18 0 -17 -2 -47 175 -12 72 -24 142 -26 158 l-5 27 61 0 c33 0 61
-4 61 -10z m113 -7 c-7 -2 -19 -2 -25 0 -7 3 -2 5 12 5 14 0 19 -2 13 -5z m40
-20 c-7 -2 -21 -2 -30 0 -10 3 -4 5 12 5 17 0 24 -2 18 -5z m394 -45 c-3 -7
-5 -2 -5 12 0 14 2 19 5 13 2 -7 2 -19 0 -25z m-437 -31 c0 -18 -2 -19 -10 -7
-13 20 -13 43 0 35 6 -3 10 -16 10 -28z m447 -19 c-3 -8 -6 -5 -6 6 -1 11 2
17 5 13 3 -3 4 -12 1 -19z m832 -45 c-1 -49 -2 -54 -9 -29 -8 26 -3 86 6 86 2
0 4 -26 3 -57z m-1278 -10 c-8 -15 -10 -15 -11 -2 0 17 10 32 18 25 2 -3 -1
-13 -7 -23z m2596 -25 c-3 -8 -6 -5 -6 6 -1 11 2 17 5 13 3 -3 4 -12 1 -19z
m-1760 -35 c-3 -10 -5 -2 -5 17 0 19 2 27 5 18 2 -10 2 -26 0 -35z m540 -5
c-2 -13 -4 -5 -4 17 -1 22 1 32 4 23 2 -10 2 -28 0 -40z m-1447 22 c0 -5 -7
-10 -16 -10 -8 0 -12 5 -9 10 3 6 10 10 16 10 5 0 9 -4 9 -10z m93 -20 c-3
-12 -8 -19 -11 -16 -5 6 5 36 12 36 2 0 2 -9 -1 -20z m839 -125 c3 -32 9 -41
28 -46 23 -7 23 -7 -6 -8 -28 -1 -32 3 -38 30 -3 17 -6 55 -5 83 1 49 1 50 9
16 5 -19 10 -53 12 -75z m-532 91 c0 -3 -4 -8 -10 -11 -5 -3 -10 -1 -10 4 0 6
5 11 10 11 6 0 10 -2 10 -4z m1467 -28 c-3 -8 -6 -5 -6 6 -1 11 2 17 5 13 3
-3 4 -12 1 -19z m390 0 c-3 -8 -6 -5 -6 6 -1 11 2 17 5 13 3 -3 4 -12 1 -19z
m-2310 -25 c-3 -10 -5 -4 -5 12 0 17 2 24 5 18 2 -7 2 -21 0 -30z m34 14 c-10
-9 -11 -8 -5 6 3 10 9 15 12 12 3 -3 0 -11 -7 -18z m123 -12 c-4 -8 -11 -15
-16 -15 -6 0 -5 6 2 15 7 8 14 15 16 15 2 0 1 -7 -2 -15z m645 -16 c1 10 7 8
20 -7 10 -12 22 -18 26 -14 5 4 5 1 0 -6 -4 -8 -16 -12 -26 -9 -11 3 -19 0
-19 -6 0 -7 -5 -5 -10 3 -5 8 -9 29 -9 45 1 29 1 29 9 5 4 -14 8 -19 9 -11z
m1128 -66 c-3 -10 -5 -2 -5 17 0 19 2 27 5 18 2 -10 2 -26 0 -35z m390 -20
c-2 -16 -4 -5 -4 22 0 28 2 40 4 28 2 -13 2 -35 0 -50z m-2603 -53 c3 -41 12
-109 20 -150 8 -41 20 -104 26 -140 7 -36 15 -69 20 -75 4 -5 10 -28 14 -50
10 -61 -8 -22 -33 71 -21 82 -71 379 -71 424 1 51 17 -5 24 -80z m151 79 l20
-8 -20 -1 c-20 -1 -20 -1 -1 -15 11 -8 16 -18 11 -22 -4 -5 -10 -2 -12 5 -5
14 -33 16 -33 2 0 -5 -18 -10 -40 -10 -33 0 -42 -4 -50 -22 -8 -21 -9 -21 -9
-3 -1 11 -4 36 -7 56 l-6 35 63 -4 c35 -3 73 -8 84 -13z m220 -38 c3 -5 1 -12
-5 -16 -14 -9 -52 4 -45 16 8 12 42 12 50 0z m-515 -123 c0 -10 -4 -18 -8 -18
-4 0 -8 8 -9 18 -1 9 -4 40 -7 67 l-6 50 15 -50 c8 -27 15 -58 15 -67z m724
-24 c3 -8 2 -12 -4 -9 -6 3 -10 10 -10 16 0 14 7 11 14 -7z m-690 -157 c28
-160 33 -214 15 -185 -12 21 -28 104 -33 178 -3 30 -8 80 -12 110 -13 105 4
44 30 -103z m673 128 c0 -8 -4 -12 -9 -9 -5 3 -6 10 -3 15 9 13 12 11 12 -6z
m1123 -93 c0 -8 -10 -11 -27 -9 -18 2 -28 9 -27 20 3 67 4 72 14 57 8 -12 10
-12 10 5 1 21 30 -50 30 -73z m-1151 42 c-6 -16 -12 -36 -14 -44 -2 -8 -8 -28
-14 -45 -7 -23 -10 -25 -11 -10 -4 34 0 49 22 92 25 47 34 51 17 7z m1450 -21
c1 -14 -5 -23 -13 -23 -11 0 -14 10 -11 38 1 20 4 39 5 42 3 10 19 -36 19 -57z
m-2072 -285 c-3 -8 -6 -5 -6 6 -1 11 2 17 5 13 3 -3 4 -12 1 -19z m194 -52
c17 -78 7 -87 -12 -11 -9 36 -13 65 -8 65 4 0 13 -24 20 -54z m51 7 c-6 -59
-9 -62 -13 -10 -3 29 0 47 6 47 7 0 9 -15 7 -37z m82 -38 c3 -27 2 -63 -3 -80
-9 -28 -9 -27 -10 16 -1 25 -4 68 -7 95 -3 32 -2 44 4 34 5 -8 12 -37 16 -65z
m190 -9 c-4 -33 -10 -68 -15 -76 -5 -9 -7 -2 -3 20 5 34 5 34 -9 11 l-14 -24
-7 37 c-8 44 17 108 40 99 12 -4 13 -18 8 -67z m337 55 c-6 -4 15 -5 47 -3 46
3 60 1 65 -11 3 -8 13 -70 22 -138 9 -68 20 -137 25 -154 5 -16 14 -57 20 -90
14 -67 18 -77 29 -71 4 3 -3 69 -16 148 -13 79 -30 185 -37 236 l-13 93 76 -7
c42 -3 79 -11 82 -17 10 -14 25 -99 50 -277 22 -154 39 -212 39 -133 0 22 -12
125 -26 228 -14 103 -23 189 -20 192 3 3 41 2 85 -2 76 -7 80 -8 85 -33 5 -26
21 -138 46 -324 9 -67 16 -88 27 -88 11 0 14 7 9 24 -3 14 -10 66 -16 118 -5
51 -14 125 -19 163 -6 39 -11 84 -11 101 l0 32 64 0 c77 0 69 20 96 -225 24
-210 27 -226 43 -220 7 2 11 10 9 16 -3 15 -31 272 -39 361 l-6 65 72 -3 c63
-3 73 -7 81 -25 6 -12 19 -107 31 -212 33 -301 33 -312 19 -298 -10 9 -21 9
-48 -2 -19 -8 -46 -15 -60 -15 -14 0 -33 -7 -42 -15 -16 -15 -18 -12 -23 32
-5 45 1 72 10 46 5 -14 75 7 81 25 3 9 -43 11 -185 7 -209 -6 -623 -23 -723
-30 l-65 -5 -33 203 c-34 210 -41 300 -21 280 8 -8 20 -7 45 3 56 23 72 19 83
-23 7 -29 38 -218 55 -337 0 -5 -10 -13 -24 -17 -27 -7 -24 -11 12 -13 16 -1
24 -10 30 -33 5 -18 13 -33 18 -33 12 0 13 16 0 77 -5 26 -11 64 -14 83 -2 19
-13 89 -24 155 -34 197 -33 183 -5 177 14 -3 20 -8 14 -11z m-816 -71 c8 -35
7 -40 -2 -40 -5 1 -7 10 -5 20 2 11 -2 20 -7 20 -6 0 -11 7 -11 15 0 27 18 16
25 -15z m2267 11 c5 -4 48 -420 48 -464 0 -4 -9 -3 -20 3 -10 6 -23 9 -27 8
-4 -1 -18 3 -29 10 -15 8 -32 8 -53 2 -23 -6 -33 -6 -36 3 -5 19 -34 272 -41
369 l-7 88 79 -6 c44 -4 82 -9 86 -13z m792 -73 c3 -34 6 -107 6 -164 0 -116
7 -108 -97 -122 l-62 -9 -5 51 c-15 142 -26 298 -22 304 2 4 42 6 89 4 l84 -3
7 -61z m436 19 c0 -75 -13 -227 -19 -227 -3 0 -5 61 -3 135 2 76 7 135 13 135
5 0 9 -20 9 -43z m-3090 -143 c11 -67 20 -127 20 -134 0 -25 -40 22 -41 49
l-2 26 -4 -28 c-8 -49 -23 -17 -23 48 0 35 -4 67 -10 70 -5 3 -9 18 -9 33 1
17 3 21 6 10 2 -10 9 -18 15 -18 6 0 8 10 4 24 -3 13 0 39 6 57 12 32 13 33
16 9 1 -14 12 -80 22 -146z m-183 124 c-3 -7 -5 -2 -5 12 0 14 2 19 5 13 2 -7
2 -19 0 -25z m-220 -35 c-3 -10 -5 -4 -5 12 0 17 2 24 5 18 2 -7 2 -21 0 -30z
m27 -34 c2 -24 9 -64 16 -88 9 -34 9 -46 -1 -55 -9 -8 -10 -8 -5 1 3 6 1 24
-5 40 -16 40 -22 80 -20 127 2 42 11 27 15 -25z m203 19 c-3 -8 -6 -5 -6 6 -1
11 2 17 5 13 3 -3 4 -12 1 -19z m-80 -50 c-3 -8 -6 -5 -6 6 -1 11 2 17 5 13 3
-3 4 -12 1 -19z m10 -40 c-3 -8 -6 -5 -6 6 -1 11 2 17 5 13 3 -3 4 -12 1 -19z
m463 -105 c0 -20 -5 -23 -35 -23 -35 0 -35 0 -35 45 0 33 4 45 15 45 9 0 12 6
8 17 -4 11 -3 14 5 9 8 -4 12 0 13 11 1 24 29 -75 29 -104z m-346 73 c-3 -9
-10 -16 -15 -16 -5 0 -4 9 3 20 14 22 21 20 12 -4z m-4 -283 c5 -23 10 -66 10
-95 0 -29 4 -69 10 -87 9 -33 7 -51 -6 -39 -3 3 -9 48 -15 99 -5 52 -20 148
-33 214 -18 90 -21 123 -13 134 9 10 14 -10 24 -85 7 -55 17 -118 23 -141z
m3210 212 c0 -8 -2 -15 -4 -15 -2 0 -6 7 -10 15 -3 8 -1 15 4 15 6 0 10 -7 10
-15z m-3132 -12 c-10 -2 -26 -2 -35 0 -10 3 -2 5 17 5 19 0 27 -2 18 -5z
m-278 -53 c4 7 12 -17 19 -57 7 -37 14 -79 17 -92 5 -21 3 -23 -10 -12 -9 8
-16 24 -16 37 0 12 -4 33 -9 46 -4 13 -11 41 -14 63 -3 22 -3 31 0 21 4 -14 7
-15 13 -6z m280 -5 c0 -8 -4 -15 -10 -15 -5 0 -10 7 -10 15 0 8 5 15 10 15 6
0 10 -7 10 -15z m297 -36 l11 -29 -89 0 -89 0 0 29 c0 26 2 28 38 26 20 -1 48
1 62 5 37 10 55 2 67 -31z m2593 -34 c0 -15 -5 -23 -12 -21 -7 3 -39 7 -70 10
-53 6 -58 5 -58 -14 0 -18 -20 -30 -20 -12 0 4 -3 17 -6 29 -5 20 -2 22 37 26
119 10 129 9 129 -18z m-2873 -7 c-3 -8 -6 -5 -6 6 -1 11 2 17 5 13 3 -3 4
-12 1 -19z m1010 -40 c-3 -22 -4 -21 -11 4 -5 16 -5 36 0 45 7 16 8 15 11 -4
3 -13 3 -33 0 -45z m138 41 c8 -24 10 -22 -41 -37 -60 -17 -64 -16 -64 23 l0
35 49 0 c41 0 51 -3 56 -21z m-317 -24 c3 -30 2 -31 -69 -49 -75 -19 -88 -16
-89 26 0 9 -3 23 -6 32 -5 12 5 16 48 19 104 7 113 5 116 -28z m140 13 c-2
-16 -18 -31 -51 -47 -55 -27 -67 -21 -67 37 l0 32 61 0 c57 0 60 -1 57 -22z
m1710 5 c-2 -13 -23 -22 -81 -34 l-77 -16 0 28 c0 21 4 26 18 23 9 -2 37 0 62
5 71 14 82 13 78 -6z m-2034 -24 c10 -52 8 -55 -51 -69 -32 -7 -63 -15 -70
-17 -12 -5 -17 9 -27 69 -8 42 -3 45 85 47 56 1 57 0 63 -30z m-484 5 l25 -15
-30 6 c-30 7 -30 7 -9 -12 14 -12 23 -34 26 -68 3 -27 3 -44 1 -37 -9 24 -23
12 -24 -20 -1 -32 -1 -31 -9 7 -13 72 -20 155 -13 155 5 -1 19 -8 33 -16z
m314 -21 c11 -70 10 -73 -33 -73 -21 0 -52 -5 -70 -11 -29 -10 -31 -14 -29
-51 l3 -40 55 6 c48 5 51 4 21 -5 -18 -6 -45 -9 -59 -7 -25 3 -27 7 -39 98 -6
52 -12 101 -12 108 -1 8 21 12 78 12 l78 0 7 -37z m2009 18 c5 -22 -4 -25 -95
-36 -53 -7 -58 -6 -58 12 0 17 11 21 68 30 37 5 70 11 73 11 4 1 9 -7 12 -17z
m-2456 -118 c15 -12 15 -13 1 -13 -21 0 -28 22 -26 78 l2 47 3 -50 c3 -31 10
-55 20 -62z m2273 90 c0 -14 -16 -21 -80 -33 -80 -16 -80 -16 -80 6 0 18 9 23
53 31 84 17 107 15 107 -4z m-1133 -15 c-3 -8 -6 -5 -6 6 -1 11 2 17 5 13 3
-3 4 -12 1 -19z m210 0 c-3 -8 -6 -5 -6 6 -1 11 2 17 5 13 3 -3 4 -12 1 -19z
m726 -12 c5 -11 -6 -16 -41 -21 -26 -3 -64 -10 -84 -14 -43 -10 -45 -8 -20 19
10 11 35 20 62 23 25 2 52 4 61 5 9 1 19 -5 22 -12z m-193 -20 c0 -19 -23 -26
-102 -33 -64 -6 -68 -5 -68 15 0 14 5 19 18 16 9 -2 37 0 62 5 67 13 90 13 90
-3z m-890 -6 c0 -5 -2 -10 -4 -10 -3 0 -8 5 -11 10 -3 6 -1 10 4 10 6 0 11 -4
11 -10z m-170 -9 c0 -12 -20 -25 -27 -18 -7 7 6 27 18 27 5 0 9 -4 9 -9z
m-1120 -79 c-30 -63 -101 -170 -117 -176 -16 -6 -15 -5 54 110 27 45 56 97 64
115 10 25 15 29 17 16 2 -10 -6 -39 -18 -65z m1450 69 c0 -5 -21 -11 -47 -15
-79 -10 -296 -26 -300 -22 -6 6 51 14 182 26 66 7 122 14 124 16 8 8 41 4 41
-5z m-680 -31 c0 -10 -4 -22 -10 -25 -6 -4 -10 7 -10 25 0 18 4 29 10 25 6 -3
10 -15 10 -25z m1110 20 c0 -6 17 -8 43 -5 l42 5 -45 -15 c-65 -22 -99 -20
-97 5 1 15 8 20 29 20 15 0 28 -5 28 -10z m-1637 -7 c-7 -2 -21 -2 -30 0 -10
3 -4 5 12 5 17 0 24 -2 18 -5z m1487 -11 c0 -9 -58 -32 -79 -32 -30 0 -1 26
35 31 21 3 40 7 42 8 1 0 2 -3 2 -7z m-1471 -54 c-1 -24 -3 -35 -6 -25 -2 9
-12 17 -21 17 -13 0 -13 2 3 13 10 8 15 19 11 25 -4 7 -2 12 3 12 6 0 10 -19
10 -42z m731 23 c-51 -15 -94 -21 -85 -12 10 9 49 17 90 19 15 0 14 -2 -5 -7z
m589 6 c-2 -2 -23 -11 -46 -20 -36 -14 -43 -15 -43 -3 0 13 22 20 74 25 11 0
17 -1 15 -2z m-1539 -22 c0 -8 -4 -15 -10 -15 -5 0 -7 7 -4 15 4 8 8 15 10 15
2 0 4 -7 4 -15z m770 5 c0 -5 -8 -10 -17 -10 -15 0 -16 2 -3 10 19 12 20 12
20 0z m496 -26 c-15 -14 -31 -22 -35 -19 -3 4 7 18 23 31 15 14 31 22 35 19 3
-4 -7 -18 -23 -31z m-896 0 c0 -16 -16 -19 -25 -4 -8 13 4 32 16 25 5 -4 9
-13 9 -21z m760 -9 c0 -2 -14 -12 -31 -21 -22 -11 -34 -13 -42 -5 -7 7 -6 12
4 15 8 2 21 7 29 9 20 7 40 8 40 2z m-1161 -31 c-13 -16 -12 -17 9 -12 13 4
23 1 24 -5 0 -7 2 -16 2 -22 1 -5 5 -16 10 -23 4 -7 6 -15 5 -17 -8 -7 -104
-8 -108 -1 -5 11 59 110 66 103 3 -4 0 -14 -8 -23z m498 20 c-3 -3 -12 -4 -19
-1 -8 3 -5 6 6 6 11 1 17 -2 13 -5z m-202 -24 c-11 -5 -33 -9 -50 -9 -26 0
-27 2 -10 9 11 5 34 9 50 9 26 0 27 -2 10 -9z m660 0 c3 -5 -3 -10 -14 -10
-12 0 -21 5 -21 10 0 6 6 10 14 10 8 0 18 -4 21 -10z m-155 -20 c0 -5 -11 -10
-25 -10 -14 0 -25 5 -25 10 0 6 11 10 25 10 14 0 25 -4 25 -10z m-136 -10
c-14 -14 -82 -26 -69 -12 9 9 28 15 70 21 5 0 5 -3 -1 -9z m-174 -20 c0 -5
-15 -10 -32 -9 -31 1 -32 1 -8 9 35 11 40 11 40 0z m-140 -4 c0 -2 -11 -6 -25
-8 -13 -3 -22 -1 -19 3 5 9 44 13 44 5z m633 -23 c-7 -2 -21 -2 -30 0 -10 3
-4 5 12 5 17 0 24 -2 18 -5z m-735 -10 c-10 -2 -26 -2 -35 0 -10 3 -2 5 17 5
19 0 27 -2 18 -5z m285 -30 c-7 -2 -19 -2 -25 0 -7 3 -2 5 12 5 14 0 19 -2 13
-5z m80 0 c-13 -2 -33 -2 -45 0 -13 2 -3 4 22 4 25 0 35 -2 23 -4z m-1336
-605 c-3 -8 -6 -5 -6 6 -1 11 2 17 5 13 3 -3 4 -12 1 -19z m23 -63 c0 -5 -5
-3 -10 5 -5 8 -10 20 -10 25 0 6 5 3 10 -5 5 -8 10 -19 10 -25z m551 -728
c-10 -9 -11 -8 -5 6 3 10 9 15 12 12 3 -3 0 -11 -7 -18z m-24 -69 c-3 -7 -5
-2 -5 12 0 14 2 19 5 13 2 -7 2 -19 0 -25z"/>
<path d="M3435 7300 c3 -5 11 -10 16 -10 6 0 7 5 4 10 -3 6 -11 10 -16 10 -6
0 -7 -4 -4 -10z"/>
<path d="M3430 7251 c0 -5 7 -12 16 -15 14 -5 15 -4 4 9 -14 17 -20 19 -20 6z"/>
<path d="M3486 7278 c5 -7 9 -17 9 -22 0 -13 34 -16 42 -4 3 7 1 8 -5 4 -7 -4
-12 -3 -12 3 0 6 -10 15 -21 22 -17 9 -20 8 -13 -3z"/>
<path d="M3524 7222 c4 -7 2 -13 -3 -13 -26 -3 -30 -4 -36 -10 -3 -4 4 -9 16
-12 11 -3 18 -3 15 0 -3 3 2 11 11 18 13 9 13 14 3 20 -9 5 -11 4 -6 -3z"/>
<path d="M3558 7184 c6 -12 10 -23 9 -25 -1 -2 4 2 11 10 10 12 12 12 12 1 0
-7 3 -11 6 -7 3 3 1 14 -5 24 -7 12 -10 13 -11 4 0 -11 -3 -11 -17 0 -15 13
-15 12 -5 -7z"/>
<path d="M3685 7179 c-4 -6 -5 -12 -2 -15 2 -3 7 2 10 11 7 17 1 20 -8 4z"/>
<path d="M4897 7136 c-3 -8 0 -17 7 -19 10 -4 12 1 9 14 -6 23 -9 24 -16 5z"/>
<path d="M3836 7115 c-3 -9 -6 -22 -5 -28 0 -7 5 -1 10 12 5 13 8 26 5 28 -2
2 -6 -3 -10 -12z"/>
<path d="M3866 7122 c-3 -5 1 -9 9 -9 8 0 12 4 9 9 -3 4 -7 8 -9 8 -2 0 -6 -4
-9 -8z"/>
<path d="M4764 7055 c2 -5 10 -9 19 -9 9 1 14 -2 11 -7 -3 -5 0 -9 5 -9 6 0
11 8 11 18 0 12 -8 17 -25 17 -14 0 -23 -4 -21 -10z"/>
<path d="M5080 7100 c0 -5 7 -7 15 -4 8 4 15 8 15 10 0 2 -7 4 -15 4 -8 0 -15
-4 -15 -10z"/>
<path d="M3945 7060 c-3 -5 -1 -10 4 -10 6 0 11 5 11 10 0 6 -2 10 -4 10 -3 0
-8 -4 -11 -10z"/>
<path d="M5208 7023 c7 -3 16 -2 19 1 4 3 -2 6 -13 5 -11 0 -14 -3 -6 -6z"/>
<path d="M5196 6995 c-3 -8 -1 -15 4 -15 6 0 10 4 10 9 0 5 8 12 18 14 13 4
12 5 -4 6 -12 0 -24 -6 -28 -14z"/>
<path d="M5058 7043 c6 -2 18 -2 25 0 6 3 1 5 -13 5 -14 0 -19 -2 -12 -5z"/>
<path d="M4975 7001 c-6 -5 27 -30 40 -31 6 0 3 5 -5 10 -10 6 -11 10 -2 10 6
0 12 4 12 8 0 8 -38 11 -45 3z"/>
<path d="M4750 6919 c0 -5 5 -7 10 -4 6 3 10 8 10 11 0 2 -4 4 -10 4 -5 0 -10
-5 -10 -11z"/>
<path d="M4951 6874 c0 -11 3 -14 6 -6 3 7 2 16 -1 19 -3 4 -6 -2 -5 -13z"/>
<path d="M4904 6851 c10 -11 15 -25 11 -30 -3 -6 2 -11 13 -11 11 0 22 8 25
19 3 14 0 17 -14 14 -11 -3 -21 1 -25 11 -3 9 -11 16 -17 16 -5 0 -2 -9 7 -19z"/>
<path d="M4925 6860 c3 -5 8 -10 11 -10 2 0 4 5 4 10 0 6 -5 10 -11 10 -5 0
-7 -4 -4 -10z"/>
<path d="M4996 6807 c-7 -27 -5 -28 16 -6 13 14 14 19 3 23 -7 2 -15 -4 -19
-17z"/>
<path d="M4926 6785 c4 -8 8 -15 10 -15 2 0 4 7 4 15 0 8 -4 15 -10 15 -5 0
-7 -7 -4 -15z"/>
<path d="M4951 6784 c0 -11 3 -14 6 -6 3 7 2 16 -1 19 -3 4 -6 -2 -5 -13z"/>
<path d="M4780 6762 c0 -5 7 -9 15 -9 8 0 15 4 15 9 0 4 -7 8 -15 8 -8 0 -15
-4 -15 -8z"/>
<path d="M5050 6759 c0 -5 5 -7 10 -4 6 3 10 8 10 11 0 2 -4 4 -10 4 -5 0 -10
-5 -10 -11z"/>
<path d="M5305 6930 c3 -5 8 -10 11 -10 2 0 4 5 4 10 0 6 -5 10 -11 10 -5 0
-7 -4 -4 -10z"/>
<path d="M5310 6886 c14 -18 13 -18 -9 -11 -17 5 -22 4 -19 -6 3 -8 14 -12 24
-11 28 6 30 11 9 30 -18 16 -18 16 -5 -2z"/>
<path d="M5185 6860 c-4 -6 -3 -15 1 -22 5 -7 2 -9 -9 -5 -11 4 -14 2 -11 -8
5 -11 10 -12 25 -2 11 7 15 13 9 15 -5 2 -10 8 -10 13 0 4 7 6 15 3 8 -4 15
-4 15 -1 0 10 -30 16 -35 7z"/>
<path d="M5385 6860 c-13 -6 -15 -9 -5 -9 8 0 22 4 30 9 18 12 2 12 -25 0z"/>
<path d="M5241 6855 c7 -13 -27 -46 -37 -37 -4 4 -4 1 0 -6 6 -11 12 -9 28 7
10 12 23 19 28 16 5 -3 12 0 16 7 4 7 4 10 -1 6 -4 -4 -15 -2 -23 5 -9 6 -13
8 -11 2z"/>
<path d="M5248 6762 c4 -11 1 -13 -9 -7 -8 4 -11 4 -6 0 4 -5 17 -10 30 -12
26 -4 48 -23 27 -23 -11 -1 -10 -3 3 -11 14 -8 15 -14 7 -24 -9 -10 -7 -13 7
-11 10 2 20 0 23 -4 3 -4 12 -1 20 8 13 14 12 15 -2 10 -22 -9 -46 21 -42 52
1 14 1 20 -2 14 -7 -16 -46 -5 -41 11 3 6 -1 12 -8 12 -8 0 -11 -7 -7 -15z"/>
<path d="M5340 6761 c0 -7 -5 -9 -12 -5 -7 4 -10 4 -6 0 3 -4 10 -8 15 -8 4 0
15 -5 23 -11 13 -11 13 -10 0 8 -8 11 -16 22 -17 24 -2 2 -3 -1 -3 -8z"/>
<path d="M5147 6739 c7 -7 15 -10 18 -7 3 3 -2 9 -12 12 -14 6 -15 5 -6 -5z"/>
<path d="M5154 6696 c-19 -15 -19 -15 2 -13 11 0 21 7 21 14 0 16 1 16 -23 -1z"/>
<path d="M5205 6691 c-3 -5 -2 -12 3 -15 5 -3 9 1 9 9 0 17 -3 19 -12 6z"/>
<path d="M5166 6654 c-6 -14 2 -24 20 -24 7 0 12 8 11 18 -1 21 -24 25 -31 6z"/>
<path d="M5219 6657 c-1 -4 -3 -11 -4 -17 -1 -5 -3 -14 -4 -20 0 -5 -8 -7 -16
-4 -8 4 -15 1 -15 -6 0 -7 8 -10 20 -7 21 5 28 -7 10 -16 -6 -3 -5 -4 2 -3 7
2 12 13 11 25 -2 12 1 20 6 17 5 -4 8 1 7 9 -2 16 -15 32 -17 22z"/>
<path d="M5357 6649 c7 -7 15 -10 18 -7 3 3 -2 9 -12 12 -14 6 -15 5 -6 -5z"/>
<path d="M5303 6625 c-4 -5 -3 -7 2 -3 4 4 14 3 21 -3 14 -12 38 -3 29 11 -7
12 -45 8 -52 -5z"/>
<path d="M5279 6628 c-5 -18 -6 -38 -1 -34 7 8 12 36 6 36 -2 0 -4 -1 -5 -2z"/>
<path d="M5224 6572 c-7 -4 1 -13 22 -24 30 -15 34 -16 34 -2 0 8 4 13 9 10 5
-3 15 2 22 12 13 15 12 16 -3 3 -15 -11 -18 -11 -18 0 -1 10 -4 9 -11 -3 -6
-11 -16 -15 -26 -11 -15 6 -14 7 3 14 18 7 18 8 -1 8 -11 0 -25 -3 -31 -7z"/>
<path d="M5322 6554 c-7 -14 -17 -22 -22 -19 -6 3 -10 2 -10 -3 0 -14 39 -22
47 -10 3 7 1 8 -5 4 -15 -9 -15 -1 -1 26 6 11 9 22 6 24 -2 2 -9 -7 -15 -22z"/>
<path d="M5347 6556 c-3 -8 0 -17 7 -19 10 -4 12 1 9 14 -6 23 -9 24 -16 5z"/>
<path d="M4691 6824 c0 -11 3 -14 6 -6 3 7 2 16 -1 19 -3 4 -6 -2 -5 -13z"/>
<path d="M4951 6704 c0 -11 3 -14 6 -6 3 7 2 16 -1 19 -3 4 -6 -2 -5 -13z"/>
<path d="M5103 6575 c-10 -10 -9 -16 2 -25 8 -7 15 -9 15 -4 0 5 8 0 17 -11
l16 -20 -8 20 c-4 11 -8 25 -8 32 -1 18 -20 22 -34 8z"/>
<path d="M4508 4283 c17 -2 47 -2 65 0 17 2 3 4 -33 4 -36 0 -50 -2 -32 -4z"/>
<path d="M4668 4283 c7 -3 16 -2 19 1 4 3 -2 6 -13 5 -11 0 -14 -3 -6 -6z"/>
<path d="M4723 4283 c9 -2 25 -2 35 0 9 3 1 5 -18 5 -19 0 -27 -2 -17 -5z"/>
<path d="M3910 3761 c0 -6 4 -13 10 -16 6 -3 7 1 4 9 -7 18 -14 21 -14 7z"/>
<path d="M6175 7570 c-16 -10 -37 -25 -45 -32 -8 -7 -16 -12 -17 -10 -8 7 -23
1 -18 -8 3 -5 0 -7 -8 -4 -8 3 -21 -1 -28 -8 -22 -22 -45 -27 -60 -15 -11 10
-11 9 0 -6 8 -9 19 -16 25 -15 17 3 56 -25 57 -42 0 -8 8 -33 18 -55 l18 -40
7 28 c3 15 4 33 0 39 -4 7 -3 8 4 4 7 -4 14 3 18 19 3 14 10 25 15 25 5 0 9 8
9 18 0 9 14 25 30 34 17 9 30 22 30 28 0 7 -16 2 -37 -11 -79 -47 -92 -59 -86
-77 6 -15 5 -15 -12 1 -18 18 -17 20 16 48 19 16 38 29 42 29 5 0 5 4 2 10 -4
6 1 7 11 3 12 -4 15 -3 10 5 -5 8 -2 10 8 6 9 -4 16 -1 16 6 0 7 8 19 18 26
27 21 -7 16 -43 -6z"/>
<path d="M6245 7549 c-11 -16 -1 -19 13 -3 7 8 8 14 3 14 -5 0 -13 -5 -16 -11z"/>
<path d="M3606 7335 c21 -16 54 -20 54 -6 0 5 -8 7 -19 4 -10 -3 -22 0 -25 6
-4 6 -12 11 -19 11 -6 0 -2 -7 9 -15z"/>
<path d="M3771 7324 c0 -11 3 -14 6 -6 3 7 2 16 -1 19 -3 4 -6 -2 -5 -13z"/>
<path d="M4151 7194 c0 -11 3 -14 6 -6 3 7 2 16 -1 19 -3 4 -6 -2 -5 -13z"/>
<path d="M4553 7145 c0 -33 2 -45 4 -27 2 18 2 45 0 60 -2 15 -4 0 -4 -33z"/>
<path d="M4573 7140 c0 -25 2 -35 4 -22 2 12 2 32 0 45 -2 12 -4 2 -4 -23z"/>
<path d="M5816 7163 c-6 -14 -5 -15 5 -6 7 7 10 15 7 18 -3 3 -9 -2 -12 -12z"/>
<path d="M4048 7163 c6 -2 18 -2 25 0 6 3 1 5 -13 5 -14 0 -19 -2 -12 -5z"/>
<path d="M4533 7135 c0 -22 2 -30 4 -17 2 12 2 30 0 40 -3 9 -5 -1 -4 -23z"/>
<path d="M4391 7114 c0 -11 3 -14 6 -6 3 7 2 16 -1 19 -3 4 -6 -2 -5 -13z"/>
<path d="M5891 7114 c0 -11 3 -14 6 -6 3 7 2 16 -1 19 -3 4 -6 -2 -5 -13z"/>
<path d="M4281 7094 c0 -11 3 -14 6 -6 3 7 2 16 -1 19 -3 4 -6 -2 -5 -13z"/>
<path d="M4372 7085 c0 -16 2 -22 5 -12 2 9 2 23 0 30 -3 6 -5 -1 -5 -18z"/>
<path d="M4412 7070 c0 -19 2 -27 5 -17 2 9 2 25 0 35 -3 9 -5 1 -5 -18z"/>
<path d="M4391 7074 c0 -11 3 -14 6 -6 3 7 2 16 -1 19 -3 4 -6 -2 -5 -13z"/>
<path d="M5721 7080 c-9 -5 -5 -9 10 -13 28 -7 31 -6 14 10 -6 6 -18 8 -24 3z"/>
<path d="M5805 7058 c3 -11 0 -30 -6 -41 -8 -14 -8 -22 1 -27 10 -6 10 -8 0
-12 -7 -2 -1 -9 14 -16 15 -7 26 -8 26 -2 0 6 -7 10 -15 10 -13 0 -14 4 -4 21
8 15 8 19 0 15 -6 -4 -11 0 -11 9 0 9 5 13 11 9 8 -5 8 -1 0 14 -8 15 -8 21 1
24 8 3 6 7 -4 11 -13 4 -16 1 -13 -15z"/>
<path d="M5851 7043 c-10 -26 -10 -27 4 -9 8 11 15 23 15 28 0 15 -7 8 -19
-19z"/>
<path d="M4522 7040 c0 -14 2 -19 5 -12 2 6 2 18 0 25 -3 6 -5 1 -5 -13z"/>
<path d="M4541 7044 c0 -11 3 -14 6 -6 3 7 2 16 -1 19 -3 4 -6 -2 -5 -13z"/>
<path d="M5707 6968 c-21 -303 -21 -308 2 -308 11 0 21 -4 21 -9 0 -5 -9 -7
-20 -4 -15 4 -20 0 -20 -15 0 -15 7 -20 28 -20 15 0 90 -1 167 -1 77 -1 151 0
165 3 33 7 91 15 168 23 34 3 62 9 62 13 0 3 -30 3 -67 -2 -38 -4 -113 -10
-168 -13 -55 -3 -117 -6 -137 -8 -23 -2 -38 1 -38 7 0 6 -5 4 -10 -4 -8 -13
-10 -13 -10 1 0 14 14 17 93 18 112 2 240 9 287 16 19 3 60 8 90 11 30 3 71 9
90 14 19 6 47 10 63 10 19 0 27 5 27 18 0 14 -2 15 -10 2 -9 -13 -10 -13 -10
0 0 9 -3 11 -8 5 -11 -15 -32 -17 -32 -3 0 9 -4 8 -10 -2 -8 -12 -10 -12 -10
-1 0 12 -3 11 -17 -1 -10 -9 -24 -13 -32 -10 -8 2 -11 0 -7 -6 8 -13 -27 -10
-36 3 -5 6 -8 5 -8 -2 0 -7 -5 -13 -11 -13 -5 0 -7 6 -3 13 5 7 0 6 -11 -3
-17 -14 -18 -13 -12 5 7 20 7 20 -8 1 -11 -14 -15 -16 -15 -5 0 12 -2 12 -10
-1 -8 -12 -10 -12 -10 -1 0 11 -3 11 -17 0 -11 -10 -14 -10 -9 -1 4 6 3 12 -3
12 -5 0 -12 -6 -14 -12 -3 -8 -6 -6 -6 4 -1 10 -10 22 -21 28 -12 7 -18 16
-13 23 5 9 3 9 -9 0 -8 -7 -18 -10 -21 -6 -4 3 -7 0 -8 -8 0 -8 -4 -6 -9 6 -6
17 -9 14 -15 -19 -6 -30 -10 -35 -17 -22 -5 10 -5 24 3 37 8 16 8 24 -1 33 -8
8 -10 7 -5 -6 6 -14 2 -16 -18 -12 -25 4 -46 -19 -27 -31 15 -9 12 -24 -4 -21
-8 1 -21 8 -30 15 -13 11 -16 11 -16 1 0 -8 -3 -11 -6 -7 -3 3 -1 14 5 24 8
14 11 15 11 3 1 -8 7 -1 15 15 7 17 14 23 15 15 1 -11 4 -9 10 5 5 11 9 14 9
8 1 -7 5 -13 9 -13 11 0 13 39 1 45 -5 3 -6 0 -4 -7 4 -9 -2 -14 -15 -15 -11
-1 -18 2 -16 6 3 4 -1 8 -8 8 -8 0 -12 -6 -9 -14 3 -7 0 -13 -7 -13 -6 0 -8
-5 -4 -12 4 -7 3 -8 -4 -4 -7 4 -10 20 -7 37 5 25 2 32 -15 36 -11 3 -17 9
-14 14 3 5 9 7 14 4 5 -3 12 0 16 6 5 8 1 10 -14 7 -12 -3 -23 -3 -25 1 -2 3
-2 1 -1 -6 2 -6 -3 -17 -11 -23 -10 -8 -16 -7 -25 7 -9 15 -11 15 -6 1 3 -9
-2 -19 -11 -22 -11 -5 -14 -2 -9 10 4 9 2 22 -4 29 -8 10 -8 15 1 21 7 4 9 3
6 -3 -3 -5 0 -10 7 -10 8 0 12 7 9 14 -3 8 -12 12 -20 9 -8 -3 -19 -6 -24 -6
-6 0 -7 -4 -4 -10 3 -5 1 -10 -6 -10 -13 0 -3 -14 12 -16 22 -3 23 -6 4 -14
-28 -12 -45 -12 -45 1 0 5 5 7 10 4 6 -3 10 -2 10 3 0 6 -7 13 -16 16 -14 5
-14 9 -3 23 12 14 11 15 -9 9 -15 -5 -22 -3 -23 6 0 7 -4 4 -9 -7 -6 -14 -9
-15 -9 -4 -1 8 5 21 12 28 10 11 9 13 -6 8 -15 -6 -16 -4 -7 13 6 11 13 20 16
20 3 0 3 -4 -1 -9 -3 -5 -1 -12 4 -15 5 -3 8 14 7 38 0 24 -4 42 -8 39 -5 -2
-8 0 -8 6 0 5 6 12 13 15 6 3 -1 3 -18 0 -20 -4 -26 -3 -17 4 11 7 10 10 -3
16 -30 11 -32 7 -38 -86z m47 4 c3 -5 -1 -9 -9 -9 -8 0 -12 4 -9 9 3 4 7 8 9
8 2 0 6 -4 9 -8z m192 -144 c4 -7 3 -8 -4 -4 -7 4 -12 2 -12 -3 0 -15 27 -14
34 2 2 6 4 2 2 -10 -3 -28 -6 -32 -44 -42 -26 -8 -30 -7 -25 7 5 11 3 13 -7 7
-8 -5 -18 -1 -28 11 -14 18 -14 18 -9 -3 3 -15 1 -20 -9 -16 -10 3 -10 10 -2
28 8 18 13 21 23 12 7 -7 11 -15 9 -19 -3 -4 5 -6 16 -5 20 1 27 12 13 20 -5
2 -3 2 4 1 6 -2 14 4 17 12 7 17 12 18 22 2z m-153 -43 c-7 -21 -12 -19 -10 4
0 11 5 18 9 15 4 -3 5 -11 1 -19z m30 -5 c3 -11 1 -18 -4 -14 -5 3 -9 12 -9
20 0 20 7 17 13 -6z m145 -35 c-3 -3 -9 2 -12 12 -6 14 -5 15 5 6 7 -7 10 -15
7 -18z m-68 -1 c0 -8 -19 -13 -24 -6 -3 5 1 9 9 9 8 0 15 -2 15 -3z m11 -17
c-10 -9 -11 -8 -5 6 3 10 9 15 12 12 3 -3 0 -11 -7 -18z m149 13 c5 8 7 3 7
-14 -2 -24 -3 -25 -14 -9 -7 9 -13 22 -12 27 0 6 3 5 6 -3 4 -10 7 -11 13 -1z
m94 -22 c-5 -7 -1 -9 9 -5 10 4 17 2 17 -4 0 -7 -10 -9 -26 -5 -18 5 -24 3
-18 -5 4 -8 3 -9 -5 -5 -6 4 -9 12 -6 17 3 5 -1 6 -9 3 -9 -3 -16 -1 -16 6 0
6 4 9 8 6 4 -2 14 -1 22 4 17 11 33 3 24 -12z m-314 -78 c0 -5 -12 -7 -27 -6
-16 2 -38 4 -51 5 -13 0 -21 4 -18 9 6 10 96 2 96 -8z"/>
<path d="M5916 6794 c-6 -15 -1 -16 28 -5 19 7 19 8 -1 13 -14 4 -24 0 -27 -8z"/>
<path d="M4562 7025 c0 -16 2 -22 5 -12 2 9 2 23 0 30 -3 6 -5 -1 -5 -18z"/>
<path d="M5870 7028 c-9 -20 -9 -21 2 -7 7 9 20 18 28 22 12 4 12 6 -2 6 -10
1 -22 -9 -28 -21z"/>
<path d="M4472 7015 c0 -16 2 -22 5 -12 2 9 2 23 0 30 -3 6 -5 -1 -5 -18z"/>
<path d="M4430 7016 c0 -2 8 -10 18 -17 15 -13 16 -12 3 4 -13 16 -21 21 -21
13z"/>
<path d="M7140 7013 c-57 -20 -105 -55 -175 -127 -75 -78 -160 -136 -200 -136
-8 0 -15 -4 -15 -10 0 -17 32 -11 90 15 39 18 81 52 145 118 103 105 129 125
188 137 34 6 36 8 12 8 -16 0 -37 -2 -45 -5z"/>
<path d="M4492 6990 c0 -14 2 -19 5 -12 2 6 2 18 0 25 -3 6 -5 1 -5 -13z"/>
<path d="M5946 6994 c-4 -9 -4 -19 -1 -22 3 -3 5 0 5 7 0 7 4 9 10 6 6 -3 7 1
4 9 -8 20 -10 20 -18 0z"/>
<path d="M6964 6975 c-130 -94 -185 -126 -249 -150 -38 -14 -79 -25 -89 -25
-14 0 -17 -3 -9 -11 18 -18 124 -12 173 9 25 11 65 38 91 60 44 39 145 152
136 152 -3 0 -27 -16 -53 -35z"/>
<path d="M4512 6980 c0 -14 2 -19 5 -12 2 6 2 18 0 25 -3 6 -5 1 -5 -13z"/>
<path d="M5902 6956 c7 -8 15 -12 17 -11 5 6 -10 25 -20 25 -5 0 -4 -6 3 -14z"/>
<path d="M5845 6950 c-4 -6 -11 -8 -16 -5 -5 4 -9 1 -9 -4 0 -6 -6 -11 -14
-11 -8 0 -18 -5 -22 -12 -5 -7 -2 -9 8 -5 22 8 41 -13 27 -30 -8 -9 -8 -13 0
-13 6 0 12 5 12 10 1 6 2 15 3 22 0 6 7 13 15 16 9 3 11 0 6 -8 -5 -9 -4 -11
4 -6 6 4 9 11 6 16 -3 4 -2 10 2 13 5 2 3 2 -4 1 -7 -2 -10 3 -6 12 6 16 -3
19 -12 4z m-5 -24 c0 -3 -4 -8 -10 -11 -5 -3 -10 -1 -10 4 0 6 5 11 10 11 6 0
10 -2 10 -4z"/>
<path d="M7089 6876 c-13 -19 -35 -41 -49 -50 -14 -8 -39 -29 -57 -46 -18 -16
-36 -30 -40 -30 -4 0 -21 -11 -37 -25 -16 -14 -33 -25 -38 -25 -4 0 -8 -4 -8
-10 0 -5 7 -7 15 -4 10 4 15 0 15 -10 0 -9 -7 -19 -16 -23 -13 -5 -13 -7 -2
-14 9 -6 7 -9 -9 -9 -13 0 -23 -4 -23 -10 0 -5 8 -6 18 -3 9 4 4 -5 -13 -19
-20 -16 -48 -27 -83 -32 -30 -4 -51 -3 -48 2 3 5 -1 9 -8 9 -8 0 -12 -6 -9
-14 3 -7 0 -13 -6 -13 -6 0 -11 5 -11 11 0 5 -5 7 -11 3 -8 -4 -7 -9 2 -15 11
-7 9 -9 -6 -10 -11 -1 -29 -1 -40 -1 -15 2 -16 0 -7 -7 11 -6 9 -10 -7 -14
-13 -3 -19 -1 -15 5 3 5 -9 2 -27 -7 -39 -20 -52 -31 -26 -22 25 9 21 2 -9
-18 -18 -11 -24 -12 -18 -4 6 12 5 12 -9 0 -9 -7 -14 -18 -10 -24 3 -5 1 -7
-5 -3 -6 3 -25 -9 -43 -26 -18 -18 -29 -27 -24 -19 5 8 4 12 -1 8 -14 -8 -59
29 -59 49 0 9 -8 18 -17 20 -11 1 -15 -3 -11 -14 4 -10 2 -13 -5 -8 -13 8 -35
-27 -24 -40 4 -5 -2 -2 -12 6 -17 14 -18 13 -12 -6 3 -12 0 -28 -9 -40 -13
-16 -14 -16 -9 -1 5 14 2 16 -12 10 -11 -4 -25 -15 -32 -25 -15 -21 -31 -16
-30 10 0 9 -1 24 -3 32 -3 11 4 15 24 14 30 0 34 9 14 28 -15 13 -11 58 5 58
6 0 7 -8 4 -17 -6 -17 -5 -17 7 -1 14 18 92 42 107 33 6 -3 10 -1 10 4 0 14
-2 14 -117 -8 -54 -11 -127 -22 -163 -26 -36 -3 -92 -10 -125 -15 -33 -5 -107
-12 -165 -15 -58 -4 -106 -7 -107 -9 -1 -1 -4 -40 -5 -86 l-3 -84 95 -15 c107
-16 334 -19 485 -7 89 8 199 1 331 -19 13 -2 21 2 21 11 0 8 -4 14 -9 14 -4 0
-8 -4 -8 -10 0 -5 -7 -7 -15 -4 -20 8 -19 24 3 40 16 13 16 14 -2 7 -12 -4
-17 -3 -13 4 4 6 -5 10 -22 9 -16 -1 -27 -4 -24 -8 2 -5 0 -8 -5 -8 -6 0 -13
7 -16 16 -3 8 -10 13 -15 9 -5 -3 -12 -1 -15 4 -4 5 5 8 19 6 29 -3 34 10 8
19 -10 3 -24 9 -31 12 -7 3 -11 0 -10 -8 2 -7 -3 -12 -11 -10 -9 2 -11 -3 -7
-13 3 -10 2 -13 -4 -10 -6 4 -20 -4 -31 -17 -17 -20 -19 -20 -10 -3 19 41 116
137 181 180 71 47 170 85 224 85 21 0 36 6 40 15 3 8 13 14 23 14 17 -1 17 -2
1 -6 -26 -6 -22 -23 5 -24 26 -1 15 -5 -35 -13 -20 -4 -39 -14 -42 -23 -5 -13
-4 -14 9 -3 8 7 15 9 15 6 0 -4 9 -2 19 3 14 8 20 7 25 -5 4 -9 2 -12 -5 -8
-15 9 0 -38 15 -48 6 -4 7 -8 2 -8 -5 0 -2 -8 5 -17 12 -15 12 -16 -1 -8 -8 4
-5 -3 7 -16 18 -20 20 -28 10 -39 -9 -10 -9 -11 0 -6 17 9 75 -22 67 -36 -4
-6 -3 -8 3 -5 9 6 50 -35 96 -96 8 -12 16 -14 27 -7 10 6 11 10 3 10 -7 0 -13
11 -13 23 0 13 -11 44 -25 68 -14 24 -39 72 -56 106 l-31 62 8 125 7 125 27 6
c16 3 31 13 34 21 3 8 24 39 47 69 23 31 40 58 37 60 -3 3 -16 -10 -29 -29z
m-879 -400 c0 -6 -9 -22 -20 -36 -11 -14 -18 -17 -14 -8 7 20 -23 19 -35 -1
-6 -10 -10 -9 -14 3 -4 9 -2 15 2 13 5 -1 9 3 10 8 0 6 -9 9 -21 7 -11 -2 -18
1 -14 6 3 5 22 9 41 7 19 -1 35 1 35 5 0 4 7 7 15 7 8 0 15 -5 15 -11z m-160
-31 c14 -19 14 -19 -2 -6 -10 7 -18 18 -18 24 0 6 1 8 3 6 1 -2 9 -13 17 -24z
m20 15 c0 -5 -2 -10 -4 -10 -3 0 -8 5 -11 10 -3 6 -1 10 4 10 6 0 11 -4 11
-10z m287 -5 c-4 -9 6 -24 25 -38 17 -14 28 -29 24 -36 -9 -14 -26 -14 -26 0
0 5 5 7 10 4 6 -3 10 -1 10 4 0 18 -20 12 -45 -14 -14 -14 -25 -19 -25 -11 0
7 3 16 8 20 4 4 8 20 8 34 2 43 4 52 10 52 3 0 4 -7 1 -15z m-218 -45 c6 0 11
-4 11 -9 0 -19 -36 1 -47 27 l-13 27 19 -22 c11 -13 24 -23 30 -23z m185 -38
c-8 -15 -14 -21 -14 -14 0 7 -4 10 -10 7 -5 -3 -10 -1 -10 4 0 6 8 11 18 11
15 0 15 2 2 11 -13 9 -12 10 2 5 15 -4 17 0 13 27 -5 31 -5 31 4 4 7 -20 5
-35 -5 -55z m-470 31 c4 -10 4 -14 0 -10 -4 4 -14 1 -22 -6 -13 -11 -14 -9 -1
11 17 26 15 26 23 5z m77 -6 c-10 -9 -11 -8 -5 6 3 10 9 15 12 12 3 -3 0 -11
-7 -18z m116 1 c-2 -7 -1 -20 4 -29 5 -10 4 -16 -5 -16 -7 0 -11 10 -10 21 1
12 3 24 3 29 1 4 4 7 7 7 3 0 4 -6 1 -12z m129 -26 c-8 -13 -69 -8 -72 6 -1 7
0 8 3 2 2 -5 9 -10 14 -10 6 0 7 5 4 10 -3 6 -1 10 4 10 6 0 11 -6 12 -12 0
-7 5 -3 11 10 10 20 13 21 20 7 5 -8 7 -19 4 -23z m-212 20 c3 -5 -1 -9 -9 -9
-8 0 -12 4 -9 9 3 4 7 8 9 8 2 0 6 -4 9 -8z m27 -25 c-10 -9 -11 -8 -5 6 3 10
9 15 12 12 3 -3 0 -11 -7 -18z m372 -2 c-3 -9 -8 -14 -10 -11 -3 3 -2 9 2 15
9 16 15 13 8 -4z m132 -73 c6 -8 22 -11 37 -8 22 4 25 1 20 -17 -5 -18 -7 -19
-10 -5 -3 14 -7 16 -23 8 -13 -8 -19 -7 -19 0 0 6 -5 8 -12 4 -7 -4 -8 -3 -4
4 4 7 1 12 -8 12 -8 0 -18 -4 -21 -10 -3 -5 -12 -10 -18 -10 -7 0 -4 5 6 11 9
6 15 14 12 18 -8 14 29 7 40 -7z"/>
<path d="M7331 6885 c-41 -18 -153 -45 -186 -45 -25 0 -59 -29 -77 -65 -5 -11
2 -6 17 12 17 22 38 34 63 38 20 3 76 15 125 27 70 16 90 18 102 8 41 -34 8
-47 -160 -61 -88 -7 -88 -7 40 -6 72 0 138 5 148 9 20 10 23 34 5 41 -8 4 -7
6 4 6 9 1 19 -5 21 -11 3 -7 6 -3 6 9 1 12 -4 25 -11 29 -7 4 -8 3 -4 -4 4 -7
1 -12 -6 -12 -7 0 -19 9 -26 20 -14 24 -17 24 -61 5z"/>
<path d="M6065 6869 c-4 -6 -5 -12 -2 -15 2 -3 7 2 10 11 7 17 1 20 -8 4z"/>
<path d="M6136 6792 c5 -4 12 -11 15 -15 3 -5 9 -2 12 5 3 9 -3 14 -15 15 -11
1 -16 -1 -12 -5z"/>
<path d="M6214 6732 c4 -3 14 -7 22 -8 9 -1 13 0 10 4 -4 3 -14 7 -22 8 -9 1
-13 0 -10 -4z"/>
<path d="M6511 6727 c-1 -15 4 -17 37 -11 50 9 57 17 10 12 -21 -2 -40 1 -42
7 -2 5 -5 2 -5 -8z"/>
<path d="M6005 6720 c3 -5 8 -10 11 -10 2 0 4 5 4 10 0 6 -5 10 -11 10 -5 0
-7 -4 -4 -10z"/>
<path d="M6628 6723 c7 -3 16 -2 19 1 4 3 -2 6 -13 5 -11 0 -14 -3 -6 -6z"/>
<path d="M6870 6719 c0 -5 5 -7 10 -4 6 3 10 8 10 11 0 2 -4 4 -10 4 -5 0 -10
-5 -10 -11z"/>
<path d="M6670 6710 c0 -6 7 -10 15 -10 8 0 15 2 15 4 0 2 -7 6 -15 10 -8 3
-15 1 -15 -4z"/>
<path d="M6538 6693 c7 -3 16 -2 19 1 4 3 -2 6 -13 5 -11 0 -14 -3 -6 -6z"/>
<path d="M6710 6690 c0 -5 5 -10 11 -10 5 0 7 5 4 10 -3 6 -8 10 -11 10 -2 0
-4 -4 -4 -10z"/>
<path d="M6788 6693 c7 -3 16 -2 19 1 4 3 -2 6 -13 5 -11 0 -14 -3 -6 -6z"/>
<path d="M6830 6690 c-13 -8 -12 -10 3 -10 9 0 17 5 17 10 0 12 -1 12 -20 0z"/>
<path d="M6458 6673 c7 -3 16 -2 19 1 4 3 -2 6 -13 5 -11 0 -14 -3 -6 -6z"/>
<path d="M6996 6651 c-3 -14 -8 -52 -11 -83 -7 -60 -4 -69 69 -203 9 -16 23
-48 31 -69 8 -22 18 -37 21 -34 10 11 -18 93 -57 166 -35 66 -39 81 -39 147 0
58 4 76 16 83 14 8 14 10 -4 14 -17 5 -22 0 -26 -21z"/>
<path d="M6290 6651 c0 -5 9 -7 20 -4 11 3 20 7 20 9 0 2 -9 4 -20 4 -11 0
-20 -4 -20 -9z"/>
<path d="M6485 6560 c3 -5 8 -10 11 -10 2 0 4 5 4 10 0 6 -5 10 -11 10 -5 0
-7 -4 -4 -10z"/>
<path d="M6620 6566 c0 -2 7 -9 15 -16 9 -7 15 -8 15 -2 0 5 -7 12 -15 16 -8
3 -15 4 -15 2z"/>
<path d="M5700 6550 c-9 -6 -10 -10 -3 -10 6 0 15 5 18 10 8 12 4 12 -15 0z"/>
<path d="M6450 6543 c0 -14 2 -15 9 -5 6 11 10 10 15 -4 3 -9 9 -14 13 -11 7
8 -15 37 -28 37 -5 0 -9 -8 -9 -17z"/>
<path d="M5783 6535 c0 -8 4 -12 9 -9 5 3 6 10 3 15 -9 13 -12 11 -12 -6z"/>
<path d="M6388 6543 c-10 -2 -18 -12 -18 -21 0 -14 2 -14 9 -3 7 11 9 11 13 0
3 -8 7 -5 10 9 4 12 5 21 5 21 -1 -1 -10 -3 -19 -6z"/>
<path d="M6760 6529 c0 -5 5 -7 10 -4 6 3 10 8 10 11 0 2 -4 4 -10 4 -5 0 -10
-5 -10 -11z"/>
<path d="M5685 6520 c3 -5 8 -10 11 -10 2 0 4 5 4 10 0 6 -5 10 -11 10 -5 0
-7 -4 -4 -10z"/>
<path d="M5851 6520 c-9 -5 -4 -7 13 -7 29 0 32 2 13 10 -8 3 -20 2 -26 -3z"/>
<path d="M6712 6520 c-44 -10 -60 -26 -43 -42 10 -11 11 -9 6 7 l-7 20 18 -20
c15 -18 16 -18 10 -1 -5 14 -2 17 9 12 9 -3 13 -2 10 4 -3 6 3 10 14 10 12 0
21 5 21 10 0 6 -1 10 -2 9 -2 -1 -18 -5 -36 -9z"/>
<path d="M5710 6513 c0 -6 -8 -14 -17 -16 -17 -4 -17 -5 0 -6 9 0 17 -5 17
-11 0 -5 -7 -7 -15 -4 -8 4 -15 1 -15 -6 0 -10 17 -11 73 -5 39 4 80 8 90 8 9
1 17 4 17 7 0 3 17 4 38 2 20 -3 35 -2 32 1 -10 11 -74 9 -134 -3 -44 -9 -61
-9 -70 0 -8 9 -7 11 4 10 26 -4 40 0 40 9 0 5 -9 7 -21 4 -12 -4 -25 0 -30 8
-5 9 -9 10 -9 2z"/>
<path d="M6015 6499 c-12 -4 1 -6 33 -4 29 1 56 6 59 9 9 8 -68 5 -92 -5z"/>
<path d="M3658 6463 c5 -21 7 -23 10 -9 2 10 0 22 -6 28 -6 6 -7 0 -4 -19z"/>
<path d="M5958 6483 c6 -2 18 -2 25 0 6 3 1 5 -13 5 -14 0 -19 -2 -12 -5z"/>
<path d="M6641 6485 c1 -19 18 -51 18 -35 0 8 -4 22 -9 30 -5 8 -9 11 -9 5z"/>
<path d="M6436 6463 c-5 -11 -10 -11 -27 -3 -11 7 -23 9 -27 6 -3 -3 0 -6 6
-6 7 0 12 -6 12 -14 0 -8 4 -18 10 -21 5 -3 7 0 4 9 -4 11 1 14 28 10 25 -3
28 -1 13 5 -19 8 -18 9 5 12 24 4 24 5 3 11 -14 4 -24 1 -27 -9z"/>
<path d="M6601 6471 c-9 -6 -10 -11 -2 -15 6 -4 11 -2 11 5 0 8 4 8 15 -1 13
-11 14 -10 9 4 -7 18 -13 19 -33 7z"/>
<path d="M6782 6464 c-9 -10 -9 -14 -1 -14 6 0 9 -7 5 -17 -6 -17 -5 -17 7 -1
8 10 18 14 23 10 4 -4 2 2 -6 13 -8 11 -14 21 -15 21 0 1 -6 -4 -13 -12z"/>
<path d="M6249 6458 c-7 -15 -4 -68 3 -68 5 0 6 5 3 10 -3 6 -1 10 4 10 6 0
11 -5 11 -12 0 -6 3 -8 6 -5 4 4 1 13 -6 22 -8 10 -9 15 -1 15 6 0 11 8 11 17
0 15 -2 14 -16 -3 -13 -16 -15 -16 -10 -1 4 13 0 26 -5 15z"/>
<path d="M6670 6451 c0 -6 4 -13 10 -16 6 -3 7 1 4 9 -7 18 -14 21 -14 7z"/>
<path d="M6580 6441 c0 -6 -6 -8 -14 -5 -7 3 -32 -12 -56 -34 -37 -33 -40 -40
-25 -45 13 -5 16 -3 11 8 -3 8 0 14 7 12 7 -1 11 3 10 10 -2 7 4 10 12 7 10
-4 15 0 15 12 1 13 5 10 15 -11 7 -16 14 -23 14 -15 1 13 2 13 12 0 9 -13 10
-13 6 0 -2 8 -10 14 -16 13 -6 -2 -11 7 -11 20 0 13 3 17 8 11 5 -9 10 -8 19
2 8 8 9 15 3 19 -6 3 -10 2 -10 -4z"/>
<path d="M6610 6431 c0 -6 4 -13 10 -16 6 -3 7 1 4 9 -7 18 -14 21 -14 7z"/>
<path d="M6217 6393 c4 -9 2 -14 -3 -10 -6 3 -11 -4 -11 -16 -2 -21 -1 -22 13
-3 16 23 19 46 4 46 -5 0 -6 -7 -3 -17z"/>
<path d="M6627 6383 c3 -7 6 -13 8 -13 2 0 5 6 8 13 3 8 -1 14 -8 14 -7 0 -11
-6 -8 -14z"/>
<path d="M6666 6387 c3 -10 9 -15 12 -12 3 3 0 11 -7 18 -10 9 -11 8 -5 -6z"/>
<path d="M6513 6367 c-3 -5 0 -14 6 -20 6 -6 11 -7 11 -2 0 5 6 1 13 -9 12
-16 13 -16 13 3 0 11 -5 17 -10 14 -5 -4 -7 0 -4 9 7 16 -19 21 -29 5z"/>
<path d="M7121 6324 c0 -11 3 -14 6 -6 3 7 2 16 -1 19 -3 4 -6 -2 -5 -13z"/>
<path d="M6630 6280 c6 -11 13 -20 16 -20 2 0 0 9 -6 20 -6 11 -13 20 -16 20
-2 0 0 -9 6 -20z"/>
<path d="M6657 6256 c-6 -15 -10 -16 -22 -6 -12 10 -15 9 -15 -7 0 -14 8 -19
33 -20 24 -2 27 0 13 6 -22 8 -10 20 16 16 11 -2 15 2 11 12 -4 11 -8 12 -13
3 -6 -9 -9 -9 -12 1 -3 9 -6 7 -11 -5z"/>
<path d="M5670 6221 c0 -46 -6 -44 213 -61 296 -23 539 -51 737 -84 257 -43
313 -48 306 -30 -4 9 2 14 17 14 18 0 19 2 7 10 -13 9 -13 10 0 10 24 1 -28
27 -90 46 -62 18 -205 45 -395 74 -91 14 -201 21 -365 24 -235 4 -256 6 -340
25 -81 19 -90 16 -90 -28z"/>
<path d="M6690 6220 c0 -6 7 -10 15 -10 8 0 15 2 15 4 0 2 -7 6 -15 10 -8 3
-15 1 -15 -4z"/>
<path d="M6753 6220 c2 -9 17 -16 38 -17 19 -1 25 1 14 4 -11 3 -23 10 -27 17
-5 7 -8 6 -8 -4 0 -13 -1 -13 -11 0 -9 13 -10 13 -6 0z"/>
<path d="M6848 6193 c7 -3 16 -2 19 1 4 3 -2 6 -13 5 -11 0 -14 -3 -6 -6z"/>
<path d="M4234 6168 c-4 -6 -3 -8 4 -4 6 3 15 -2 21 -11 12 -20 14 -13 5 11
-7 19 -20 21 -30 4z"/>
<path d="M7103 5933 c9 -2 23 -2 30 0 6 3 -1 5 -18 5 -16 0 -22 -2 -12 -5z"/>
<path d="M7163 5923 c9 -2 23 -2 30 0 6 3 -1 5 -18 5 -16 0 -22 -2 -12 -5z"/>
<path d="M7248 5913 c6 -2 18 -2 25 0 6 3 1 5 -13 5 -14 0 -19 -2 -12 -5z"/>
<path d="M3762 5830 c0 -19 2 -27 5 -17 2 9 2 25 0 35 -3 9 -5 1 -5 -18z"/>
<path d="M3982 5835 c0 -16 2 -22 5 -12 2 9 2 23 0 30 -3 6 -5 -1 -5 -18z"/>
<path d="M3642 5810 c0 -14 2 -19 5 -12 2 6 2 18 0 25 -3 6 -5 1 -5 -13z"/>
<path d="M3992 5780 c0 -14 2 -19 5 -12 2 6 2 18 0 25 -3 6 -5 1 -5 -13z"/>
<path d="M3651 5764 c0 -11 3 -14 6 -6 3 7 2 16 -1 19 -3 4 -6 -2 -5 -13z"/>
<path d="M3772 5755 c0 -16 2 -22 5 -12 2 9 2 23 0 30 -3 6 -5 -1 -5 -18z"/>
<path d="M4001 5719 c1 -19 5 -45 9 -59 6 -16 7 -6 3 30 -7 63 -13 80 -12 29z"/>
<path d="M6880 5705 c0 -2 33 -20 73 -38 40 -19 98 -50 129 -70 53 -34 115
-57 148 -56 8 0 -6 8 -31 18 -25 10 -70 36 -100 58 -67 49 -88 61 -147 79 -49
14 -72 17 -72 9z"/>
<path d="M4088 5633 c12 -2 30 -2 40 0 9 3 -1 5 -23 4 -22 0 -30 -2 -17 -4z"/>
<path d="M6880 5611 c0 -11 89 -31 133 -30 23 1 10 6 -43 20 -88 22 -90 22
-90 10z"/>
<path d="M7058 5573 c7 -3 16 -2 19 1 4 3 -2 6 -13 5 -11 0 -14 -3 -6 -6z"/>
<path d="M4931 5094 c0 -11 3 -14 6 -6 3 7 2 16 -1 19 -3 4 -6 -2 -5 -13z"/>
<path d="M5252 4975 c0 -16 2 -22 5 -12 2 9 2 23 0 30 -3 6 -5 -1 -5 -18z"/>
<path d="M5380 4894 c0 -17 23 -34 47 -34 13 0 23 5 23 10 0 6 -10 10 -23 10
-13 0 -28 5 -35 12 -7 7 -12 8 -12 2z"/>
<path d="M6233 4860 c4 -14 12 -74 18 -135 6 -60 13 -112 16 -115 3 -3 2 51
-2 120 -6 91 -12 128 -23 140 -14 13 -15 13 -9 -10z"/>
<path d="M5600 4719 c0 -5 5 -7 10 -4 6 3 10 8 10 11 0 2 -4 4 -10 4 -5 0 -10
-5 -10 -11z"/>
<path d="M7005 4195 c-5 -2 -29 -9 -52 -15 -28 -7 -43 -16 -43 -27 0 -13 9
-15 63 -9 66 8 92 21 63 32 -14 5 -15 9 -4 15 10 7 10 9 -2 8 -8 0 -19 -2 -25
-4z"/>
<path d="M3847 3927 c-9 -11 -17 -25 -17 -30 0 -6 10 2 21 17 12 15 20 29 17
31 -2 2 -11 -6 -21 -18z"/>
<path d="M3530 3640 c-9 -6 -10 -10 -3 -10 6 0 15 5 18 10 8 12 4 12 -15 0z"/>
<path d="M3417 3555 c-15 -14 -24 -25 -19 -25 9 0 52 37 52 45 0 8 -4 6 -33
-20z"/>
<path d="M3311 3458 c-34 -34 -61 -67 -61 -72 0 -6 3 -6 8 0 5 5 35 37 67 72
75 80 65 81 -14 0z"/>
<path d="M3226 3341 c-23 -43 -19 -52 5 -13 12 18 19 35 16 38 -3 3 -13 -8
-21 -25z"/>
<path d="M3532 2692 c19 -22 95 -52 135 -53 21 -1 52 -5 68 -9 27 -7 25 -8
-15 -7 -25 0 -63 0 -85 -1 -39 -2 -39 -2 -17 -18 50 -35 209 -44 639 -39 208
3 797 8 1308 11 512 3 973 9 1025 13 l95 8 -75 3 -75 4 63 3 c36 2 62 9 62 15
0 6 -16 26 -36 44 l-35 34 -1477 2 c-812 1 -1503 2 -1534 2 -46 1 -55 -1 -46
-12z m2987 -28 c21 -21 -92 -23 -789 -16 -421 4 -973 7 -1227 7 -254 0 -459 2
-456 5 13 14 376 17 1373 13 602 -2 1097 -6 1099 -9z m-2762 -1 c-20 -2 -52
-2 -70 0 -17 2 0 4 38 4 39 0 53 -2 32 -4z m221 0 c-10 -2 -28 -2 -40 0 -13 2
-5 4 17 4 22 1 32 -1 23 -4z m49 1 c-3 -3 -12 -4 -19 -1 -8 3 -5 6 6 6 11 1
17 -2 13 -5z m-84 -21 c-7 -2 -19 -2 -25 0 -7 3 -2 5 12 5 14 0 19 -2 13 -5z
m755 -20 c-104 -2 -272 -2 -375 0 -104 1 -19 2 187 2 206 0 291 -1 188 -2z
m1723 -13 c66 -6 -13 -8 -270 -4 -200 2 -467 4 -593 4 -126 0 -227 3 -225 8 7
10 973 4 1088 -8z m-1343 3 c-21 -2 -57 -2 -80 0 -24 2 -7 4 37 4 44 0 63 -2
43 -4z m165 0 c-24 -2 -62 -2 -85 0 -24 2 -5 4 42 4 47 0 66 -2 43 -4z"/>
</g>
</svg>
